<svg xmlns="http://www.w3.org/2000/svg" xmlns:xlink="http://www.w3.org/1999/xlink" width="500" zoomAndPan="magnify" viewBox="0 0 375 374.999991" height="500" preserveAspectRatio="xMidYMid meet" version="1.0"><defs><clipPath id="4133d3bad4"><path d="M 0 23.164062 L 375 23.164062 L 375 351.664062 L 0 351.664062 Z M 0 23.164062 " clip-rule="nonzero"/></clipPath><clipPath id="4aff876a7a"><path d="M 225 204 L 243 204 L 243 261 L 225 261 Z M 225 204 " clip-rule="nonzero"/></clipPath><clipPath id="cfa86c3dc2"><path d="M 181 131.25 L 235 131.25 L 235 161 L 181 161 Z M 181 131.25 " clip-rule="nonzero"/></clipPath></defs><g clip-path="url(#4133d3bad4)"><path fill="#000000" d="M 280.683594 23.164062 L 94.316406 23.164062 L 0.00390625 187.414062 L 94.316406 351.664062 L 280.683594 351.664062 L 374.996094 187.414062 L 280.683594 23.164062 M 275.550781 342.765625 L 99.449219 342.765625 L 10.265625 187.414062 L 99.449219 32.0625 L 275.550781 32.0625 L 364.734375 187.414062 L 275.550781 342.765625 " fill-opacity="1" fill-rule="nonzero"/></g><path fill="#d81b1b" d="M 181.867188 181.109375 L 176.953125 186.050781 C 175.066406 187.929688 172.003906 187.929688 170.105469 186.023438 L 158.535156 174.433594 C 156.636719 172.53125 156.636719 169.441406 158.523438 167.566406 L 163.433594 162.625 C 165.332031 160.722656 168.410156 160.722656 170.308594 162.625 L 181.867188 174.226562 C 183.777344 176.132812 183.777344 179.207031 181.867188 181.109375 Z M 177.273438 209.757812 C 175.542969 213.027344 172.449219 216.601562 169.246094 218.980469 C 165.871094 221.554688 161.601562 220.460938 159.832031 216.5625 L 155.070312 199.105469 C 154.328125 196.378906 154.457031 193.703125 156.367188 191.789062 C 158.917969 189.226562 163.011719 189.253906 165.539062 191.789062 L 176.15625 202.4375 C 178.09375 204.382812 178.570312 207.339844 177.273438 209.757812 Z M 152.789062 188.210938 C 150.878906 190.128906 148.222656 190.242188 145.503906 189.511719 L 128.085938 184.726562 C 124.210938 182.960938 123.121094 178.679688 125.675781 175.28125 C 128.058594 172.078125 131.625 168.980469 134.882812 167.230469 C 137.292969 165.945312 140.230469 166.40625 142.179688 168.363281 L 152.789062 179 C 155.316406 181.535156 155.355469 185.636719 152.789062 188.210938 Z M 147.492188 218.867188 L 125.800781 197.101562 C 123.839844 195.132812 125.417969 191.789062 128.199219 192.058594 L 145.492188 193.792969 C 148.285156 194.089844 150.503906 196.316406 150.789062 199.121094 L 152.519531 216.460938 C 152.800781 219.25 149.453125 220.832031 147.492188 218.867188 Z M 195.179688 144.78125 C 192.320312 146.996094 190.546875 150.003906 190.546875 153.296875 C 190.546875 154.121094 190.664062 154.957031 190.882812 155.742188 C 191.894531 159.152344 190.101562 162.871094 186.726562 164.167969 C 185.90625 164.464844 185.070312 164.617188 184.226562 164.617188 C 181.121094 164.617188 178.351562 162.535156 177.515625 159.550781 C 176.941406 157.53125 176.644531 155.410156 176.644531 153.296875 C 176.644531 148.859375 177.941406 144.691406 180.222656 141.011719 C 171.796875 141.257812 160.085938 143.855469 144.464844 151.613281 C 144.464844 151.613281 90.953125 178.359375 128.574219 216.085938 C 166.203125 253.828125 192.855469 200.148438 192.855469 200.148438 C 202.375 180.890625 204.117188 167.601562 203.285156 158.996094 C 202.734375 153.117188 199.695312 148.050781 195.179688 144.78125 " fill-opacity="1" fill-rule="nonzero"/><path fill="#d81b1b" d="M 251.34375 151.972656 C 248.574219 150.378906 245.378906 149.464844 241.980469 149.464844 L 238.761719 149.464844 C 239.003906 150.804688 239.09375 152.128906 239.070312 153.390625 L 239.070312 153.515625 C 240.992188 153.699219 242.828125 153.96875 244.394531 154.328125 C 245.726562 154.6875 246.535156 156.050781 246.226562 157.402344 C 245.867188 158.765625 244.546875 159.550781 243.1875 159.253906 C 238.070312 158.007812 229.464844 158.007812 224.34375 159.253906 C 223.140625 159.550781 221.703125 158.882812 221.304688 157.402344 C 220.996094 156.050781 221.820312 154.6875 223.179688 154.328125 C 223.808594 154.171875 224.460938 154.058594 225.152344 153.929688 L 225.152344 153.335938 C 225.191406 152.515625 225.039062 151.679688 224.808594 150.804688 C 224.679688 150.378906 224.5 149.914062 224.28125 149.503906 C 221.371094 149.710938 218.636719 150.585938 216.1875 151.972656 C 208.941406 156.257812 206.261719 165.53125 208.902344 173.535156 L 212.917969 185.820312 C 215.855469 194.835938 224.253906 200.90625 233.707031 200.90625 C 243.277344 200.90625 251.679688 194.835938 254.628906 185.820312 L 258.628906 173.535156 C 261.308594 165.53125 258.605469 156.257812 251.34375 151.972656 " fill-opacity="1" fill-rule="nonzero"/><g clip-path="url(#4aff876a7a)"><path fill="#d81b1b" d="M 225.257812 204.046875 L 225.257812 210.902344 L 227.847656 210.902344 C 230.246094 210.902344 232.207031 212.832031 232.207031 215.277344 L 232.207031 259.386719 L 233.773438 261.097656 L 241.558594 252.710938 L 239.789062 245.828125 L 239.789062 218.957031 L 242.261719 214.941406 L 242.261719 204.046875 C 239.558594 204.945312 236.695312 205.4375 233.707031 205.4375 C 230.757812 205.4375 227.9375 204.945312 225.257812 204.046875 " fill-opacity="1" fill-rule="nonzero"/></g><path fill="#d81b1b" d="M 227.847656 211.933594 L 225.257812 211.933594 L 225.257812 214.941406 L 227.71875 218.957031 L 227.71875 224.628906 L 225.257812 228.050781 L 227.71875 231.433594 L 225.257812 234.867188 L 227.71875 238.25 L 225.257812 241.660156 L 227.71875 245.070312 L 227.71875 245.828125 L 226 252.710938 L 231.183594 258.269531 L 231.183594 215.277344 C 231.183594 213.410156 229.667969 211.933594 227.847656 211.933594 " fill-opacity="1" fill-rule="nonzero"/><g clip-path="url(#cfa86c3dc2)"><path fill="#d81b1b" d="M 185.097656 159.9375 C 186.277344 159.484375 186.90625 158.1875 186.546875 156.976562 C 186.214844 155.808594 186.035156 154.570312 186.035156 153.296875 C 186.035156 143.816406 195.808594 136.152344 207.914062 136.152344 C 218.457031 136.152344 226.910156 142.003906 229.105469 149.464844 C 229.5 150.738281 229.707031 152.0625 229.667969 153.414062 C 231.273438 153.296875 232.902344 153.273438 234.554688 153.296875 C 234.582031 152 234.441406 150.699219 234.15625 149.464844 C 232.003906 139.226562 221.101562 131.261719 207.914062 131.261719 C 193.164062 131.261719 181.160156 141.128906 181.160156 153.296875 C 181.160156 155.023438 181.402344 156.707031 181.851562 158.316406 C 182.238281 159.703125 183.75 160.449219 185.097656 159.9375 " fill-opacity="1" fill-rule="nonzero"/></g></svg>