<svg xmlns="http://www.w3.org/2000/svg" xmlns:xlink="http://www.w3.org/1999/xlink" width="500" zoomAndPan="magnify" viewBox="0 0 375 374.999991" height="500" preserveAspectRatio="xMidYMid meet" version="1.0"><defs><clipPath id="8bf557146e"><path d="M 0 23.164062 L 375 23.164062 L 375 351.664062 L 0 351.664062 Z M 0 23.164062 " clip-rule="nonzero"/></clipPath><clipPath id="20fcac4289"><path d="M 151 112.5 L 224 112.5 L 224 185 L 151 185 Z M 151 112.5 " clip-rule="nonzero"/></clipPath><clipPath id="1ba307ea5b"><path d="M 112.6875 159 L 262.6875 159 L 262.6875 262.5 L 112.6875 262.5 Z M 112.6875 159 " clip-rule="nonzero"/></clipPath></defs><g clip-path="url(#8bf557146e)"><path fill="#000000" d="M 280.683594 23.164062 L 94.316406 23.164062 L 0.00390625 187.414062 L 94.316406 351.664062 L 280.683594 351.664062 L 374.996094 187.414062 L 280.683594 23.164062 M 275.550781 342.765625 L 99.449219 342.765625 L 10.265625 187.414062 L 99.449219 32.0625 L 275.550781 32.0625 L 364.734375 187.414062 L 275.550781 342.765625 " fill-opacity="1" fill-rule="nonzero"/></g><g clip-path="url(#20fcac4289)"><path fill="#d81b1b" d="M 153.84375 154.683594 L 161.234375 155.734375 L 162.332031 158.96875 L 158.558594 165.882812 C 158.308594 166.34375 158.203125 166.835938 158.242188 167.363281 C 158.28125 167.886719 158.457031 168.355469 158.777344 168.777344 L 164.472656 176.300781 C 164.667969 176.554688 164.898438 176.769531 165.167969 176.941406 C 165.4375 177.113281 165.730469 177.234375 166.042969 177.300781 C 166.355469 177.371094 166.671875 177.382812 166.988281 177.339844 C 167.304688 177.292969 167.605469 177.195312 167.886719 177.042969 L 174.90625 173.273438 L 177.472656 174.765625 L 179.601562 182.59375 C 179.679688 182.882812 179.804688 183.152344 179.976562 183.398438 C 180.148438 183.648438 180.351562 183.863281 180.59375 184.042969 C 180.835938 184.21875 181.101562 184.355469 181.390625 184.445312 C 181.675781 184.535156 181.972656 184.574219 182.273438 184.566406 C 188.789062 184.371094 186.296875 184.363281 193.136719 184.566406 C 193.4375 184.578125 193.730469 184.535156 194.019531 184.445312 C 194.308594 184.355469 194.570312 184.222656 194.8125 184.042969 C 195.054688 183.863281 195.261719 183.648438 195.433594 183.402344 C 195.601562 183.152344 195.726562 182.882812 195.804688 182.59375 L 197.9375 174.765625 L 200.5 173.273438 L 207.519531 177.042969 C 207.804688 177.195312 208.101562 177.292969 208.421875 177.339844 C 208.738281 177.382812 209.054688 177.371094 209.367188 177.300781 C 209.679688 177.234375 209.972656 177.113281 210.242188 176.941406 C 210.511719 176.769531 210.742188 176.554688 210.933594 176.300781 L 216.632812 168.777344 C 216.949219 168.355469 217.128906 167.886719 217.167969 167.363281 C 217.207031 166.835938 217.101562 166.34375 216.847656 165.882812 L 213.078125 158.96875 L 214.175781 155.734375 L 221.5625 154.683594 C 221.882812 154.640625 222.183594 154.539062 222.46875 154.386719 C 222.753906 154.230469 223 154.03125 223.210938 153.789062 C 223.425781 153.546875 223.585938 153.273438 223.699219 152.972656 C 223.8125 152.667969 223.867188 152.355469 223.867188 152.035156 L 223.867188 141.148438 C 223.867188 140.824219 223.8125 140.507812 223.695312 140.203125 C 223.578125 139.898438 223.414062 139.621094 223.199219 139.378906 C 222.980469 139.132812 222.730469 138.933594 222.441406 138.78125 C 222.152344 138.628906 221.84375 138.53125 221.519531 138.492188 L 213.460938 137.480469 L 212.324219 134.855469 L 215.5625 128.675781 C 215.691406 128.425781 215.78125 128.160156 215.828125 127.878906 C 215.875 127.601562 215.878906 127.320312 215.835938 127.039062 C 215.792969 126.757812 215.707031 126.492188 215.582031 126.238281 C 215.453125 125.984375 215.289062 125.753906 215.089844 125.554688 L 208.003906 118.414062 C 207.773438 118.183594 207.507812 118 207.210938 117.863281 C 206.914062 117.726562 206.601562 117.648438 206.273438 117.625 C 205.949219 117.605469 205.628906 117.640625 205.3125 117.738281 C 205 117.832031 204.714844 117.980469 204.457031 118.179688 L 199.25 122.191406 L 197.5 121.503906 L 195.75 114.5625 C 195.675781 114.273438 195.558594 114.003906 195.394531 113.753906 C 195.230469 113.503906 195.03125 113.285156 194.796875 113.101562 C 194.558594 112.917969 194.300781 112.777344 194.019531 112.683594 C 193.734375 112.585938 193.445312 112.535156 193.144531 112.535156 L 182.261719 112.535156 C 181.964844 112.535156 181.671875 112.585938 181.390625 112.683594 C 181.109375 112.777344 180.847656 112.917969 180.613281 113.101562 C 180.375 113.285156 180.175781 113.503906 180.015625 113.753906 C 179.851562 114.003906 179.734375 114.273438 179.660156 114.5625 L 177.910156 121.503906 L 176.15625 122.191406 L 170.953125 118.179688 C 170.695312 117.980469 170.40625 117.832031 170.09375 117.738281 C 169.78125 117.640625 169.460938 117.605469 169.132812 117.625 C 168.808594 117.648438 168.496094 117.726562 168.195312 117.863281 C 167.898438 118 167.632812 118.183594 167.402344 118.414062 L 160.320312 125.554688 C 160.117188 125.753906 159.957031 125.984375 159.828125 126.238281 C 159.699219 126.492188 159.613281 126.757812 159.574219 127.039062 C 159.53125 127.320312 159.53125 127.601562 159.578125 127.878906 C 159.625 128.160156 159.714844 128.425781 159.847656 128.675781 L 163.082031 134.855469 L 161.949219 137.480469 L 153.890625 138.492188 C 153.566406 138.53125 153.257812 138.628906 152.96875 138.78125 C 152.679688 138.933594 152.425781 139.132812 152.210938 139.378906 C 151.996094 139.621094 151.828125 139.898438 151.714844 140.203125 C 151.597656 140.507812 151.539062 140.824219 151.539062 141.148438 L 151.539062 152.035156 C 151.539062 152.355469 151.597656 152.667969 151.710938 152.972656 C 151.820312 153.273438 151.984375 153.546875 152.195312 153.789062 C 152.40625 154.03125 152.65625 154.230469 152.941406 154.386719 C 153.222656 154.539062 153.523438 154.640625 153.84375 154.683594 Z M 156.90625 143.511719 L 164.140625 142.605469 C 164.613281 142.546875 165.039062 142.375 165.417969 142.089844 C 165.800781 141.804688 166.082031 141.441406 166.269531 141.007812 L 168.519531 135.804688 C 168.855469 135.023438 168.828125 134.257812 168.433594 133.503906 L 165.511719 127.929688 L 169.546875 123.863281 L 174.082031 127.359375 C 174.457031 127.648438 174.875 127.824219 175.34375 127.890625 C 175.8125 127.957031 176.265625 127.902344 176.707031 127.730469 L 181.160156 125.980469 C 181.5625 125.824219 181.90625 125.582031 182.191406 125.257812 C 182.476562 124.933594 182.671875 124.5625 182.777344 124.144531 L 184.355469 117.890625 L 191.054688 117.890625 L 192.628906 124.144531 C 192.734375 124.5625 192.929688 124.933594 193.214844 125.257812 C 193.5 125.582031 193.847656 125.824219 194.25 125.980469 L 198.703125 127.730469 C 199.140625 127.902344 199.597656 127.957031 200.0625 127.890625 C 200.53125 127.824219 200.953125 127.648438 201.328125 127.359375 L 205.859375 123.863281 L 209.894531 127.929688 L 206.976562 133.503906 C 206.582031 134.257812 206.554688 135.023438 206.890625 135.804688 L 209.136719 141.007812 C 209.324219 141.441406 209.609375 141.804688 209.988281 142.089844 C 210.371094 142.375 210.796875 142.546875 211.269531 142.605469 L 218.5 143.511719 L 218.5 149.710938 L 211.785156 150.664062 C 211.285156 150.734375 210.839844 150.933594 210.449219 151.253906 C 210.058594 151.578125 209.785156 151.976562 209.621094 152.457031 L 207.617188 158.359375 C 207.363281 159.097656 207.425781 159.8125 207.800781 160.496094 L 211.304688 166.925781 L 208.039062 171.242188 L 201.71875 167.847656 C 201.308594 167.625 200.871094 167.519531 200.402344 167.527344 C 199.933594 167.535156 199.5 167.65625 199.097656 167.890625 L 194.28125 170.695312 C 193.648438 171.0625 193.234375 171.597656 193.042969 172.304688 L 191.179688 179.152344 C 186.640625 179.015625 188.769531 179.015625 184.226562 179.152344 L 182.367188 172.304688 C 182.171875 171.597656 181.761719 171.0625 181.128906 170.695312 L 176.3125 167.890625 C 175.910156 167.65625 175.472656 167.535156 175.007812 167.527344 C 174.539062 167.519531 174.101562 167.625 173.6875 167.847656 L 167.371094 171.242188 L 164.101562 166.925781 L 167.609375 160.496094 C 167.984375 159.8125 168.042969 159.097656 167.792969 158.359375 L 165.785156 152.457031 C 165.625 151.976562 165.347656 151.578125 164.957031 151.253906 C 164.570312 150.933594 164.125 150.734375 163.621094 150.664062 L 156.90625 149.710938 Z M 156.90625 143.511719 " fill-opacity="1" fill-rule="nonzero"/></g><path fill="#d81b1b" d="M 178.207031 155.207031 L 184.730469 155.207031 L 184.730469 167.851562 C 184.730469 170.667969 188.554688 171.574219 189.816406 169.042969 L 200.464844 147.683594 C 200.613281 147.386719 200.71875 147.078125 200.789062 146.753906 C 200.855469 146.429688 200.882812 146.105469 200.867188 145.773438 C 200.851562 145.445312 200.796875 145.121094 200.695312 144.804688 C 200.597656 144.488281 200.460938 144.191406 200.289062 143.910156 C 200.113281 143.628906 199.90625 143.375 199.667969 143.144531 C 199.425781 142.917969 199.160156 142.722656 198.871094 142.5625 C 198.582031 142.402344 198.277344 142.277344 197.957031 142.195312 C 197.636719 142.113281 197.308594 142.070312 196.976562 142.070312 L 196.96875 142.070312 L 190.472656 142.089844 L 190.472656 129.253906 C 190.472656 128.949219 190.421875 128.65625 190.320312 128.367188 C 190.21875 128.082031 190.074219 127.820312 189.886719 127.582031 C 189.695312 127.34375 189.472656 127.144531 189.214844 126.984375 C 188.957031 126.824219 188.679688 126.710938 188.382812 126.640625 C 188.085938 126.574219 187.785156 126.558594 187.484375 126.59375 C 187.179688 126.628906 186.890625 126.710938 186.617188 126.84375 C 186.34375 126.976562 186.101562 127.152344 185.886719 127.367188 C 185.671875 127.582031 185.496094 127.824219 185.367188 128.101562 L 174.894531 149.972656 C 174.761719 150.25 174.664062 150.542969 174.605469 150.84375 C 174.546875 151.148438 174.523438 151.453125 174.542969 151.761719 C 174.5625 152.070312 174.617188 152.371094 174.710938 152.667969 C 174.808594 152.960938 174.9375 153.238281 175.101562 153.5 C 175.265625 153.761719 175.460938 154 175.6875 154.210938 C 175.914062 154.421875 176.164062 154.605469 176.433594 154.753906 C 176.703125 154.902344 176.992188 155.015625 177.289062 155.09375 C 177.589844 155.171875 177.894531 155.207031 178.207031 155.207031 Z M 185.105469 141.070312 L 185.105469 143.507812 C 185.105469 144.03125 185.203125 144.53125 185.40625 145.015625 C 185.605469 145.5 185.890625 145.925781 186.261719 146.292969 C 186.632812 146.664062 187.058594 146.949219 187.542969 147.148438 C 188.027344 147.347656 188.53125 147.449219 189.054688 147.449219 L 189.066406 147.449219 L 194.59375 147.433594 L 190.097656 156.457031 L 190.097656 154.039062 C 190.097656 153.765625 190.070312 153.492188 190.015625 153.222656 C 189.960938 152.953125 189.882812 152.691406 189.777344 152.4375 C 189.671875 152.183594 189.542969 151.945312 189.386719 151.714844 C 189.234375 151.488281 189.0625 151.277344 188.867188 151.082031 C 188.671875 150.886719 188.460938 150.714844 188.230469 150.5625 C 188 150.410156 187.761719 150.28125 187.503906 150.175781 C 187.25 150.070312 186.988281 149.988281 186.71875 149.933594 C 186.449219 149.882812 186.175781 149.855469 185.902344 149.855469 L 180.898438 149.855469 Z M 185.105469 141.070312 " fill-opacity="1" fill-rule="nonzero"/><path fill="#d81b1b" d="M 195.421875 198.082031 C 195.421875 198.480469 195.34375 198.867188 195.191406 199.234375 C 195.039062 199.605469 194.820312 199.929688 194.535156 200.210938 C 194.253906 200.496094 193.925781 200.710938 193.558594 200.863281 C 193.1875 201.019531 192.800781 201.09375 192.402344 201.09375 C 192 201.09375 191.617188 201.019531 191.246094 200.863281 C 190.875 200.710938 190.550781 200.496094 190.265625 200.210938 C 189.984375 199.929688 189.765625 199.605469 189.613281 199.234375 C 189.457031 198.867188 189.382812 198.480469 189.382812 198.082031 C 189.382812 197.683594 189.457031 197.296875 189.613281 196.929688 C 189.765625 196.5625 189.984375 196.234375 190.265625 195.953125 C 190.550781 195.671875 190.875 195.453125 191.246094 195.300781 C 191.617188 195.148438 192 195.070312 192.402344 195.070312 C 192.800781 195.070312 193.1875 195.148438 193.558594 195.300781 C 193.925781 195.453125 194.253906 195.671875 194.535156 195.953125 C 194.820312 196.234375 195.039062 196.558594 195.191406 196.929688 C 195.34375 197.296875 195.421875 197.683594 195.421875 198.082031 Z M 195.421875 198.082031 " fill-opacity="1" fill-rule="nonzero"/><path fill="#d81b1b" d="M 186.027344 198.082031 C 186.027344 198.480469 185.949219 198.867188 185.796875 199.234375 C 185.644531 199.605469 185.425781 199.929688 185.140625 200.210938 C 184.859375 200.496094 184.53125 200.710938 184.164062 200.863281 C 183.792969 201.019531 183.40625 201.09375 183.007812 201.09375 C 182.605469 201.09375 182.222656 201.019531 181.851562 200.863281 C 181.480469 200.710938 181.15625 200.496094 180.871094 200.210938 C 180.589844 199.929688 180.371094 199.605469 180.21875 199.234375 C 180.066406 198.867188 179.988281 198.480469 179.988281 198.082031 C 179.988281 197.683594 180.066406 197.296875 180.21875 196.929688 C 180.371094 196.5625 180.589844 196.234375 180.871094 195.953125 C 181.15625 195.671875 181.480469 195.453125 181.851562 195.300781 C 182.222656 195.148438 182.605469 195.070312 183.007812 195.070312 C 183.40625 195.070312 183.792969 195.148438 184.164062 195.300781 C 184.53125 195.453125 184.859375 195.671875 185.140625 195.953125 C 185.425781 196.234375 185.644531 196.558594 185.796875 196.929688 C 185.949219 197.296875 186.027344 197.683594 186.027344 198.082031 Z M 186.027344 198.082031 " fill-opacity="1" fill-rule="nonzero"/><path fill="#d81b1b" d="M 175.953125 198.214844 C 175.953125 197.859375 175.886719 197.515625 175.75 197.1875 C 175.613281 196.859375 175.417969 196.570312 175.167969 196.320312 C 174.914062 196.070312 174.625 195.875 174.296875 195.738281 C 173.96875 195.605469 173.625 195.535156 173.269531 195.535156 L 149.746094 195.535156 L 155.613281 174.96875 C 155.710938 174.628906 155.738281 174.28125 155.695312 173.929688 C 155.65625 173.578125 155.546875 173.246094 155.375 172.9375 C 155.203125 172.625 154.976562 172.359375 154.695312 172.140625 C 154.417969 171.921875 154.109375 171.761719 153.765625 171.664062 C 153.421875 171.566406 153.074219 171.539062 152.722656 171.582031 C 152.367188 171.621094 152.035156 171.726562 151.726562 171.898438 C 151.414062 172.074219 151.148438 172.296875 150.929688 172.574219 C 150.707031 172.855469 150.546875 173.164062 150.449219 173.503906 L 143.609375 197.480469 C 143.550781 197.679688 143.519531 197.882812 143.507812 198.089844 C 143.5 198.296875 143.515625 198.5 143.550781 198.703125 C 143.589844 198.910156 143.652344 199.105469 143.734375 199.292969 C 143.820312 199.484375 143.925781 199.660156 144.050781 199.828125 C 144.175781 199.992188 144.316406 200.140625 144.476562 200.273438 C 144.636719 200.40625 144.808594 200.515625 144.996094 200.609375 C 145.179688 200.703125 145.375 200.773438 145.574219 200.820312 C 145.777344 200.867188 145.984375 200.890625 146.191406 200.890625 L 173.269531 200.890625 C 173.625 200.890625 173.96875 200.824219 174.296875 200.6875 C 174.625 200.550781 174.914062 200.359375 175.167969 200.105469 C 175.417969 199.855469 175.613281 199.566406 175.75 199.238281 C 175.886719 198.910156 175.953125 198.570312 175.953125 198.214844 Z M 175.953125 198.214844 " fill-opacity="1" fill-rule="nonzero"/><path fill="#d81b1b" d="M 223.71875 173.355469 C 223.601562 173.019531 223.425781 172.71875 223.1875 172.453125 C 222.949219 172.191406 222.671875 171.980469 222.351562 171.824219 C 222.03125 171.671875 221.691406 171.585938 221.335938 171.5625 C 220.984375 171.542969 220.636719 171.59375 220.300781 171.710938 C 219.964844 171.828125 219.664062 172.003906 219.398438 172.238281 C 219.132812 172.476562 218.921875 172.753906 218.769531 173.074219 C 218.613281 173.394531 218.527344 173.730469 218.503906 174.085938 C 218.484375 174.4375 218.535156 174.785156 218.652344 175.121094 L 225.792969 195.535156 L 201.273438 195.535156 C 200.914062 195.535156 200.574219 195.605469 200.246094 195.738281 C 199.914062 195.875 199.625 196.070312 199.375 196.320312 C 199.121094 196.570312 198.929688 196.859375 198.792969 197.1875 C 198.65625 197.515625 198.585938 197.859375 198.585938 198.214844 C 198.585938 198.570312 198.65625 198.910156 198.792969 199.238281 C 198.929688 199.566406 199.121094 199.855469 199.375 200.105469 C 199.625 200.359375 199.914062 200.550781 200.246094 200.6875 C 200.574219 200.824219 200.914062 200.890625 201.273438 200.890625 L 229.570312 200.890625 C 229.785156 200.890625 229.996094 200.867188 230.207031 200.816406 C 230.414062 200.765625 230.613281 200.691406 230.804688 200.59375 C 230.992188 200.496094 231.171875 200.375 231.332031 200.234375 C 231.492188 200.09375 231.636719 199.9375 231.761719 199.765625 C 231.882812 199.589844 231.984375 199.402344 232.066406 199.203125 C 232.144531 199.007812 232.199219 198.800781 232.230469 198.589844 C 232.257812 198.378906 232.265625 198.164062 232.242188 197.953125 C 232.222656 197.742188 232.175781 197.535156 232.105469 197.332031 Z M 223.71875 173.355469 " fill-opacity="1" fill-rule="nonzero"/><g clip-path="url(#1ba307ea5b)"><path fill="#d81b1b" d="M 255.945312 182.539062 L 246.761719 182.539062 C 246.21875 182.539062 245.722656 182.6875 245.269531 182.988281 C 244.816406 183.292969 244.488281 183.691406 244.28125 184.195312 L 241.035156 192.046875 L 231.585938 165.210938 C 230.167969 161.957031 226.78125 159.855469 222.964844 159.851562 L 222.960938 159.851562 C 222.605469 159.851562 222.261719 159.917969 221.933594 160.054688 C 221.605469 160.191406 221.316406 160.382812 221.0625 160.636719 C 220.8125 160.886719 220.617188 161.175781 220.480469 161.503906 C 220.34375 161.832031 220.277344 162.171875 220.277344 162.527344 C 220.277344 162.882812 220.34375 163.222656 220.480469 163.550781 C 220.617188 163.878906 220.8125 164.171875 221.0625 164.421875 C 221.3125 164.671875 221.605469 164.867188 221.933594 165 C 222.261719 165.136719 222.605469 165.207031 222.960938 165.207031 C 224.585938 165.207031 226.046875 166.035156 226.628906 167.269531 L 237.828125 199.101562 L 237.832031 199.105469 C 237.929688 199.375 238.066406 199.621094 238.238281 199.851562 L 247.207031 211.59375 C 248.167969 212.855469 248.648438 214.277344 248.652344 215.859375 L 248.652344 241.144531 L 217.324219 241.144531 L 217.324219 229.863281 C 217.324219 229.027344 217.242188 228.199219 217.078125 227.378906 C 216.914062 226.558594 216.671875 225.761719 216.347656 224.988281 C 216.027344 224.214844 215.632812 223.480469 215.167969 222.785156 C 214.703125 222.089844 214.171875 221.445312 213.578125 220.855469 C 212.984375 220.261719 212.339844 219.734375 211.644531 219.269531 C 210.945312 218.804688 210.210938 218.410156 209.433594 218.089844 C 208.660156 217.769531 207.859375 217.527344 207.039062 217.363281 C 206.214844 217.199219 205.386719 217.117188 204.546875 217.117188 L 168.992188 217.117188 C 168.152344 217.117188 167.320312 217.199219 166.492188 217.363281 C 165.667969 217.53125 164.867188 217.773438 164.089844 218.09375 C 163.3125 218.414062 162.574219 218.808594 161.875 219.277344 C 161.175781 219.742188 160.527344 220.273438 159.933594 220.867188 C 159.339844 221.460938 158.808594 222.105469 158.339844 222.804688 C 157.871094 223.5 157.476562 224.238281 157.15625 225.011719 C 156.832031 225.789062 156.589844 226.585938 156.425781 227.410156 C 156.257812 228.234375 156.175781 229.0625 156.175781 229.902344 L 156.175781 241.144531 L 124.851562 241.144531 L 124.851562 216.199219 C 124.851562 214.441406 125.421875 212.890625 126.5625 211.550781 L 136.410156 199.96875 C 136.648438 199.679688 136.828125 199.359375 136.945312 199.007812 L 147.253906 167.191406 C 147.84375 166 149.269531 165.207031 150.851562 165.207031 C 150.851562 165.207031 150.855469 165.207031 150.855469 165.207031 C 151.210938 165.207031 151.554688 165.136719 151.882812 165.003906 C 152.210938 164.867188 152.503906 164.671875 152.753906 164.421875 C 153.007812 164.171875 153.199219 163.882812 153.335938 163.554688 C 153.472656 163.226562 153.539062 162.882812 153.539062 162.53125 C 153.542969 162.175781 153.472656 161.832031 153.335938 161.503906 C 153.199219 161.175781 153.007812 160.886719 152.753906 160.636719 C 152.503906 160.386719 152.214844 160.191406 151.886719 160.054688 C 151.554688 159.917969 151.214844 159.851562 150.859375 159.851562 L 150.851562 159.851562 C 146.542969 159.851562 143.09375 162.621094 142.195312 165.390625 L 134.074219 190.453125 L 131.128906 183.320312 C 130.917969 182.820312 130.589844 182.417969 130.136719 182.117188 C 129.6875 181.816406 129.1875 181.664062 128.644531 181.664062 L 119.464844 181.664062 C 119.019531 181.664062 118.578125 181.710938 118.144531 181.796875 C 117.710938 181.882812 117.285156 182.011719 116.875 182.179688 C 116.46875 182.351562 116.078125 182.558594 115.707031 182.804688 C 115.339844 183.050781 115 183.328125 114.683594 183.644531 C 114.371094 183.957031 114.089844 184.296875 113.84375 184.664062 C 113.597656 185.03125 113.390625 185.421875 113.21875 185.828125 C 113.046875 186.238281 112.921875 186.660156 112.832031 187.09375 C 112.746094 187.527344 112.703125 187.964844 112.703125 188.410156 L 112.703125 193.976562 C 112.703125 194.429688 112.746094 194.878906 112.835938 195.324219 C 112.925781 195.769531 113.058594 196.203125 113.230469 196.621094 C 113.40625 197.039062 113.621094 197.4375 113.871094 197.816406 C 114.125 198.191406 114.414062 198.542969 114.734375 198.863281 C 115.054688 199.183594 115.40625 199.472656 115.785156 199.722656 C 116.164062 199.976562 116.5625 200.1875 116.980469 200.363281 C 117.402344 200.535156 117.835938 200.667969 118.28125 200.757812 C 118.726562 200.84375 119.179688 200.890625 119.632812 200.890625 L 128.585938 200.890625 L 122.46875 208.085938 C 121.503906 209.222656 120.765625 210.484375 120.253906 211.878906 C 119.738281 213.273438 119.484375 214.714844 119.480469 216.199219 L 119.480469 243.824219 C 119.480469 244.175781 119.550781 244.519531 119.6875 244.847656 C 119.824219 245.175781 120.015625 245.464844 120.269531 245.714844 C 120.519531 245.964844 120.808594 246.160156 121.140625 246.296875 C 121.46875 246.433594 121.808594 246.5 122.167969 246.5 L 126.570312 246.5 L 126.570312 255.101562 C 126.570312 255.582031 126.617188 256.0625 126.710938 256.535156 C 126.808594 257.011719 126.949219 257.46875 127.132812 257.917969 C 127.320312 258.363281 127.546875 258.789062 127.816406 259.1875 C 128.085938 259.589844 128.390625 259.960938 128.734375 260.304688 C 129.078125 260.644531 129.449219 260.949219 129.851562 261.21875 C 130.253906 261.488281 130.679688 261.714844 131.128906 261.902344 C 131.574219 262.085938 132.035156 262.226562 132.511719 262.320312 C 132.984375 262.414062 133.464844 262.460938 133.949219 262.464844 L 144.21875 262.464844 C 144.703125 262.460938 145.183594 262.414062 145.65625 262.320312 C 146.132812 262.226562 146.59375 262.085938 147.039062 261.902344 C 147.488281 261.714844 147.914062 261.488281 148.316406 261.21875 C 148.71875 260.949219 149.089844 260.644531 149.433594 260.304688 C 149.777344 259.960938 150.082031 259.589844 150.351562 259.1875 C 150.621094 258.789062 150.847656 258.363281 151.035156 257.917969 C 151.21875 257.46875 151.359375 257.011719 151.457031 256.535156 C 151.550781 256.0625 151.597656 255.582031 151.597656 255.101562 L 151.597656 246.5 L 220.8125 246.5 L 220.8125 255.101562 C 220.8125 255.582031 220.859375 256.0625 220.953125 256.535156 C 221.046875 257.011719 221.1875 257.46875 221.375 257.917969 C 221.558594 258.363281 221.789062 258.789062 222.058594 259.1875 C 222.328125 259.589844 222.632812 259.960938 222.976562 260.304688 C 223.316406 260.644531 223.691406 260.949219 224.09375 261.21875 C 224.496094 261.488281 224.921875 261.714844 225.367188 261.902344 C 225.816406 262.085938 226.277344 262.226562 226.753906 262.320312 C 227.226562 262.414062 227.707031 262.460938 228.191406 262.464844 L 238.457031 262.464844 C 238.941406 262.460938 239.421875 262.414062 239.898438 262.320312 C 240.375 262.226562 240.835938 262.085938 241.28125 261.902344 C 241.730469 261.714844 242.15625 261.488281 242.558594 261.21875 C 242.960938 260.949219 243.332031 260.644531 243.675781 260.304688 C 244.019531 259.960938 244.324219 259.589844 244.59375 259.1875 C 244.863281 258.789062 245.089844 258.363281 245.277344 257.917969 C 245.460938 257.46875 245.601562 257.011719 245.695312 256.535156 C 245.792969 256.0625 245.839844 255.582031 245.839844 255.101562 L 245.839844 246.5 L 251.335938 246.5 C 251.691406 246.5 252.035156 246.433594 252.363281 246.296875 C 252.691406 246.160156 252.980469 245.964844 253.234375 245.714844 C 253.484375 245.464844 253.679688 245.175781 253.816406 244.847656 C 253.949219 244.519531 254.019531 244.175781 254.019531 243.824219 L 254.019531 215.859375 C 254.015625 214.503906 253.796875 213.183594 253.363281 211.898438 C 252.929688 210.613281 252.300781 209.429688 251.476562 208.347656 L 246.445312 201.761719 L 255.773438 201.761719 C 256.230469 201.761719 256.679688 201.71875 257.125 201.628906 C 257.574219 201.539062 258.007812 201.410156 258.425781 201.234375 C 258.847656 201.0625 259.246094 200.847656 259.625 200.59375 C 260.003906 200.34375 260.351562 200.058594 260.675781 199.734375 C 260.996094 199.414062 261.28125 199.066406 261.535156 198.6875 C 261.789062 198.3125 262.003906 197.914062 262.175781 197.492188 C 262.351562 197.074219 262.484375 196.640625 262.570312 196.199219 C 262.660156 195.753906 262.707031 195.304688 262.707031 194.847656 L 262.707031 189.28125 C 262.707031 188.839844 262.664062 188.402344 262.574219 187.964844 C 262.488281 187.53125 262.359375 187.109375 262.191406 186.703125 C 262.019531 186.292969 261.8125 185.90625 261.566406 185.535156 C 261.316406 185.167969 261.039062 184.828125 260.722656 184.515625 C 260.410156 184.203125 260.070312 183.921875 259.699219 183.675781 C 259.332031 183.429688 258.941406 183.222656 258.53125 183.054688 C 258.121094 182.882812 257.699219 182.753906 257.265625 182.667969 C 256.828125 182.582031 256.390625 182.539062 255.945312 182.539062 Z M 118.070312 193.976562 L 118.070312 188.410156 C 118.070312 188.226562 118.105469 188.046875 118.175781 187.878906 C 118.246094 187.707031 118.347656 187.558594 118.476562 187.425781 C 118.609375 187.296875 118.757812 187.195312 118.929688 187.125 C 119.101562 187.054688 119.277344 187.019531 119.464844 187.019531 L 126.847656 187.019531 L 130.371094 195.535156 L 119.632812 195.535156 C 119.425781 195.535156 119.226562 195.496094 119.035156 195.417969 C 118.84375 195.335938 118.675781 195.226562 118.527344 195.078125 C 118.382812 194.933594 118.269531 194.765625 118.1875 194.574219 C 118.109375 194.382812 118.070312 194.183594 118.070312 193.976562 Z M 168.992188 222.472656 L 204.546875 222.472656 C 205.015625 222.472656 205.476562 222.515625 205.9375 222.605469 C 206.398438 222.691406 206.84375 222.824219 207.28125 222.996094 C 207.714844 223.167969 208.128906 223.378906 208.523438 223.632812 C 208.917969 223.882812 209.285156 224.167969 209.628906 224.488281 C 209.96875 224.808594 210.277344 225.15625 210.550781 225.535156 C 210.824219 225.914062 211.0625 226.316406 211.257812 226.738281 C 211.457031 227.160156 211.613281 227.597656 211.730469 228.050781 C 211.84375 228.503906 211.917969 228.964844 211.945312 229.429688 L 161.558594 229.429688 C 161.589844 228.960938 161.664062 228.503906 161.78125 228.050781 C 161.898438 227.597656 162.058594 227.160156 162.257812 226.734375 C 162.457031 226.3125 162.695312 225.910156 162.972656 225.535156 C 163.25 225.15625 163.558594 224.804688 163.898438 224.484375 C 164.242188 224.164062 164.609375 223.878906 165.007812 223.628906 C 165.402344 223.378906 165.816406 223.167969 166.253906 222.996094 C 166.691406 222.824219 167.136719 222.691406 167.597656 222.605469 C 168.058594 222.515625 168.523438 222.472656 168.992188 222.472656 Z M 146.230469 255.101562 C 146.230469 255.367188 146.179688 255.621094 146.078125 255.867188 C 145.972656 256.113281 145.828125 256.332031 145.640625 256.519531 C 145.453125 256.707031 145.234375 256.851562 144.988281 256.957031 C 144.742188 257.058594 144.484375 257.109375 144.21875 257.109375 L 133.949219 257.109375 C 133.683594 257.109375 133.425781 257.058594 133.179688 256.957031 C 132.933594 256.851562 132.714844 256.707031 132.527344 256.519531 C 132.339844 256.332031 132.195312 256.113281 132.089844 255.867188 C 131.988281 255.621094 131.9375 255.367188 131.9375 255.101562 L 131.9375 246.5 L 146.230469 246.5 Z M 161.542969 241.144531 L 161.542969 234.785156 L 211.957031 234.785156 L 211.957031 241.144531 Z M 240.472656 255.101562 C 240.472656 255.367188 240.421875 255.621094 240.316406 255.867188 C 240.214844 256.113281 240.070312 256.332031 239.882812 256.519531 C 239.691406 256.707031 239.476562 256.851562 239.230469 256.957031 C 238.980469 257.058594 238.726562 257.109375 238.457031 257.109375 L 228.191406 257.109375 C 227.925781 257.109375 227.667969 257.058594 227.421875 256.957031 C 227.175781 256.851562 226.957031 256.707031 226.769531 256.519531 C 226.582031 256.332031 226.433594 256.113281 226.332031 255.867188 C 226.230469 255.621094 226.179688 255.367188 226.179688 255.101562 L 226.179688 246.5 L 240.472656 246.5 Z M 257.339844 194.847656 C 257.339844 195.054688 257.296875 195.253906 257.21875 195.445312 C 257.140625 195.636719 257.027344 195.804688 256.878906 195.953125 C 256.734375 196.097656 256.566406 196.210938 256.375 196.289062 C 256.179688 196.367188 255.980469 196.410156 255.773438 196.410156 L 245.039062 196.410156 L 248.558594 187.890625 L 255.945312 187.890625 C 256.128906 187.890625 256.308594 187.929688 256.476562 188 C 256.648438 188.070312 256.800781 188.167969 256.929688 188.300781 C 257.0625 188.429688 257.160156 188.582031 257.230469 188.75 C 257.304688 188.921875 257.339844 189.097656 257.339844 189.28125 Z M 257.339844 194.847656 " fill-opacity="1" fill-rule="nonzero"/></g><path fill="#d81b1b" d="M 139.085938 216.289062 C 138.53125 216.289062 137.988281 216.34375 137.445312 216.449219 C 136.90625 216.554688 136.378906 216.714844 135.871094 216.925781 C 135.359375 217.136719 134.875 217.394531 134.417969 217.699219 C 133.957031 218.007812 133.535156 218.351562 133.144531 218.742188 C 132.753906 219.132812 132.40625 219.554688 132.101562 220.011719 C 131.792969 220.46875 131.535156 220.953125 131.324219 221.460938 C 131.113281 221.96875 130.953125 222.492188 130.847656 223.03125 C 130.738281 223.570312 130.683594 224.117188 130.683594 224.667969 C 130.683594 225.21875 130.738281 225.761719 130.847656 226.300781 C 130.953125 226.839844 131.113281 227.363281 131.324219 227.875 C 131.535156 228.382812 131.792969 228.863281 132.101562 229.320312 C 132.40625 229.777344 132.753906 230.203125 133.144531 230.589844 C 133.535156 230.980469 133.957031 231.328125 134.417969 231.632812 C 134.875 231.9375 135.359375 232.195312 135.871094 232.40625 C 136.378906 232.617188 136.90625 232.777344 137.445312 232.882812 C 137.984375 232.992188 138.53125 233.046875 139.082031 233.046875 C 139.636719 233.046875 140.183594 232.992188 140.722656 232.882812 C 141.261719 232.777344 141.789062 232.617188 142.296875 232.40625 C 142.808594 232.195312 143.292969 231.9375 143.75 231.632812 C 144.210938 231.328125 144.632812 230.980469 145.023438 230.589844 C 145.414062 230.203125 145.761719 229.777344 146.066406 229.320312 C 146.375 228.863281 146.632812 228.382812 146.84375 227.875 C 147.054688 227.363281 147.214844 226.839844 147.320312 226.300781 C 147.429688 225.761719 147.484375 225.21875 147.484375 224.667969 C 147.484375 224.117188 147.429688 223.570312 147.320312 223.03125 C 147.210938 222.492188 147.054688 221.96875 146.839844 221.460938 C 146.628906 220.953125 146.371094 220.472656 146.066406 220.015625 C 145.757812 219.558594 145.410156 219.132812 145.019531 218.746094 C 144.628906 218.355469 144.207031 218.007812 143.75 217.703125 C 143.289062 217.398438 142.804688 217.140625 142.296875 216.929688 C 141.789062 216.71875 141.261719 216.558594 140.722656 216.449219 C 140.179688 216.34375 139.636719 216.289062 139.085938 216.289062 Z M 139.085938 227.691406 C 138.683594 227.691406 138.296875 227.613281 137.925781 227.460938 C 137.550781 227.308594 137.226562 227.089844 136.941406 226.804688 C 136.65625 226.523438 136.4375 226.195312 136.285156 225.824219 C 136.128906 225.453125 136.050781 225.066406 136.050781 224.667969 C 136.050781 224.265625 136.128906 223.878906 136.28125 223.507812 C 136.4375 223.140625 136.65625 222.8125 136.941406 222.527344 C 137.222656 222.246094 137.550781 222.027344 137.921875 221.871094 C 138.296875 221.71875 138.683594 221.644531 139.082031 221.644531 C 139.484375 221.644531 139.871094 221.71875 140.242188 221.871094 C 140.617188 222.027344 140.941406 222.246094 141.226562 222.527344 C 141.511719 222.8125 141.730469 223.140625 141.886719 223.507812 C 142.039062 223.878906 142.117188 224.265625 142.117188 224.667969 C 142.113281 225.066406 142.039062 225.453125 141.882812 225.824219 C 141.730469 226.195312 141.511719 226.519531 141.226562 226.804688 C 140.941406 227.085938 140.613281 227.304688 140.242188 227.460938 C 139.871094 227.613281 139.484375 227.691406 139.085938 227.691406 Z M 139.085938 227.691406 " fill-opacity="1" fill-rule="nonzero"/><path fill="#d81b1b" d="M 224.925781 224.667969 C 224.925781 225.21875 224.980469 225.761719 225.085938 226.300781 C 225.195312 226.839844 225.355469 227.363281 225.566406 227.875 C 225.777344 228.382812 226.035156 228.863281 226.339844 229.320312 C 226.648438 229.777344 226.996094 230.203125 227.386719 230.589844 C 227.777344 230.980469 228.199219 231.328125 228.660156 231.632812 C 229.117188 231.9375 229.601562 232.195312 230.109375 232.40625 C 230.621094 232.617188 231.144531 232.777344 231.6875 232.882812 C 232.226562 232.992188 232.773438 233.046875 233.324219 233.046875 C 233.875 233.046875 234.421875 232.992188 234.964844 232.882812 C 235.503906 232.777344 236.03125 232.617188 236.539062 232.40625 C 237.050781 232.195312 237.53125 231.9375 237.992188 231.632812 C 238.449219 231.328125 238.875 230.980469 239.265625 230.589844 C 239.65625 230.203125 240.003906 229.777344 240.308594 229.320312 C 240.617188 228.863281 240.875 228.382812 241.085938 227.871094 C 241.296875 227.363281 241.457031 226.839844 241.5625 226.300781 C 241.671875 225.761719 241.722656 225.21875 241.722656 224.667969 C 241.722656 224.117188 241.671875 223.570312 241.5625 223.03125 C 241.457031 222.492188 241.296875 221.96875 241.085938 221.460938 C 240.875 220.953125 240.617188 220.46875 240.308594 220.011719 C 240.003906 219.554688 239.65625 219.132812 239.265625 218.742188 C 238.875 218.351562 238.449219 218.007812 237.992188 217.699219 C 237.53125 217.394531 237.050781 217.136719 236.539062 216.925781 C 236.03125 216.714844 235.503906 216.554688 234.964844 216.449219 C 234.421875 216.34375 233.875 216.289062 233.324219 216.289062 C 232.773438 216.289062 232.226562 216.34375 231.6875 216.449219 C 231.144531 216.558594 230.621094 216.71875 230.113281 216.929688 C 229.601562 217.140625 229.121094 217.398438 228.660156 217.703125 C 228.203125 218.007812 227.777344 218.355469 227.386719 218.746094 C 227 219.132812 226.652344 219.558594 226.34375 220.015625 C 226.039062 220.472656 225.777344 220.953125 225.566406 221.460938 C 225.355469 221.96875 225.195312 222.492188 225.089844 223.03125 C 224.980469 223.570312 224.925781 224.117188 224.925781 224.667969 Z M 233.324219 221.644531 C 233.726562 221.644531 234.113281 221.71875 234.484375 221.871094 C 234.855469 222.027344 235.183594 222.246094 235.46875 222.527344 C 235.753906 222.8125 235.972656 223.140625 236.125 223.507812 C 236.28125 223.878906 236.355469 224.265625 236.355469 224.667969 C 236.355469 225.066406 236.28125 225.453125 236.125 225.824219 C 235.972656 226.195312 235.753906 226.519531 235.46875 226.804688 C 235.183594 227.089844 234.855469 227.308594 234.484375 227.460938 C 234.113281 227.613281 233.726562 227.691406 233.324219 227.691406 C 232.921875 227.691406 232.535156 227.613281 232.164062 227.460938 C 231.792969 227.308594 231.464844 227.089844 231.179688 226.804688 C 230.898438 226.523438 230.679688 226.195312 230.523438 225.824219 C 230.371094 225.453125 230.292969 225.066406 230.292969 224.667969 C 230.292969 224.265625 230.371094 223.878906 230.523438 223.511719 C 230.679688 223.140625 230.898438 222.8125 231.183594 222.53125 C 231.464844 222.246094 231.792969 222.027344 232.164062 221.875 C 232.535156 221.71875 232.921875 221.644531 233.324219 221.644531 Z M 233.324219 221.644531 " fill-opacity="1" fill-rule="nonzero"/></svg>