<svg xmlns="http://www.w3.org/2000/svg" xmlns:xlink="http://www.w3.org/1999/xlink" width="500" zoomAndPan="magnify" viewBox="0 0 375 374.999991" height="500" preserveAspectRatio="xMidYMid meet" version="1.0"><defs><clipPath id="b36b475e69"><path d="M 0 23.164062 L 375 23.164062 L 375 351.664062 L 0 351.664062 Z M 0 23.164062 " clip-rule="nonzero"/></clipPath><clipPath id="04a4fe39ea"><path d="M 72.367188 142.339844 L 302.601562 142.339844 L 302.601562 180.785156 L 72.367188 180.785156 Z M 72.367188 142.339844 " clip-rule="nonzero"/></clipPath><clipPath id="a1674dff00"><path d="M 100.34375 192.613281 L 279.988281 192.613281 L 279.988281 233.050781 L 100.34375 233.050781 Z M 100.34375 192.613281 " clip-rule="nonzero"/></clipPath></defs><g clip-path="url(#b36b475e69)"><path fill="#000000" d="M 280.683594 23.164062 L 94.316406 23.164062 L 0.00390625 187.414062 L 94.316406 351.664062 L 280.683594 351.664062 L 374.996094 187.414062 L 280.683594 23.164062 M 275.550781 342.765625 L 99.449219 342.765625 L 10.265625 187.414062 L 99.449219 32.0625 L 275.550781 32.0625 L 364.734375 187.414062 L 275.550781 342.765625 " fill-opacity="1" fill-rule="nonzero"/></g><g clip-path="url(#04a4fe39ea)"><path fill="#d81b1b" d="M 72.367188 180.703125 C 86.429688 166.628906 108.929688 164.804688 127.648438 163.835938 C 133.945312 163.511719 140.664062 163.84375 146.789062 162.304688 C 156.378906 159.894531 164.25 153.214844 172.957031 148.847656 C 188.582031 141.003906 208.992188 140.785156 225.570312 145.351562 C 239.445312 149.175781 252.265625 156.21875 266.398438 159.242188 C 278.457031 161.820312 290.476562 160.386719 302.597656 159.386719 C 300.535156 164.042969 297.949219 169.546875 298.039062 174.746094 C 297.367188 169.9375 299.152344 164.480469 300.664062 159.976562 C 300.933594 160.261719 301.300781 160.664062 301.472656 161.019531 C 298.613281 161.527344 295.753906 162.023438 292.890625 162.511719 C 280.9375 165.339844 267.585938 164.335938 255.570312 161.03125 C 244.15625 157.886719 233.066406 152.71875 221.445312 150.421875 C 208.398438 147.839844 193.1875 147.597656 180.535156 152.265625 C 171.941406 155.4375 164.636719 161.289062 156.300781 165.023438 C 148.355469 168.589844 140.515625 168.789062 131.925781 168.78125 C 112.019531 168.753906 89.203125 168.347656 72.367188 180.703125 C 74.0625 179.003906 74.308594 179.277344 72.367188 180.703125 " fill-opacity="1" fill-rule="nonzero"/></g><g clip-path="url(#a1674dff00)"><path fill="#d81b1b" d="M 105.910156 220.796875 C 109.597656 226.308594 116.726562 231.410156 123.597656 228.253906 C 129.457031 225.5625 133.316406 220.304688 139.75 218.617188 C 148.726562 216.261719 159.472656 217.5625 168.695312 217.617188 C 180.46875 217.691406 192.242188 217.773438 204.019531 217.855469 C 213.246094 217.921875 222.648438 217.375 231.839844 217.84375 C 237.875 218.152344 244.789062 218.871094 249.625 222.917969 C 251.375 224.382812 252.675781 226.480469 254.660156 227.628906 C 258.714844 229.980469 264.808594 228.539062 268.871094 226.964844 C 261.550781 224.992188 252.757812 221.578125 255.191406 212.125 C 257.652344 202.578125 266.125 202.195312 274.117188 205.03125 C 270.433594 199.523438 263.292969 194.410156 256.425781 197.570312 C 250.84375 200.140625 248.457031 206.105469 242.171875 207.566406 C 237.730469 208.597656 233.035156 208.308594 228.5 208.285156 C 223.703125 208.261719 218.902344 208.230469 214.101562 208.203125 C 202.542969 208.128906 190.980469 208.046875 179.417969 207.964844 C 170.003906 207.898438 160.402344 208.484375 151.023438 207.941406 C 144.632812 207.570312 137.863281 206.648438 132.320312 203.179688 C 130.117188 201.800781 128.285156 199.871094 126.050781 198.554688 C 121.628906 195.953125 115.703125 197.101562 111.15625 198.863281 C 118.472656 200.839844 127.273438 204.25 124.835938 213.703125 C 122.371094 223.25 113.902344 223.628906 105.910156 220.796875 C 110.457031 227.597656 108.25 221.628906 105.910156 220.796875 Z M 119.109375 233.050781 C 115.367188 233.050781 111.769531 231.773438 108.753906 229.574219 C 106.789062 228.140625 105.105469 226.359375 103.648438 224.417969 C 102.429688 222.792969 99.289062 219.152344 100.816406 216.917969 C 102.152344 214.964844 104.882812 216.253906 106.585938 216.847656 C 109.257812 217.777344 112.140625 218.902344 115.023438 218.640625 C 119.542969 218.226562 122.960938 212.191406 120.722656 208.058594 C 118.292969 203.5625 111.738281 203.714844 107.652344 201.898438 C 106.066406 201.195312 104.71875 199.894531 105.570312 198.023438 C 106.519531 195.929688 109.945312 195.019531 111.910156 194.429688 C 117.699219 192.695312 124.070312 192.296875 129.21875 195.917969 C 131.488281 197.515625 133.445312 199.40625 135.941406 200.667969 C 144.910156 205.21875 155.914062 204.082031 165.582031 203.921875 C 168.660156 203.871094 171.746094 203.960938 174.824219 203.984375 C 189.515625 204.089844 204.210938 204.191406 218.902344 204.28125 C 223.777344 204.3125 228.648438 204.375 233.523438 204.355469 C 237.28125 204.335938 241.742188 204.4375 244.957031 202.144531 C 248.101562 199.898438 250.207031 196.667969 253.621094 194.644531 C 261.734375 189.832031 271.265625 194.59375 276.378906 201.410156 C 277.597656 203.039062 280.628906 206.550781 279.300781 208.777344 C 278.03125 210.902344 275.167969 209.578125 273.4375 208.976562 C 269.277344 207.53125 263.316406 205.371094 260.308594 209.953125 C 256.859375 215.21875 259.441406 219.601562 264.726562 221.605469 C 267.167969 222.53125 276.460938 223.394531 274.457031 227.804688 C 273.605469 229.671875 270.714844 230.546875 268.957031 231.128906 C 266.007812 232.109375 262.835938 232.722656 259.722656 232.707031 C 254.667969 232.679688 251.71875 230.519531 248.332031 227.117188 C 243.085938 221.851562 234.710938 221.742188 227.765625 221.671875 C 222.757812 221.625 217.75 221.90625 212.738281 221.867188 C 198.519531 221.765625 184.296875 221.664062 170.078125 221.574219 C 164.234375 221.539062 158.390625 221.5 152.546875 221.480469 C 145.128906 221.453125 138.910156 222.085938 132.882812 226.65625 C 128.632812 229.875 124.675781 233.050781 119.109375 233.050781 " fill-opacity="1" fill-rule="nonzero"/></g><path fill="#d81b1b" d="M 76.957031 198.113281 C 84.863281 197.542969 92.773438 197.03125 100.691406 196.527344 C 100.460938 196.734375 100.132812 196.972656 99.863281 197.117188 C 103.339844 187.652344 113.339844 183.207031 122.796875 183.222656 C 130.945312 183.234375 141.808594 186.085938 145.398438 194.359375 C 144.648438 193.855469 143.898438 193.351562 143.148438 192.847656 C 167.902344 192.5 192.664062 192.332031 217.417969 192.613281 C 224.835938 192.695312 232.25 192.800781 239.664062 192.917969 C 239.011719 193.265625 238.359375 193.609375 237.707031 193.957031 C 248.722656 178.675781 271.140625 178.949219 281.4375 194.847656 C 281.226562 194.730469 281.015625 194.617188 280.804688 194.503906 C 285.605469 194.839844 290.410156 195.15625 295.207031 195.585938 C 292.390625 195.726562 289.570312 195.824219 286.753906 195.910156 C 285.023438 195.960938 282.65625 196.484375 280.996094 196.078125 C 279.382812 195.683594 278.078125 193.425781 276.734375 192.265625 C 273.828125 189.746094 270.410156 187.753906 266.707031 186.699219 C 260.621094 184.976562 254.171875 186.15625 248.894531 189.605469 C 246.34375 191.269531 244 193.410156 242.171875 195.859375 C 241.179688 197.1875 241.222656 197.644531 239.527344 197.671875 C 227.507812 197.863281 215.492188 198.023438 203.46875 198.078125 C 191.453125 198.136719 179.433594 198.117188 167.414062 198.027344 C 161.894531 197.984375 156.375 197.925781 150.859375 197.847656 C 147.914062 197.808594 143.703125 198.71875 141.34375 196.53125 C 139.992188 195.277344 139.148438 193.507812 137.675781 192.234375 C 134.746094 189.699219 131.015625 188.296875 127.257812 187.585938 C 121.464844 186.484375 115.132812 186.628906 109.832031 189.4375 C 108.078125 190.367188 106.464844 191.550781 105.058594 192.957031 C 104.351562 193.664062 103.691406 194.425781 103.101562 195.234375 C 102.652344 195.851562 102.003906 197.6875 101.429688 198.0625 C 100.582031 198.613281 98.96875 198.34375 97.828125 198.335938 C 90.871094 198.289062 83.914062 198.222656 76.957031 198.113281 " fill-opacity="1" fill-rule="nonzero"/></svg>