<svg xmlns="http://www.w3.org/2000/svg" xmlns:xlink="http://www.w3.org/1999/xlink" width="500" zoomAndPan="magnify" viewBox="0 0 375 374.999991" height="500" preserveAspectRatio="xMidYMid meet" version="1.0"><defs><clipPath id="3e83dfcf52"><path d="M 69.5625 230 L 149 230 L 149 305.8125 L 69.5625 305.8125 Z M 69.5625 230 " clip-rule="nonzero"/></clipPath></defs><path fill="#d81b1b" d="M 199.476562 141.042969 L 214.066406 126.496094 L 206.449219 118.878906 C 206.257812 118.683594 206.054688 118.511719 205.832031 118.359375 C 205.605469 118.207031 205.371094 118.082031 205.121094 117.976562 C 204.875 117.871094 204.617188 117.792969 204.351562 117.738281 C 204.089844 117.683594 203.820312 117.660156 203.550781 117.660156 C 203.28125 117.660156 203.015625 117.683594 202.75 117.738281 C 202.484375 117.792969 202.226562 117.871094 201.980469 117.976562 C 201.730469 118.082031 201.496094 118.207031 201.269531 118.359375 C 201.046875 118.511719 200.84375 118.683594 200.652344 118.878906 L 188.820312 130.671875 C 189.347656 131.117188 189.914062 131.480469 190.402344 131.964844 Z M 199.476562 141.042969 " fill-opacity="1" fill-rule="nonzero"/><path fill="#d81b1b" d="M 215.769531 157.253906 L 231.652344 141.53125 C 231.855469 141.339844 232.039062 141.132812 232.195312 140.90625 C 232.355469 140.679688 232.492188 140.4375 232.601562 140.183594 C 232.710938 139.929688 232.796875 139.667969 232.851562 139.394531 C 232.910156 139.125 232.9375 138.847656 232.9375 138.570312 C 232.9375 138.292969 232.910156 138.019531 232.851562 137.75 C 232.796875 137.476562 232.710938 137.214844 232.601562 136.960938 C 232.492188 136.707031 232.355469 136.464844 232.195312 136.238281 C 232.039062 136.011719 231.855469 135.804688 231.652344 135.613281 L 226.871094 130.871094 C 226.683594 130.683594 226.476562 130.511719 226.257812 130.363281 C 226.035156 130.214844 225.800781 130.089844 225.554688 129.984375 C 225.304688 129.882812 225.050781 129.804688 224.789062 129.753906 C 224.527344 129.699219 224.261719 129.675781 223.996094 129.675781 C 223.726562 129.675781 223.460938 129.699219 223.199219 129.753906 C 222.9375 129.804688 222.683594 129.882812 222.4375 129.984375 C 222.1875 130.089844 221.953125 130.214844 221.734375 130.363281 C 221.511719 130.511719 221.304688 130.683594 221.117188 130.871094 L 205.355469 146.59375 Z M 215.769531 157.253906 " fill-opacity="1" fill-rule="nonzero"/><path fill="#d81b1b" d="M 226.75 168.03125 C 226.941406 168.21875 227.109375 168.425781 227.257812 168.648438 C 227.410156 168.871094 227.535156 169.105469 227.636719 169.351562 C 227.742188 169.597656 227.816406 169.851562 227.871094 170.113281 C 227.921875 170.378906 227.949219 170.640625 227.949219 170.910156 C 227.949219 171.175781 227.921875 171.441406 227.871094 171.703125 C 227.816406 171.964844 227.742188 172.222656 227.636719 172.46875 C 227.535156 172.714844 227.410156 172.949219 227.257812 173.171875 C 227.109375 173.394531 226.941406 173.597656 226.75 173.785156 L 221.96875 178.527344 C 220.390625 180.066406 218.609375 181.308594 216.621094 182.257812 L 216.945312 182.582031 C 217.132812 182.769531 217.335938 182.941406 217.558594 183.089844 C 217.78125 183.238281 218.015625 183.363281 218.261719 183.46875 C 218.507812 183.570312 218.765625 183.648438 219.027344 183.699219 C 219.289062 183.753906 219.554688 183.777344 219.820312 183.777344 C 220.089844 183.777344 220.351562 183.753906 220.617188 183.699219 C 220.878906 183.648438 221.132812 183.570312 221.378906 183.46875 C 221.625 183.363281 221.859375 183.238281 222.082031 183.089844 C 222.304688 182.941406 222.507812 182.769531 222.699219 182.582031 L 225.089844 180.1875 L 243.8125 161.792969 C 244.011719 161.601562 244.195312 161.394531 244.355469 161.167969 C 244.511719 160.941406 244.648438 160.699219 244.757812 160.445312 C 244.871094 160.191406 244.953125 159.929688 245.007812 159.65625 C 245.066406 159.386719 245.09375 159.109375 245.09375 158.832031 C 245.09375 158.554688 245.066406 158.28125 245.007812 158.011719 C 244.953125 157.738281 244.871094 157.476562 244.757812 157.222656 C 244.648438 156.96875 244.511719 156.726562 244.355469 156.5 C 244.195312 156.273438 244.011719 156.066406 243.8125 155.875 L 236.152344 148.257812 L 221.5625 162.804688 Z M 226.75 168.03125 " fill-opacity="1" fill-rule="nonzero"/><path fill="#d81b1b" d="M 130.347656 122.402344 C 131.363281 123.1875 132.425781 123.90625 133.535156 124.554688 C 134.644531 125.203125 135.789062 125.773438 136.972656 126.273438 C 138.15625 126.773438 139.371094 127.191406 140.609375 127.53125 C 141.847656 127.871094 143.101562 128.128906 144.375 128.308594 C 145.648438 128.484375 146.925781 128.578125 148.210938 128.589844 C 149.496094 128.597656 150.773438 128.527344 152.050781 128.371094 C 153.324219 128.214844 154.582031 127.976562 155.828125 127.65625 C 157.070312 127.335938 158.289062 126.933594 159.480469 126.457031 C 159.851562 126.308594 160.230469 126.214844 160.628906 126.179688 C 161.023438 126.144531 161.414062 126.164062 161.804688 126.242188 C 162.191406 126.324219 162.5625 126.457031 162.914062 126.644531 C 163.261719 126.832031 163.578125 127.066406 163.859375 127.347656 L 166.371094 129.898438 C 167.429688 129.121094 168.558594 128.464844 169.761719 127.929688 C 170.960938 127.394531 172.203125 126.992188 173.488281 126.722656 C 174.773438 126.453125 176.074219 126.324219 177.390625 126.335938 C 178.703125 126.34375 180 126.492188 181.285156 126.78125 L 183.753906 124.308594 L 175.367188 115.878906 C 175.085938 115.597656 174.851562 115.28125 174.664062 114.933594 C 174.476562 114.582031 174.34375 114.214844 174.265625 113.824219 C 174.183594 113.4375 174.164062 113.042969 174.199219 112.648438 C 174.234375 112.253906 174.328125 111.871094 174.476562 111.503906 C 174.996094 110.160156 175.414062 108.785156 175.730469 107.378906 C 176.050781 105.972656 176.261719 104.554688 176.371094 103.117188 C 176.480469 101.679688 176.484375 100.242188 176.382812 98.804688 C 176.28125 97.367188 176.078125 95.945312 175.765625 94.539062 C 175.457031 93.132812 175.046875 91.757812 174.535156 90.410156 C 174.023438 89.0625 173.414062 87.761719 172.710938 86.503906 C 172.007812 85.246094 171.21875 84.046875 170.335938 82.90625 C 169.457031 81.765625 168.5 80.691406 167.464844 79.691406 C 165.800781 78.011719 163.960938 76.546875 161.949219 75.296875 C 159.941406 74.046875 157.8125 73.050781 155.566406 72.304688 C 153.320312 71.558594 151.015625 71.082031 148.660156 70.878906 C 146.300781 70.675781 143.953125 70.75 141.609375 71.101562 L 155.835938 85.324219 C 157.429688 86.898438 158.660156 88.714844 159.523438 90.78125 C 160.386719 92.847656 160.820312 95 160.820312 97.238281 C 160.828125 99.363281 160.429688 101.410156 159.621094 103.378906 C 158.816406 105.34375 157.660156 107.078125 156.160156 108.585938 C 155.769531 108.957031 155.363281 109.3125 154.941406 109.644531 C 154.519531 109.980469 154.082031 110.292969 153.628906 110.582031 C 153.175781 110.875 152.707031 111.144531 152.226562 111.386719 C 151.75 111.632812 151.257812 111.855469 150.757812 112.054688 C 150.253906 112.25 149.746094 112.425781 149.226562 112.574219 C 148.710938 112.71875 148.1875 112.84375 147.65625 112.941406 C 147.125 113.035156 146.59375 113.109375 146.054688 113.152344 C 145.519531 113.199219 144.980469 113.214844 144.441406 113.210938 C 143.902344 113.203125 143.367188 113.167969 142.832031 113.109375 C 142.296875 113.046875 141.765625 112.960938 141.238281 112.851562 C 140.710938 112.738281 140.1875 112.601562 139.675781 112.4375 C 139.160156 112.277344 138.65625 112.089844 138.160156 111.878906 C 137.667969 111.667969 137.183594 111.429688 136.710938 111.171875 C 136.238281 110.914062 135.777344 110.632812 135.332031 110.328125 C 134.886719 110.023438 134.457031 109.699219 134.046875 109.355469 C 133.632812 109.007812 133.234375 108.644531 132.859375 108.261719 L 118.632812 94.035156 C 118.445312 95.367188 118.347656 96.703125 118.335938 98.046875 C 118.324219 99.390625 118.40625 100.726562 118.574219 102.058594 C 118.742188 103.394531 118.996094 104.707031 119.339844 106.007812 C 119.683594 107.304688 120.109375 108.574219 120.625 109.816406 C 121.136719 111.058594 121.726562 112.261719 122.402344 113.421875 C 123.074219 114.585938 123.820312 115.699219 124.640625 116.761719 C 125.464844 117.824219 126.351562 118.828125 127.304688 119.773438 C 128.261719 120.714844 129.273438 121.59375 130.347656 122.402344 Z M 130.347656 122.402344 " fill-opacity="1" fill-rule="nonzero"/><path fill="#d81b1b" d="M 295.640625 207.542969 C 294.625 206.503906 293.542969 205.546875 292.386719 204.671875 C 291.234375 203.792969 290.023438 203.003906 288.753906 202.304688 C 287.484375 201.605469 286.167969 201.003906 284.8125 200.496094 C 283.453125 199.988281 282.0625 199.582031 280.644531 199.28125 C 279.230469 198.976562 277.796875 198.78125 276.347656 198.6875 C 274.902344 198.59375 273.457031 198.609375 272.011719 198.726562 C 270.566406 198.847656 269.136719 199.074219 267.726562 199.402344 C 266.316406 199.730469 264.933594 200.160156 263.585938 200.695312 C 263.214844 200.847656 262.828125 200.941406 262.429688 200.980469 C 262.03125 201.019531 261.636719 201 261.242188 200.917969 C 260.847656 200.839844 260.476562 200.703125 260.121094 200.515625 C 259.769531 200.324219 259.453125 200.085938 259.167969 199.800781 L 254.386719 195.019531 L 244.660156 204.503906 L 242.878906 206.285156 L 247.863281 211.269531 C 248.144531 211.550781 248.378906 211.867188 248.566406 212.214844 C 248.753906 212.566406 248.886719 212.9375 248.964844 213.324219 C 249.046875 213.714844 249.066406 214.105469 249.03125 214.5 C 248.996094 214.898438 248.902344 215.277344 248.753906 215.648438 C 248.273438 216.832031 247.875 218.046875 247.554688 219.285156 C 247.234375 220.523438 246.996094 221.78125 246.839844 223.050781 C 246.679688 224.320312 246.609375 225.59375 246.617188 226.875 C 246.628906 228.15625 246.722656 229.429688 246.898438 230.695312 C 247.078125 231.964844 247.335938 233.214844 247.675781 234.449219 C 248.015625 235.683594 248.4375 236.886719 248.933594 238.066406 C 249.433594 239.246094 250.007812 240.386719 250.65625 241.492188 C 251.304688 242.59375 252.019531 243.652344 252.808594 244.660156 C 253.625 245.71875 254.511719 246.722656 255.460938 247.664062 C 256.414062 248.605469 257.421875 249.480469 258.488281 250.292969 C 259.554688 251.101562 260.667969 251.839844 261.832031 252.5 C 262.996094 253.164062 264.195312 253.746094 265.4375 254.253906 C 266.675781 254.757812 267.945312 255.179688 269.238281 255.515625 C 270.535156 255.855469 271.847656 256.105469 273.175781 256.273438 C 274.503906 256.4375 275.835938 256.515625 277.175781 256.503906 C 278.515625 256.496094 279.847656 256.394531 281.171875 256.210938 L 266.949219 242.027344 C 265.351562 240.449219 264.117188 238.625 263.253906 236.550781 C 262.390625 234.480469 261.960938 232.320312 261.964844 230.074219 C 261.945312 227.953125 262.34375 225.910156 263.152344 223.949219 C 263.960938 221.988281 265.117188 220.261719 266.625 218.765625 C 267.011719 218.394531 267.417969 218.039062 267.839844 217.703125 C 268.261719 217.367188 268.699219 217.054688 269.152344 216.761719 C 269.605469 216.46875 270.074219 216.199219 270.554688 215.953125 C 271.03125 215.707031 271.523438 215.484375 272.023438 215.285156 C 272.527344 215.089844 273.035156 214.914062 273.554688 214.765625 C 274.070312 214.617188 274.597656 214.496094 275.125 214.398438 C 275.65625 214.300781 276.191406 214.226562 276.726562 214.183594 C 277.265625 214.136719 277.804688 214.117188 278.34375 214.125 C 278.882812 214.132812 279.417969 214.167969 279.953125 214.226562 C 280.492188 214.289062 281.023438 214.375 281.550781 214.484375 C 282.078125 214.597656 282.597656 214.734375 283.113281 214.898438 C 283.625 215.0625 284.128906 215.25 284.625 215.460938 C 285.121094 215.675781 285.605469 215.910156 286.078125 216.171875 C 286.550781 216.429688 287.007812 216.710938 287.453125 217.015625 C 287.898438 217.320312 288.328125 217.648438 288.742188 217.992188 C 289.152344 218.339844 289.546875 218.707031 289.925781 219.089844 L 304.191406 233.316406 C 304.546875 230.980469 304.628906 228.640625 304.429688 226.289062 C 304.230469 223.9375 303.761719 221.640625 303.019531 219.398438 C 302.273438 217.160156 301.28125 215.035156 300.03125 213.03125 C 298.785156 211.027344 297.320312 209.199219 295.640625 207.542969 Z M 295.640625 207.542969 " fill-opacity="1" fill-rule="nonzero"/><g clip-path="url(#3e83dfcf52)"><path fill="#d81b1b" d="M 69.5625 271 L 69.5625 305.8125 L 112.476562 305.8125 L 148.945312 269.339844 L 110.085938 230.476562 Z M 69.5625 271 " fill-opacity="1" fill-rule="nonzero"/></g><path fill="#d81b1b" d="M 222.699219 199.925781 C 221.621094 198.84375 220.78125 197.601562 220.171875 196.203125 C 219.5625 194.804688 219.230469 193.34375 219.171875 191.820312 C 217.707031 191.722656 216.300781 191.371094 214.960938 190.761719 C 213.621094 190.15625 212.433594 189.332031 211.390625 188.292969 L 207.339844 184.242188 C 204.710938 184.210938 202.183594 183.683594 199.757812 182.667969 C 197.332031 181.652344 195.1875 180.21875 193.320312 178.367188 L 193.074219 178.121094 C 193.273438 179.710938 193.367188 181.304688 193.359375 182.90625 C 193.363281 185.429688 193.121094 187.933594 192.632812 190.410156 C 192.140625 192.886719 191.414062 195.292969 190.445312 197.625 C 189.480469 199.960938 188.292969 202.175781 186.886719 204.273438 C 185.480469 206.375 183.882812 208.3125 182.09375 210.09375 L 176.300781 204.503906 C 177.003906 203.800781 177.671875 203.070312 178.304688 202.300781 C 178.9375 201.535156 179.53125 200.738281 180.082031 199.914062 C 180.636719 199.089844 181.148438 198.238281 181.621094 197.363281 C 182.089844 196.488281 182.515625 195.59375 182.898438 194.675781 C 183.277344 193.757812 183.613281 192.824219 183.902344 191.871094 C 184.191406 190.921875 184.433594 189.960938 184.628906 188.984375 C 184.824219 188.011719 184.96875 187.027344 185.066406 186.039062 C 185.164062 185.050781 185.214844 184.058594 185.214844 183.066406 C 185.214844 182.074219 185.164062 181.082031 185.066406 180.09375 C 184.96875 179.105469 184.824219 178.121094 184.628906 177.148438 C 184.433594 176.171875 184.191406 175.210938 183.902344 174.261719 C 183.613281 173.308594 183.277344 172.375 182.898438 171.457031 C 182.515625 170.539062 182.089844 169.644531 181.621094 168.769531 C 181.148438 167.894531 180.636719 167.042969 180.082031 166.21875 C 179.53125 165.394531 178.9375 164.597656 178.304688 163.832031 C 177.671875 163.0625 177.003906 162.332031 176.300781 161.628906 C 176.109375 161.441406 175.941406 161.234375 175.792969 161.011719 C 175.644531 160.789062 175.519531 160.554688 175.417969 160.308594 C 175.316406 160.0625 175.238281 159.808594 175.1875 159.546875 C 175.136719 159.285156 175.109375 159.019531 175.109375 158.753906 C 175.109375 158.484375 175.136719 158.222656 175.1875 157.960938 C 175.238281 157.699219 175.316406 157.445312 175.417969 157.195312 C 175.523438 156.949219 175.648438 156.714844 175.796875 156.492188 C 175.945312 156.273438 176.113281 156.066406 176.300781 155.878906 C 176.488281 155.6875 176.695312 155.519531 176.917969 155.371094 C 177.140625 155.222656 177.375 155.097656 177.621094 154.996094 C 177.867188 154.894531 178.121094 154.816406 178.382812 154.765625 C 178.644531 154.710938 178.910156 154.6875 179.175781 154.6875 C 179.445312 154.6875 179.707031 154.710938 179.96875 154.761719 C 180.230469 154.816406 180.488281 154.894531 180.734375 154.996094 C 180.980469 155.097656 181.214844 155.222656 181.4375 155.371094 C 181.660156 155.519531 181.863281 155.6875 182.054688 155.875 L 198.992188 172.773438 C 199.558594 173.34375 200.171875 173.851562 200.839844 174.300781 C 201.503906 174.746094 202.207031 175.125 202.949219 175.433594 C 203.6875 175.742188 204.453125 175.976562 205.238281 176.132812 C 206.027344 176.289062 206.820312 176.371094 207.625 176.371094 C 208.425781 176.371094 209.21875 176.289062 210.007812 176.132812 C 210.792969 175.976562 211.558594 175.742188 212.296875 175.433594 C 213.039062 175.125 213.742188 174.746094 214.410156 174.300781 C 215.074219 173.851562 215.691406 173.34375 216.253906 172.773438 L 218.117188 170.910156 L 184.6875 137.558594 C 184.183594 137.082031 183.640625 136.652344 183.054688 136.277344 C 182.46875 135.902344 181.855469 135.585938 181.207031 135.328125 C 180.5625 135.070312 179.898438 134.875 179.214844 134.746094 C 178.535156 134.613281 177.84375 134.546875 177.148438 134.546875 C 176.453125 134.546875 175.765625 134.613281 175.082031 134.746094 C 174.402344 134.875 173.738281 135.070312 173.09375 135.328125 C 172.445312 135.585938 171.832031 135.902344 171.246094 136.277344 C 170.660156 136.652344 170.117188 137.082031 169.613281 137.558594 L 150.605469 156.5625 L 150.605469 191.332031 C 150.605469 192.394531 150.238281 193.3125 149.511719 194.089844 L 137.964844 206.488281 L 173.785156 242.351562 L 184.199219 231.125 C 184.582031 230.714844 185.03125 230.398438 185.546875 230.171875 C 186.058594 229.945312 186.597656 229.832031 187.160156 229.832031 L 207.867188 229.832031 L 230.722656 207.015625 C 229.53125 206.367188 228.488281 205.527344 227.601562 204.503906 Z M 222.699219 199.925781 " fill-opacity="1" fill-rule="nonzero"/><path fill="#d81b1b" d="M 257.101562 179.175781 C 257.132812 178.613281 257.050781 178.066406 256.851562 177.539062 C 256.65625 177.007812 256.359375 176.542969 255.96875 176.136719 L 248.269531 168.679688 L 230.800781 186.105469 L 228.410156 188.292969 C 228.222656 188.480469 228.050781 188.6875 227.902344 188.910156 C 227.753906 189.132812 227.628906 189.367188 227.523438 189.613281 C 227.421875 189.859375 227.34375 190.113281 227.292969 190.375 C 227.238281 190.636719 227.214844 190.902344 227.214844 191.171875 C 227.214844 191.4375 227.238281 191.703125 227.292969 191.964844 C 227.34375 192.226562 227.421875 192.484375 227.523438 192.730469 C 227.628906 192.976562 227.753906 193.210938 227.902344 193.433594 C 228.050781 193.65625 228.222656 193.859375 228.410156 194.046875 L 233.195312 198.789062 C 233.382812 198.980469 233.585938 199.148438 233.808594 199.296875 C 234.03125 199.449219 234.265625 199.574219 234.511719 199.675781 C 234.757812 199.777344 235.015625 199.855469 235.277344 199.910156 C 235.539062 199.960938 235.804688 199.988281 236.070312 199.988281 C 236.339844 199.988281 236.601562 199.960938 236.867188 199.910156 C 237.128906 199.855469 237.382812 199.777344 237.628906 199.675781 C 237.875 199.574219 238.109375 199.449219 238.332031 199.296875 C 238.554688 199.148438 238.757812 198.980469 238.949219 198.789062 L 239.3125 198.425781 L 255.96875 182.054688 C 256.742188 181.25 257.121094 180.292969 257.101562 179.175781 Z M 257.101562 179.175781 " fill-opacity="1" fill-rule="nonzero"/><path fill="#d81b1b" d="M 111.761719 220.746094 L 126.289062 206.21875 L 173.226562 253.152344 L 158.699219 267.683594 Z M 111.761719 220.746094 " fill-opacity="1" fill-rule="nonzero"/></svg>