<svg xmlns="http://www.w3.org/2000/svg" xmlns:xlink="http://www.w3.org/1999/xlink" width="500" zoomAndPan="magnify" viewBox="0 0 375 374.999991" height="500" preserveAspectRatio="xMidYMid meet" version="1.0"><defs><clipPath id="f3a1950d94"><path d="M 65.109375 177 L 167 177 L 167 279 L 65.109375 279 Z M 65.109375 177 " clip-rule="nonzero"/></clipPath><clipPath id="5281d7f0ab"><path d="M 178 56.25 L 309.609375 56.25 L 309.609375 318.75 L 178 318.75 Z M 178 56.25 " clip-rule="nonzero"/></clipPath></defs><path fill="#d81b1b" d="M 117.546875 127.804688 L 116.886719 126.761719 C 117.101562 126.09375 117.992188 125.390625 117.992188 125.390625 L 118.65625 126.449219 C 117.9375 126.957031 117.546875 127.804688 117.546875 127.804688 Z M 125.742188 119.429688 L 126.707031 120.964844 L 126.003906 121.40625 L 125.039062 119.871094 Z M 133.074219 115 L 133.847656 116.226562 C 130.757812 118.046875 128.203125 119.785156 128.203125 119.785156 L 127.433594 118.5625 C 129.671875 116.910156 133.074219 115 133.074219 115 Z M 135.46875 113.289062 L 136.433594 114.824219 L 135.730469 115.269531 L 134.765625 113.734375 Z M 145.003906 109.015625 L 145.660156 110.058594 C 145.660156 110.058594 144.726562 110.046875 143.957031 110.476562 L 143.292969 109.421875 C 143.292969 109.421875 144.308594 108.921875 145.003906 109.015625 Z M 131.160156 118.386719 L 131.308594 118.292969 C 137.277344 114.523438 142.375 112.011719 145.601562 110.570312 C 146.070312 110.359375 146.566406 110.253906 147.066406 110.238281 L 145.886719 108.371094 C 145.304688 108.199219 144.660156 108.226562 144.082031 108.488281 C 140.890625 109.914062 135.851562 112.394531 129.941406 116.128906 L 129.800781 116.214844 C 123.886719 119.945312 119.480469 123.429688 116.816406 125.695312 C 116.332031 126.109375 116.027344 126.671875 115.929688 127.269531 L 117.105469 129.136719 C 117.332031 128.699219 117.644531 128.300781 118.039062 127.964844 C 120.730469 125.671875 125.1875 122.152344 131.160156 118.386719 Z M 133.464844 138.691406 L 139.175781 147.761719 C 139.707031 147.160156 140.292969 146.671875 140.292969 146.671875 L 133.628906 136.09375 C 133.628906 136.09375 132.652344 137.402344 133.464844 138.691406 Z M 210.660156 146.671875 C 210.660156 146.671875 211.246094 147.160156 211.777344 147.761719 L 217.488281 138.691406 C 218.300781 137.402344 217.324219 136.09375 217.324219 136.09375 Z M 180.046875 166.945312 L 179.890625 166.945312 C 179.9375 166.957031 179.984375 166.964844 180.03125 166.972656 Z M 205.167969 136.03125 C 204.171875 137.609375 204.601562 139.671875 206.105469 140.734375 C 206.050781 140.707031 206 140.679688 205.945312 140.644531 C 204.316406 139.617188 203.832031 137.464844 204.855469 135.835938 C 205.882812 134.207031 208.03125 133.714844 209.664062 134.742188 C 209.714844 134.777344 209.761719 134.816406 209.8125 134.851562 C 208.207031 133.949219 206.160156 134.453125 205.167969 136.03125 Z M 209.835938 134.03125 C 207.976562 132.859375 205.472656 133.492188 204.242188 135.445312 C 203.007812 137.402344 203.519531 139.9375 205.378906 141.109375 C 207.238281 142.285156 209.746094 141.652344 210.976562 139.695312 C 212.207031 137.742188 211.695312 135.207031 209.835938 134.03125 Z M 202.292969 129.105469 L 196.585938 138.171875 C 197.355469 138.394531 198.042969 138.710938 198.042969 138.710938 L 204.707031 128.132812 C 204.707031 128.132812 203.105469 127.8125 202.292969 129.105469 Z M 146.246094 128.132812 L 152.90625 138.710938 C 152.90625 138.710938 153.597656 138.394531 154.367188 138.171875 L 148.660156 129.105469 C 147.847656 127.8125 146.246094 128.132812 146.246094 128.132812 Z M 233.40625 127.804688 C 233.40625 127.804688 233.011719 126.957031 232.296875 126.449219 L 232.960938 125.390625 C 232.960938 125.390625 233.851562 126.09375 234.0625 126.761719 Z M 224.945312 121.40625 L 224.246094 120.964844 L 225.210938 119.429688 L 225.914062 119.871094 Z M 222.746094 119.785156 C 222.746094 119.785156 220.195312 118.046875 217.105469 116.226562 L 217.878906 115 C 217.878906 115 221.285156 116.910156 223.519531 118.5625 Z M 215.21875 115.269531 L 214.519531 114.824219 L 215.484375 113.289062 L 216.1875 113.734375 Z M 206.992188 110.476562 C 206.226562 110.046875 205.292969 110.058594 205.292969 110.058594 L 205.949219 109.015625 C 206.644531 108.921875 207.660156 109.421875 207.660156 109.421875 Z M 234.136719 125.695312 C 231.472656 123.429688 227.066406 119.945312 221.152344 116.214844 L 221.011719 116.128906 C 215.101562 112.394531 210.0625 109.914062 206.871094 108.488281 C 206.292969 108.226562 205.648438 108.199219 205.066406 108.371094 L 203.886719 110.238281 C 204.386719 110.253906 204.882812 110.359375 205.351562 110.570312 C 208.578125 112.011719 213.675781 114.523438 219.644531 118.292969 L 219.792969 118.386719 C 225.761719 122.152344 230.222656 125.671875 232.914062 127.964844 C 233.308594 128.300781 233.621094 128.699219 233.84375 129.136719 L 235.023438 127.269531 C 234.925781 126.671875 234.621094 126.109375 234.136719 125.695312 Z M 231.347656 131.074219 C 231.347656 131.074219 230.957031 130.222656 230.238281 129.714844 L 230.902344 128.660156 C 230.902344 128.660156 231.789062 129.363281 232.007812 130.027344 Z M 222.992188 124.507812 L 222.292969 124.0625 L 223.257812 122.527344 L 223.964844 122.972656 Z M 220.765625 122.9375 C 220.765625 122.9375 218.210938 121.199219 215.121094 119.375 L 215.894531 118.148438 C 215.894531 118.148438 219.300781 120.0625 221.535156 121.707031 Z M 213.269531 118.367188 L 212.566406 117.925781 L 213.53125 116.386719 L 214.234375 116.832031 Z M 204.933594 113.75 C 204.167969 113.320312 203.234375 113.332031 203.234375 113.332031 L 203.890625 112.285156 C 204.582031 112.195312 205.597656 112.691406 205.597656 112.691406 Z M 232.105469 128.917969 C 229.445312 126.652344 225.035156 123.171875 219.128906 119.441406 L 218.980469 119.347656 C 213.070312 115.617188 208.03125 113.136719 204.84375 111.710938 C 204.261719 111.449219 203.617188 111.421875 203.035156 111.597656 L 201.859375 113.464844 C 202.355469 113.476562 202.851562 113.582031 203.320312 113.792969 C 206.550781 115.238281 211.648438 117.75 217.613281 121.511719 L 217.765625 121.609375 C 223.730469 125.375 228.191406 128.894531 230.886719 131.1875 C 231.277344 131.523438 231.589844 131.921875 231.816406 132.359375 L 232.992188 130.492188 C 232.894531 129.894531 232.589844 129.332031 232.105469 128.917969 Z M 145.007812 140.644531 C 144.953125 140.679688 144.898438 140.707031 144.847656 140.734375 C 146.351562 139.671875 146.777344 137.609375 145.785156 136.03125 C 144.792969 134.453125 142.746094 133.949219 141.140625 134.851562 C 141.191406 134.816406 141.238281 134.777344 141.292969 134.742188 C 142.917969 133.714844 145.070312 134.207031 146.097656 135.835938 C 147.121094 137.464844 146.632812 139.617188 145.007812 140.644531 Z M 141.117188 134.03125 C 139.257812 135.207031 138.746094 137.742188 139.976562 139.695312 C 141.207031 141.652344 143.714844 142.285156 145.574219 141.109375 C 147.433594 139.9375 147.945312 137.402344 146.710938 135.445312 C 145.480469 133.492188 142.976562 132.859375 141.117188 134.03125 Z M 236.347656 123.136719 L 235.421875 124.601562 C 235.421875 124.601562 234.765625 123.609375 234.203125 123.421875 L 235.679688 121.074219 C 235.679688 121.074219 236.558594 121.792969 236.347656 123.136719 Z M 227.316406 117.640625 L 226.613281 117.199219 L 227.964844 115.054688 L 228.664062 115.5 Z M 225.011719 116.1875 C 225.011719 116.1875 222.507812 114.375 219.371094 112.628906 L 220.792969 110.367188 C 220.792969 110.367188 224.289062 112.136719 226.433594 113.929688 Z M 217.59375 111.503906 L 216.886719 111.058594 L 218.238281 108.917969 L 218.9375 109.363281 Z M 208.898438 107.449219 C 208.484375 107.023438 207.304688 106.859375 207.304688 106.859375 L 208.230469 105.390625 C 209.351562 104.621094 210.375 105.105469 210.375 105.105469 Z M 236.320312 120.351562 C 234.023438 118.394531 229.796875 115.019531 224.074219 111.417969 C 218.363281 107.800781 213.496094 105.441406 210.746094 104.207031 C 209.375 103.59375 207.765625 104.082031 206.964844 105.351562 L 205.917969 107.015625 C 206.414062 107.03125 206.910156 107.136719 207.378906 107.347656 C 210.609375 108.789062 215.707031 111.300781 221.679688 115.070312 C 221.722656 115.101562 221.773438 115.132812 221.820312 115.160156 C 227.792969 118.929688 232.25 122.449219 234.941406 124.742188 C 235.335938 125.074219 235.648438 125.480469 235.875 125.917969 L 236.917969 124.257812 C 237.71875 122.988281 237.464844 121.324219 236.320312 120.351562 Z M 119.605469 131.074219 L 118.945312 130.027344 C 119.164062 129.363281 120.050781 128.660156 120.050781 128.660156 L 120.714844 129.714844 C 119.996094 130.222656 119.605469 131.074219 119.605469 131.074219 Z M 127.691406 122.527344 L 128.660156 124.0625 L 127.957031 124.507812 L 126.992188 122.972656 Z M 135.058594 118.148438 L 135.828125 119.375 C 132.742188 121.199219 130.1875 122.9375 130.1875 122.9375 L 129.414062 121.707031 C 131.652344 120.0625 135.058594 118.148438 135.058594 118.148438 Z M 137.417969 116.386719 L 138.386719 117.925781 L 137.683594 118.367188 L 136.714844 116.832031 Z M 147.0625 112.285156 L 147.71875 113.332031 C 147.71875 113.332031 146.785156 113.320312 146.019531 113.75 L 145.351562 112.691406 C 145.351562 112.691406 146.371094 112.195312 147.0625 112.285156 Z M 133.1875 121.609375 L 133.335938 121.511719 C 139.304688 117.75 144.402344 115.238281 147.628906 113.792969 C 148.101562 113.582031 148.597656 113.476562 149.09375 113.464844 L 147.917969 111.597656 C 147.332031 111.421875 146.691406 111.449219 146.109375 111.710938 C 142.917969 113.136719 137.882812 115.617188 131.972656 119.347656 L 131.824219 119.441406 C 125.917969 123.171875 121.507812 126.652344 118.847656 128.917969 C 118.359375 129.332031 118.054688 129.894531 117.960938 130.492188 L 119.136719 132.359375 C 119.363281 131.921875 119.675781 131.523438 120.066406 131.1875 C 122.761719 128.894531 127.222656 125.375 133.1875 121.609375 Z M 154.800781 138.546875 C 149.019531 140.695312 143.714844 144.046875 139.285156 148.339844 C 139.207031 148.414062 139.132812 148.484375 139.058594 148.558594 L 132.898438 138.777344 C 132.179688 137.632812 132.519531 136.117188 133.664062 135.394531 L 145.558594 127.890625 C 146.703125 127.167969 148.214844 127.511719 148.9375 128.65625 L 155.097656 138.4375 C 155 138.472656 154.902344 138.507812 154.800781 138.546875 Z M 133.269531 152.777344 L 121.058594 133.382812 C 121.058594 133.382812 121.257812 132.488281 122.117188 131.945312 L 135.117188 152.59375 C 135.117188 152.59375 133.960938 153.871094 133.269531 152.777344 Z M 130.078125 126.3125 L 134.882812 133.945312 L 134.179688 134.386719 L 129.375 126.757812 Z M 137.457031 121.960938 L 142.125 129.375 L 136.484375 132.933594 L 131.816406 125.519531 C 134.398438 123.207031 137.457031 121.960938 137.457031 121.960938 Z M 139.804688 120.175781 L 144.609375 127.804688 L 143.90625 128.25 L 139.101562 120.617188 Z M 149.171875 115.636719 L 161.386719 135.035156 C 162.074219 136.128906 160.421875 136.625 160.421875 136.625 L 147.421875 115.976562 C 148.28125 115.433594 149.171875 115.636719 149.171875 115.636719 Z M 155.59375 139.226562 C 156.585938 138.882812 157.40625 138.636719 158.015625 138.476562 C 158.878906 138.242188 159.699219 137.882812 160.457031 137.402344 L 162.394531 136.179688 C 162.789062 135.929688 162.910156 135.40625 162.660156 135.007812 L 149.945312 114.820312 C 149.363281 114.644531 148.71875 114.671875 148.136719 114.933594 C 144.945312 116.359375 139.90625 118.84375 134.003906 122.570312 L 133.925781 122.617188 C 127.976562 126.359375 123.550781 129.863281 120.875 132.136719 C 120.390625 132.554688 120.085938 133.117188 119.988281 133.714844 L 132.707031 153.910156 C 132.957031 154.308594 133.480469 154.429688 133.878906 154.175781 L 135.8125 152.957031 C 136.570312 152.480469 137.25 151.890625 137.832031 151.210938 C 138.242188 150.734375 138.816406 150.09375 139.554688 149.347656 C 139.628906 149.269531 139.699219 149.199219 139.777344 149.121094 C 144.152344 144.742188 149.460938 141.394531 155.292969 139.328125 C 155.394531 139.292969 155.492188 139.257812 155.59375 139.226562 Z M 115.527344 124.601562 L 114.605469 123.136719 C 114.394531 121.792969 115.273438 121.074219 115.273438 121.074219 L 116.75 123.421875 C 116.1875 123.609375 115.527344 124.601562 115.527344 124.601562 Z M 122.988281 115.054688 L 124.335938 117.199219 L 123.636719 117.640625 L 122.285156 115.5 Z M 130.15625 110.367188 L 131.582031 112.628906 C 128.445312 114.375 125.9375 116.1875 125.9375 116.1875 L 124.515625 113.929688 C 126.664062 112.136719 130.15625 110.367188 130.15625 110.367188 Z M 132.714844 108.917969 L 134.0625 111.058594 L 133.359375 111.503906 L 132.011719 109.363281 Z M 142.722656 105.390625 L 143.644531 106.859375 C 143.644531 106.859375 142.46875 107.023438 142.054688 107.449219 L 140.574219 105.105469 C 140.574219 105.105469 141.601562 104.621094 142.722656 105.390625 Z M 129.132812 115.160156 C 129.179688 115.132812 129.226562 115.101562 129.273438 115.070312 C 135.246094 111.300781 140.34375 108.789062 143.570312 107.347656 C 144.042969 107.136719 144.539062 107.03125 145.035156 107.015625 L 143.988281 105.351562 C 143.1875 104.082031 141.578125 103.59375 140.207031 104.207031 C 137.457031 105.441406 132.589844 107.800781 126.875 111.417969 C 121.15625 115.019531 116.929688 118.394531 114.632812 120.351562 C 113.488281 121.324219 113.234375 122.988281 114.035156 124.257812 L 115.078125 125.917969 C 115.304688 125.480469 115.617188 125.074219 116.007812 124.742188 C 118.703125 122.449219 123.160156 118.929688 129.132812 115.160156 Z M 151.65625 150.769531 C 150.5625 151.460938 150.230469 152.914062 150.921875 154.011719 L 152.058594 155.816406 L 157.609375 155.816406 L 154.894531 151.503906 C 154.203125 150.40625 152.75 150.078125 151.65625 150.769531 Z M 203.453125 144.214844 C 203.445312 144.210938 203.4375 144.207031 203.429688 144.203125 C 201.507812 142.992188 199.480469 141.945312 197.382812 141.074219 C 196.9375 142.835938 196.230469 144.53125 195.246094 146.089844 L 189.140625 155.816406 L 192.363281 155.816406 L 195.355469 151.0625 C 196.292969 149.578125 198.257812 149.128906 199.742188 150.066406 C 201.222656 151.003906 201.667969 152.96875 200.734375 154.453125 L 199.878906 155.816406 C 199.964844 155.816406 200.011719 155.816406 200.011719 155.816406 C 201.03125 155.816406 202.046875 155.882812 203.042969 156.007812 L 205.300781 152.4375 C 206.28125 150.878906 207.503906 149.503906 208.902344 148.34375 C 207.210938 146.824219 205.390625 145.445312 203.472656 144.230469 C 203.464844 144.226562 203.460938 144.222656 203.453125 144.214844 Z M 217.683594 152.777344 C 216.992188 153.871094 215.832031 152.59375 215.832031 152.59375 L 228.835938 131.945312 C 229.695312 132.488281 229.894531 133.382812 229.894531 133.382812 Z M 211.894531 148.558594 C 211.820312 148.484375 211.746094 148.414062 211.667969 148.339844 C 207.238281 144.046875 201.933594 140.695312 196.152344 138.546875 C 196.050781 138.507812 195.953125 138.472656 195.855469 138.4375 L 202.015625 128.65625 C 202.738281 127.511719 204.246094 127.167969 205.390625 127.890625 L 217.289062 135.394531 C 218.433594 136.117188 218.773438 137.632812 218.050781 138.777344 Z M 190.53125 136.625 C 190.53125 136.625 188.878906 136.128906 189.566406 135.035156 L 201.78125 115.636719 C 201.78125 115.636719 202.671875 115.433594 203.53125 115.976562 Z M 211.148438 120.175781 L 211.851562 120.617188 L 207.046875 128.25 L 206.34375 127.804688 Z M 219.136719 125.519531 L 214.46875 132.933594 L 208.828125 129.375 L 213.496094 121.960938 C 213.496094 121.960938 216.554688 123.207031 219.136719 125.519531 Z M 221.578125 126.757812 L 216.773438 134.386719 L 216.070312 133.945312 L 220.875 126.3125 Z M 230.078125 132.136719 C 227.402344 129.863281 222.976562 126.359375 217.027344 122.617188 L 216.949219 122.570312 C 211.046875 118.84375 206.007812 116.359375 202.8125 114.933594 C 202.234375 114.671875 201.589844 114.644531 201.007812 114.820312 L 188.292969 135.007812 C 188.042969 135.40625 188.160156 135.929688 188.558594 136.179688 L 190.496094 137.402344 C 191.253906 137.882812 192.074219 138.242188 192.9375 138.476562 C 193.542969 138.636719 194.367188 138.882812 195.359375 139.226562 C 195.460938 139.257812 195.558594 139.292969 195.660156 139.328125 C 201.492188 141.394531 206.796875 144.742188 211.175781 149.121094 C 211.253906 149.199219 211.324219 149.269531 211.398438 149.347656 C 212.132812 150.09375 212.707031 150.734375 213.117188 151.210938 C 213.699219 151.890625 214.382812 152.480469 215.136719 152.957031 L 217.074219 154.175781 C 217.472656 154.429688 217.996094 154.308594 218.246094 153.910156 L 230.960938 133.714844 C 230.867188 133.117188 230.5625 132.554688 230.078125 132.136719 Z M 161.8125 155.816406 L 155.703125 146.089844 C 154.722656 144.53125 154.015625 142.835938 153.570312 141.074219 C 151.472656 141.945312 149.445312 142.992188 147.523438 144.203125 L 147.519531 144.203125 C 147.515625 144.207031 147.507812 144.210938 147.5 144.214844 C 147.496094 144.222656 147.488281 144.226562 147.480469 144.230469 C 145.558594 145.445312 143.742188 146.824219 142.050781 148.34375 C 143.449219 149.503906 144.667969 150.878906 145.652344 152.4375 L 147.910156 156.007812 C 148.90625 155.882812 149.917969 155.816406 150.941406 155.816406 L 151.074219 155.816406 L 150.21875 154.453125 C 149.285156 152.96875 149.730469 151.003906 151.210938 150.066406 C 152.695312 149.128906 154.660156 149.578125 155.597656 151.0625 L 158.589844 155.816406 Z M 199.296875 150.769531 C 198.203125 150.078125 196.75 150.40625 196.058594 151.503906 L 193.34375 155.816406 L 198.894531 155.816406 L 200.03125 154.011719 C 200.722656 152.914062 200.390625 151.460938 199.296875 150.769531 " fill-opacity="1" fill-rule="nonzero"/><g clip-path="url(#f3a1950d94)"><path fill="#d81b1b" d="M 166.167969 226.234375 C 166.117188 226.160156 166.078125 226.097656 166.027344 226.023438 L 162.1875 224.304688 C 162.136719 224.234375 162.097656 224.179688 162.046875 224.109375 C 161.855469 221.84375 161.503906 219.628906 161.003906 217.472656 C 161.03125 217.390625 161.050781 217.324219 161.078125 217.242188 L 164.203125 214.425781 C 164.269531 214.363281 164.296875 214.269531 164.273438 214.179688 C 163.9375 213.003906 163.5625 211.84375 163.144531 210.699219 C 163.113281 210.617188 163.035156 210.554688 162.941406 210.542969 L 158.761719 210.101562 C 158.675781 210.09375 158.601562 210.039062 158.566406 209.957031 C 157.691406 207.878906 156.671875 205.878906 155.515625 203.96875 C 155.472656 203.898438 155.46875 203.804688 155.511719 203.730469 L 157.609375 200.082031 C 157.65625 200.003906 157.652344 199.902344 157.601562 199.828125 C 156.917969 198.8125 156.199219 197.824219 155.445312 196.863281 C 155.359375 196.832031 155.292969 196.808594 155.207031 196.777344 L 151.09375 197.652344 C 151.011719 197.621094 150.945312 197.601562 150.863281 197.574219 C 149.398438 195.878906 147.816406 194.292969 146.125 192.828125 C 146.09375 192.746094 146.074219 192.679688 146.046875 192.597656 L 146.917969 188.480469 C 146.9375 188.390625 146.90625 188.296875 146.832031 188.242188 C 145.875 187.484375 144.886719 186.765625 143.871094 186.082031 C 143.796875 186.03125 143.695312 186.027344 143.617188 186.070312 L 139.972656 188.171875 C 139.898438 188.214844 139.804688 188.214844 139.730469 188.171875 C 137.824219 187.011719 135.828125 185.992188 133.753906 185.113281 C 133.671875 185.078125 133.617188 185.007812 133.609375 184.917969 L 133.167969 180.730469 C 133.15625 180.640625 133.097656 180.566406 133.011719 180.53125 C 131.871094 180.113281 130.710938 179.738281 129.535156 179.402344 C 129.445312 179.378906 129.351562 179.40625 129.289062 179.472656 L 126.476562 182.601562 C 126.394531 182.628906 126.328125 182.648438 126.246094 182.675781 C 124.089844 182.171875 121.878906 181.820312 119.617188 181.632812 C 119.546875 181.578125 119.492188 181.542969 119.421875 181.488281 L 117.707031 177.648438 C 117.628906 177.59375 117.570312 177.554688 117.496094 177.503906 C 116.886719 177.480469 116.273438 177.472656 115.660156 177.472656 C 115.046875 177.472656 114.4375 177.480469 113.828125 177.503906 C 113.753906 177.554688 113.691406 177.59375 113.617188 177.648438 L 111.902344 181.488281 C 111.832031 181.542969 111.773438 181.578125 111.703125 181.632812 C 109.445312 181.820312 107.234375 182.171875 105.078125 182.675781 C 104.996094 182.648438 104.929688 182.628906 104.847656 182.601562 L 102.035156 179.472656 C 101.972656 179.40625 101.875 179.378906 101.789062 179.402344 C 100.613281 179.738281 99.453125 180.113281 98.3125 180.53125 C 98.226562 180.566406 98.167969 180.640625 98.15625 180.730469 L 97.714844 184.917969 C 97.707031 185.007812 97.652344 185.078125 97.570312 185.113281 C 95.496094 185.992188 93.5 187.011719 91.589844 188.171875 C 91.515625 188.214844 91.425781 188.214844 91.347656 188.171875 L 87.707031 186.070312 C 87.625 186.027344 87.527344 186.03125 87.449219 186.082031 C 86.4375 186.765625 85.449219 187.484375 84.492188 188.242188 C 84.417969 188.296875 84.386719 188.390625 84.402344 188.480469 L 85.277344 192.597656 C 85.25 192.679688 85.226562 192.746094 85.199219 192.828125 C 83.507812 194.292969 81.925781 195.878906 80.457031 197.574219 C 80.378906 197.601562 80.3125 197.621094 80.230469 197.652344 L 76.117188 196.777344 C 76.03125 196.808594 75.964844 196.832031 75.878906 196.863281 C 75.125 197.824219 74.40625 198.8125 73.722656 199.828125 C 73.71875 199.917969 73.714844 199.992188 73.714844 200.082031 L 75.808594 203.726562 C 75.855469 203.804688 75.851562 203.898438 75.808594 203.96875 C 74.652344 205.878906 73.632812 207.878906 72.753906 209.957031 C 72.6875 210.011719 72.632812 210.050781 72.5625 210.101562 L 68.378906 210.542969 C 68.289062 210.554688 68.210938 210.617188 68.179688 210.699219 C 67.761719 211.84375 67.386719 213.003906 67.050781 214.179688 C 67.023438 214.269531 67.054688 214.363281 67.121094 214.425781 L 70.246094 217.242188 C 70.273438 217.324219 70.292969 217.390625 70.320312 217.472656 C 69.820312 219.628906 69.46875 221.84375 69.277344 224.109375 C 69.226562 224.179688 69.1875 224.234375 69.136719 224.304688 L 65.296875 226.023438 C 65.246094 226.097656 65.207031 226.160156 65.15625 226.234375 C 65.132812 226.84375 65.121094 227.457031 65.121094 228.070312 C 65.121094 228.683594 65.132812 229.296875 65.15625 229.90625 C 65.207031 229.980469 65.246094 230.042969 65.296875 230.117188 L 69.136719 231.832031 C 69.1875 231.902344 69.226562 231.960938 69.277344 232.03125 C 69.46875 234.292969 69.820312 236.507812 70.320312 238.667969 C 70.292969 238.75 70.273438 238.8125 70.246094 238.894531 L 67.121094 241.714844 C 67.054688 241.777344 67.023438 241.871094 67.050781 241.957031 C 67.386719 243.136719 67.761719 244.296875 68.179688 245.4375 C 68.25 245.492188 68.308594 245.539062 68.378906 245.59375 L 72.5625 246.035156 C 72.632812 246.089844 72.6875 246.128906 72.753906 246.179688 C 73.632812 248.257812 74.652344 250.257812 75.808594 252.167969 C 75.851562 252.242188 75.855469 252.332031 75.808594 252.410156 L 73.714844 256.054688 C 73.667969 256.136719 73.671875 256.238281 73.722656 256.3125 C 74.40625 257.328125 75.125 258.316406 75.878906 259.277344 C 75.933594 259.347656 76.027344 259.382812 76.117188 259.363281 L 80.03125 258.53125 C 79.890625 258.355469 79.804688 258.140625 79.792969 257.898438 L 79.792969 257.894531 C 79.792969 257.855469 79.792969 257.820312 79.789062 257.785156 C 79.765625 254.839844 80.636719 251.777344 82.207031 249.203125 C 78.382812 243.144531 76.152344 235.980469 76.109375 228.292969 C 75.988281 206.335938 93.953125 188.351562 115.886719 188.472656 C 137.554688 188.59375 155.09375 206.152344 155.214844 227.847656 C 155.335938 249.804688 137.371094 267.789062 115.4375 267.667969 C 112.542969 267.652344 109.722656 267.324219 107.007812 266.71875 C 106.785156 267.140625 106.546875 267.558594 106.292969 267.953125 C 106.28125 267.972656 106.273438 267.988281 106.261719 268.003906 C 106.164062 268.152344 106.078125 268.285156 105.992188 268.410156 C 105.171875 269.601562 104.199219 270.664062 103.105469 271.5625 C 102.867188 271.761719 102.605469 271.960938 102.335938 272.15625 C 100.769531 273.398438 99.234375 273.992188 98.035156 274.269531 L 98.15625 275.40625 C 98.164062 275.496094 98.226562 275.574219 98.3125 275.609375 C 99.453125 276.023438 100.609375 276.402344 101.789062 276.738281 C 101.875 276.761719 101.972656 276.734375 102.035156 276.667969 L 104.847656 273.539062 C 104.929688 273.511719 104.996094 273.488281 105.078125 273.464844 C 107.234375 273.964844 109.445312 274.316406 111.703125 274.507812 C 111.773438 274.558594 111.832031 274.597656 111.902344 274.648438 L 113.617188 278.492188 C 113.691406 278.546875 113.753906 278.582031 113.828125 278.636719 C 114.4375 278.65625 115.046875 278.667969 115.660156 278.667969 C 116.273438 278.667969 116.886719 278.65625 117.496094 278.636719 C 117.570312 278.582031 117.628906 278.546875 117.707031 278.492188 L 119.421875 274.648438 C 119.492188 274.597656 119.546875 274.558594 119.617188 274.507812 C 121.878906 274.316406 124.089844 273.964844 126.246094 273.464844 C 126.328125 273.488281 126.394531 273.511719 126.476562 273.539062 L 129.289062 276.667969 C 129.351562 276.734375 129.445312 276.761719 129.535156 276.738281 C 130.710938 276.402344 131.871094 276.023438 133.011719 275.609375 C 133.097656 275.574219 133.15625 275.496094 133.167969 275.40625 L 133.605469 271.21875 C 133.617188 271.132812 133.671875 271.058594 133.75 271.023438 C 135.828125 270.148438 137.824219 269.128906 139.730469 267.96875 C 139.804688 267.925781 139.898438 267.925781 139.972656 267.96875 L 143.617188 270.066406 C 143.695312 270.113281 143.796875 270.109375 143.871094 270.058594 C 144.886719 269.371094 145.871094 268.65625 146.832031 267.898438 C 146.90625 267.84375 146.9375 267.75 146.917969 267.660156 L 146.046875 263.542969 C 146.074219 263.457031 146.09375 263.394531 146.125 263.3125 C 147.816406 261.847656 149.398438 260.257812 150.863281 258.566406 C 150.945312 258.539062 151.011719 258.515625 151.09375 258.488281 L 155.207031 259.363281 C 155.296875 259.382812 155.390625 259.347656 155.445312 259.277344 C 156.199219 258.316406 156.917969 257.328125 157.601562 256.3125 C 157.652344 256.238281 157.65625 256.136719 157.609375 256.054688 L 155.511719 252.410156 C 155.46875 252.332031 155.472656 252.242188 155.515625 252.167969 C 156.671875 250.257812 157.691406 248.257812 158.566406 246.179688 C 158.601562 246.101562 158.675781 246.046875 158.761719 246.035156 L 162.941406 245.59375 C 163.035156 245.585938 163.113281 245.523438 163.144531 245.4375 C 163.5625 244.296875 163.9375 243.136719 164.273438 241.957031 C 164.296875 241.871094 164.269531 241.777344 164.203125 241.714844 L 161.078125 238.894531 C 161.050781 238.8125 161.03125 238.75 161.003906 238.667969 C 161.503906 236.507812 161.855469 234.292969 162.046875 232.03125 C 162.097656 231.960938 162.136719 231.902344 162.1875 231.832031 L 166.027344 230.117188 C 166.078125 230.042969 166.117188 229.980469 166.167969 229.90625 C 166.191406 229.296875 166.203125 228.683594 166.203125 228.070312 C 166.203125 227.457031 166.191406 226.84375 166.167969 226.234375 " fill-opacity="1" fill-rule="nonzero"/></g><path fill="#d81b1b" d="M 225.121094 222.382812 L 215.558594 222.382812 C 214.171875 222.382812 212.910156 221.597656 212.289062 220.359375 L 211.332031 218.445312 C 210.347656 216.472656 211.496094 214.101562 213.648438 213.652344 L 224.417969 211.402344 C 226.691406 210.925781 228.824219 212.660156 228.824219 214.984375 L 228.824219 218.671875 C 228.824219 220.71875 227.164062 222.382812 225.121094 222.382812 Z M 244.085938 189.171875 L 244.085938 185.488281 C 244.085938 183.160156 241.949219 181.425781 239.679688 181.898438 L 229.210938 184.085938 L 218.289062 167.640625 C 214.207031 161.5 207.375 157.835938 200.011719 157.835938 L 150.941406 157.835938 C 143.578125 157.835938 136.746094 161.5 132.664062 167.640625 L 124.714844 179.609375 C 124.953125 179.652344 125.191406 179.695312 125.429688 179.746094 L 127.292969 177.671875 C 127.847656 177.054688 128.640625 176.703125 129.46875 176.703125 C 129.742188 176.703125 130.007812 176.738281 130.269531 176.816406 C 131.5 177.164062 132.730469 177.566406 133.933594 178.003906 C 134.027344 178.039062 134.117188 178.078125 134.207031 178.125 L 138.5625 171.566406 C 141.324219 167.410156 145.953125 164.925781 150.941406 164.925781 L 200.011719 164.925781 C 205 164.925781 209.628906 167.410156 212.386719 171.566406 L 228.261719 195.460938 C 229.730469 197.671875 228.148438 200.628906 225.492188 200.628906 L 175.476562 200.632812 L 160.253906 200.632812 C 160.1875 200.90625 160.085938 201.171875 159.941406 201.421875 L 158.550781 203.839844 C 159.238281 205.054688 159.875 206.304688 160.457031 207.574219 L 163.226562 207.867188 C 164.328125 207.984375 165.289062 208.734375 165.667969 209.777344 C 166.109375 210.976562 166.507812 212.210938 166.859375 213.441406 C 167.164062 214.511719 166.828125 215.683594 166 216.425781 L 163.929688 218.289062 C 164.207031 219.65625 164.421875 221.039062 164.582031 222.429688 L 167.125 223.566406 C 167.582031 223.769531 167.972656 224.101562 168.253906 224.519531 L 168.394531 224.726562 C 168.679688 225.144531 168.835938 225.632812 168.855469 226.140625 C 168.878906 226.785156 168.890625 227.433594 168.890625 228.070312 C 168.890625 228.707031 168.878906 229.355469 168.855469 230 C 168.847656 230.253906 168.800781 230.503906 168.722656 230.742188 L 201.089844 230.742188 C 202.003906 230.742188 202.746094 231.488281 202.746094 232.402344 C 202.746094 233.320312 202.003906 234.0625 201.089844 234.066406 L 164.539062 234.066406 C 164.386719 235.292969 164.195312 236.515625 163.953125 237.722656 L 201.089844 237.722656 C 202.003906 237.722656 202.75 238.464844 202.75 239.382812 C 202.75 240.300781 202.003906 241.046875 201.089844 241.046875 L 166.839844 241.046875 C 167 241.578125 167.015625 242.152344 166.855469 242.699219 C 166.507812 243.929688 166.109375 245.160156 165.667969 246.363281 C 165.640625 246.4375 165.609375 246.515625 165.574219 246.589844 L 219.96875 246.589844 L 219.96875 255.589844 C 219.96875 255.605469 219.96875 255.617188 219.96875 255.632812 C 219.984375 257.40625 221.472656 258.816406 223.242188 258.816406 L 237.234375 258.816406 C 239.007812 258.816406 240.496094 257.40625 240.507812 255.632812 C 240.507812 255.617188 240.507812 255.605469 240.507812 255.589844 L 240.507812 211.53125 C 240.507812 204.914062 238.605469 198.445312 235.046875 192.882812 L 240.378906 192.882812 C 242.425781 192.882812 244.085938 191.222656 244.085938 189.171875 " fill-opacity="1" fill-rule="nonzero"/><path fill="#d81b1b" d="M 113.472656 217.824219 L 116.40625 219.917969 L 117.898438 217.820312 C 118.660156 216.746094 118.410156 215.253906 117.339844 214.492188 C 116.265625 213.726562 114.777344 213.976562 114.015625 215.054688 L 112.457031 217.242188 C 112.808594 217.402344 113.148438 217.59375 113.472656 217.824219 Z M 110.3125 239.683594 C 110.273438 239.707031 110.222656 239.730469 110.164062 239.769531 C 110.109375 239.804688 110.046875 239.847656 109.976562 239.890625 C 109.910156 239.941406 109.835938 240 109.757812 240.058594 C 109.683594 240.132812 109.597656 240.195312 109.515625 240.277344 C 109.476562 240.320312 109.433594 240.363281 109.390625 240.40625 C 109.347656 240.453125 109.308594 240.5 109.265625 240.550781 C 109.246094 240.574219 109.226562 240.597656 109.203125 240.625 C 109.183594 240.652344 109.164062 240.675781 109.144531 240.703125 C 109.101562 240.757812 109.058594 240.8125 109.019531 240.871094 C 108.855469 241.097656 108.703125 241.367188 108.558594 241.65625 C 108.414062 241.945312 108.285156 242.261719 108.171875 242.597656 C 108.113281 242.765625 108.058594 242.9375 108.007812 243.113281 C 107.957031 243.296875 107.910156 243.472656 107.863281 243.65625 C 107.769531 244.027344 107.675781 244.410156 107.582031 244.785156 C 107.480469 245.167969 107.378906 245.554688 107.25 245.929688 C 107.1875 246.117188 107.121094 246.304688 107.046875 246.484375 C 106.96875 246.667969 106.890625 246.84375 106.800781 247.015625 C 106.757812 247.101562 106.710938 247.183594 106.664062 247.265625 L 106.628906 247.332031 L 106.59375 247.390625 C 106.570312 247.429688 106.546875 247.464844 106.523438 247.503906 C 106.472656 247.582031 106.417969 247.660156 106.367188 247.734375 C 106.3125 247.808594 106.261719 247.882812 106.207031 247.949219 C 105.988281 248.226562 105.757812 248.464844 105.53125 248.667969 C 105.304688 248.867188 105.078125 249.035156 104.871094 249.167969 C 104.667969 249.300781 104.480469 249.402344 104.324219 249.480469 C 104.246094 249.519531 104.171875 249.550781 104.113281 249.574219 C 104.050781 249.601562 103.996094 249.621094 103.953125 249.640625 C 103.863281 249.671875 103.820312 249.6875 103.820312 249.6875 C 103.820312 249.6875 103.859375 249.660156 103.933594 249.605469 C 104.007812 249.550781 104.117188 249.46875 104.25 249.363281 C 104.386719 249.257812 104.539062 249.117188 104.710938 248.960938 C 104.882812 248.800781 105.0625 248.609375 105.246094 248.390625 C 105.429688 248.171875 105.613281 247.925781 105.785156 247.652344 C 105.828125 247.582031 105.871094 247.511719 105.914062 247.441406 C 105.953125 247.371094 105.992188 247.300781 106.03125 247.226562 C 106.050781 247.1875 106.070312 247.144531 106.089844 247.105469 L 106.121094 247.046875 L 106.148438 246.992188 C 106.183594 246.914062 106.222656 246.839844 106.253906 246.757812 C 106.324219 246.59375 106.386719 246.425781 106.449219 246.257812 C 106.507812 246.082031 106.566406 245.90625 106.621094 245.730469 C 106.726562 245.367188 106.824219 244.996094 106.921875 244.617188 C 107.019531 244.238281 107.113281 243.855469 107.226562 243.480469 C 107.277344 243.292969 107.339844 243.097656 107.398438 242.925781 C 107.464844 242.738281 107.53125 242.554688 107.605469 242.382812 C 107.753906 242.027344 107.925781 241.703125 108.113281 241.402344 C 108.300781 241.105469 108.503906 240.839844 108.714844 240.617188 C 108.929688 240.398438 109.144531 240.214844 109.351562 240.078125 C 109.402344 240.039062 109.453125 240.007812 109.503906 239.980469 C 109.554688 239.953125 109.601562 239.921875 109.648438 239.894531 C 109.746094 239.851562 109.832031 239.808594 109.914062 239.769531 C 109.996094 239.742188 110.070312 239.714844 110.132812 239.691406 C 110.199219 239.667969 110.253906 239.660156 110.300781 239.648438 C 110.390625 239.625 110.4375 239.617188 110.4375 239.617188 C 110.4375 239.617188 110.394531 239.640625 110.3125 239.683594 Z M 123.515625 234.578125 C 122.558594 233.894531 122.222656 232.664062 122.632812 231.617188 C 121.628906 232.265625 120.289062 232.277344 119.257812 231.542969 C 118.054688 230.6875 117.671875 229.097656 118.285156 227.804688 C 118.410156 227.542969 118.332031 227.230469 118.09375 227.058594 C 118.027344 227.085938 117.957031 227.109375 117.882812 227.132812 C 116.53125 227.542969 115.054688 227.1875 113.492188 226.074219 C 113.382812 225.996094 113.273438 225.914062 113.164062 225.828125 C 112.941406 225.65625 112.726562 225.496094 112.523438 225.351562 C 110.71875 224.066406 110.238281 224.269531 110.234375 224.269531 C 110.152344 224.34375 110.140625 224.769531 110.214844 225.082031 C 110.347656 225.382812 110.980469 226.835938 111.46875 228.613281 C 111.582031 229.03125 111.679688 229.433594 111.761719 229.820312 C 112.246094 232.355469 111.65625 233.933594 110.882812 234.902344 C 110.898438 234.75 110.9375 234.605469 111.007812 234.464844 C 112.484375 231.53125 109.625 225.285156 109.625 225.285156 C 109.625 225.285156 108.640625 221.539062 113.542969 225.339844 C 118.445312 229.136719 120.539062 223.625 120.539062 223.625 L 113.113281 218.332031 C 111.128906 216.914062 108.433594 217.039062 106.582031 218.628906 C 105.164062 219.851562 103.714844 221.226562 102.488281 222.652344 C 101.683594 223.59375 101.28125 224.808594 101.355469 226.046875 C 101.46875 227.90625 101.71875 230.867188 102.253906 233.507812 C 102.296875 233.6875 102.351562 233.914062 102.421875 234.171875 C 102.464844 234.339844 102.515625 234.519531 102.574219 234.710938 C 102.601562 234.804688 102.632812 234.902344 102.660156 235.003906 C 102.695312 235.105469 102.726562 235.203125 102.761719 235.308594 C 102.777344 235.359375 102.792969 235.410156 102.8125 235.464844 C 102.828125 235.515625 102.847656 235.570312 102.867188 235.621094 C 102.902344 235.726562 102.941406 235.832031 102.980469 235.941406 C 103.058594 236.152344 103.144531 236.371094 103.230469 236.585938 C 103.273438 236.691406 103.320312 236.800781 103.367188 236.90625 C 103.414062 237.011719 103.457031 237.117188 103.507812 237.222656 C 103.558594 237.324219 103.605469 237.425781 103.652344 237.527344 C 103.679688 237.578125 103.703125 237.628906 103.726562 237.679688 C 103.753906 237.726562 103.777344 237.777344 103.804688 237.824219 C 103.855469 237.917969 103.90625 238.015625 103.953125 238.105469 C 103.980469 238.152344 104.003906 238.199219 104.027344 238.242188 C 104.054688 238.289062 104.082031 238.332031 104.105469 238.375 C 104.160156 238.460938 104.207031 238.542969 104.257812 238.625 C 104.304688 238.707031 104.351562 238.785156 104.402344 238.855469 C 104.503906 239 104.59375 239.132812 104.675781 239.25 C 104.710938 239.308594 104.757812 239.359375 104.792969 239.410156 C 104.832031 239.457031 104.867188 239.5 104.902344 239.542969 C 105.027344 239.703125 105.101562 239.792969 105.101562 239.792969 C 105.101562 239.792969 105.019531 239.710938 104.871094 239.566406 C 104.835938 239.53125 104.792969 239.492188 104.75 239.445312 C 104.707031 239.402344 104.65625 239.355469 104.609375 239.300781 C 104.515625 239.195312 104.410156 239.070312 104.292969 238.9375 C 104.230469 238.875 104.175781 238.800781 104.117188 238.722656 C 104.058594 238.648438 103.996094 238.570312 103.933594 238.488281 C 103.902344 238.449219 103.871094 238.410156 103.839844 238.367188 C 103.808594 238.328125 103.78125 238.28125 103.75 238.238281 C 103.6875 238.152344 103.625 238.0625 103.5625 237.96875 C 103.527344 237.925781 103.496094 237.875 103.464844 237.832031 C 103.433594 237.785156 103.402344 237.738281 103.371094 237.6875 C 103.3125 237.589844 103.25 237.492188 103.1875 237.394531 C 103.121094 237.292969 103.066406 237.191406 103.003906 237.089844 C 102.945312 236.988281 102.886719 236.882812 102.828125 236.78125 C 102.75 236.636719 102.671875 236.492188 102.59375 236.347656 L 102.546875 236.402344 C 99.378906 240.265625 95.042969 242.015625 90.523438 243.746094 C 87.851562 244.769531 85.472656 246.464844 83.785156 248.792969 C 81.941406 251.335938 80.855469 254.621094 80.878906 257.777344 C 80.878906 257.800781 80.882812 257.828125 80.882812 257.851562 C 80.878906 257.824219 80.882812 257.792969 80.882812 257.765625 C 80.996094 257.472656 83.671875 250.566406 91.617188 247.804688 C 91.742188 247.765625 91.867188 247.722656 91.992188 247.6875 C 92.425781 247.554688 92.890625 247.410156 93.371094 247.285156 C 94.472656 247.003906 95.644531 246.855469 96.648438 247.332031 C 98.074219 248.015625 97.820312 250.011719 97.371094 251.230469 C 95.21875 257.042969 86.582031 251.574219 81.375 262.773438 C 76.46875 273.320312 83.804688 277.746094 75.667969 282.976562 C 75.183594 283.285156 74.671875 283.542969 74.128906 283.722656 C 73.746094 283.851562 73.332031 283.949219 72.886719 284.007812 C 72.886719 284.007812 73.84375 284.066406 75.203125 283.679688 C 75.21875 283.679688 75.234375 283.675781 75.253906 283.671875 C 75.367188 283.636719 75.492188 283.59375 75.617188 283.550781 C 76.492188 283.261719 77.5 282.785156 78.511719 282.015625 C 78.519531 282.007812 78.527344 282 78.539062 281.992188 C 78.542969 281.988281 78.546875 281.988281 78.550781 281.984375 C 80.539062 280.472656 82.53125 277.828125 83.027344 273.234375 C 83.3125 270.585938 83.980469 266.9375 86.472656 265.25 C 88.230469 264.058594 91.429688 263.992188 92.21875 266.078125 C 93.238281 268.789062 89.394531 273.640625 86.421875 274.175781 C 86.410156 274.175781 86.402344 274.179688 86.390625 274.179688 L 85.691406 274.21875 C 85.691406 274.21875 89.941406 275.824219 93.539062 272.265625 C 94.519531 271.378906 95.371094 270.320312 96.105469 269.234375 C 97.140625 267.699219 97.964844 266.035156 98.6875 264.351562 C 99.332031 262.839844 99.652344 260.402344 101.207031 259.535156 C 103.59375 258.203125 104.070312 261.378906 104.097656 262.957031 C 104.171875 267.183594 101.058594 270.378906 98.925781 272.066406 C 98.050781 272.761719 97.011719 273.226562 95.90625 273.398438 C 95.894531 273.402344 95.882812 273.40625 95.875 273.40625 C 95.875 273.40625 98.699219 273.648438 101.660156 271.300781 L 101.65625 271.300781 C 101.914062 271.113281 102.167969 270.921875 102.414062 270.71875 C 103.4375 269.878906 104.339844 268.886719 105.09375 267.789062 C 105.183594 267.664062 105.269531 267.53125 105.355469 267.398438 C 105.359375 267.390625 105.363281 267.386719 105.367188 267.382812 C 106.175781 266.113281 106.792969 264.738281 107.238281 263.320312 C 107.890625 261.25 108.1875 259.113281 108.265625 257 C 108.265625 256.992188 108.265625 256.984375 108.269531 256.972656 C 108.464844 251.730469 112.988281 244.445312 118.324219 243.171875 C 119.769531 242.824219 121.078125 241.957031 121.972656 240.703125 L 126.246094 234.691406 C 125.417969 235.179688 124.347656 235.167969 123.515625 234.578125 Z M 94.628906 214.082031 C 94.738281 214.097656 94.898438 214.140625 95.101562 214.164062 C 95.203125 214.179688 95.316406 214.191406 95.441406 214.207031 C 95.5625 214.21875 95.699219 214.226562 95.839844 214.234375 C 95.984375 214.246094 96.136719 214.242188 96.296875 214.238281 C 96.457031 214.242188 96.625 214.226562 96.796875 214.214844 C 97.148438 214.191406 97.523438 214.121094 97.910156 214.039062 C 98.105469 213.992188 98.300781 213.929688 98.5 213.871094 C 98.695312 213.792969 98.902344 213.734375 99.097656 213.640625 C 99.5 213.480469 99.886719 213.242188 100.269531 213.003906 C 100.363281 212.933594 100.453125 212.867188 100.546875 212.804688 L 100.6875 212.699219 L 100.816406 212.589844 L 101.082031 212.367188 L 101.328125 212.121094 C 101.5 211.96875 101.640625 211.78125 101.796875 211.613281 C 101.933594 211.4375 102.089844 211.242188 102.207031 211.058594 C 102.457031 210.683594 102.683594 210.292969 102.847656 209.894531 C 103.015625 209.492188 103.15625 209.09375 103.246094 208.703125 C 103.339844 208.316406 103.398438 207.941406 103.425781 207.589844 C 103.429688 207.503906 103.4375 207.417969 103.441406 207.332031 C 103.445312 207.25 103.445312 207.167969 103.449219 207.089844 C 103.457031 206.929688 103.449219 206.777344 103.445312 206.632812 C 103.445312 206.488281 103.425781 206.355469 103.417969 206.234375 C 103.40625 206.109375 103.390625 205.996094 103.375 205.894531 C 103.347656 205.6875 103.316406 205.527344 103.292969 205.417969 C 103.273438 205.308594 103.261719 205.25 103.261719 205.25 C 103.261719 205.25 103.277344 205.308594 103.3125 205.414062 C 103.347656 205.519531 103.402344 205.675781 103.445312 205.878906 C 103.46875 205.980469 103.496094 206.09375 103.515625 206.21875 C 103.539062 206.339844 103.566406 206.476562 103.582031 206.621094 C 103.597656 206.765625 103.621094 206.921875 103.625 207.082031 C 103.628906 207.164062 103.632812 207.25 103.636719 207.335938 C 103.636719 207.421875 103.636719 207.511719 103.636719 207.601562 C 103.636719 207.78125 103.617188 207.96875 103.605469 208.164062 C 103.578125 208.359375 103.558594 208.558594 103.511719 208.761719 C 103.441406 209.171875 103.316406 209.59375 103.148438 210.015625 C 102.980469 210.441406 102.765625 210.859375 102.5 211.261719 C 102.367188 211.472656 102.226562 211.644531 102.078125 211.84375 C 101.914062 212.023438 101.765625 212.21875 101.585938 212.382812 L 101.324219 212.636719 L 101.046875 212.867188 L 100.90625 212.984375 L 100.757812 213.089844 C 100.660156 213.160156 100.5625 213.230469 100.464844 213.296875 C 100.261719 213.417969 100.066406 213.554688 99.851562 213.652344 C 99.746094 213.707031 99.640625 213.753906 99.539062 213.808594 C 99.433594 213.851562 99.328125 213.894531 99.222656 213.9375 C 99.015625 214.03125 98.796875 214.089844 98.589844 214.15625 C 98.378906 214.214844 98.171875 214.265625 97.96875 214.304688 C 97.558594 214.378906 97.167969 214.421875 96.808594 214.421875 C 96.628906 214.425781 96.457031 214.429688 96.292969 214.414062 C 96.128906 214.402344 95.972656 214.394531 95.828125 214.371094 C 95.683594 214.347656 95.550781 214.332031 95.425781 214.308594 C 95.300781 214.28125 95.1875 214.253906 95.085938 214.234375 C 94.984375 214.214844 94.894531 214.1875 94.820312 214.164062 C 94.742188 214.136719 94.675781 214.117188 94.625 214.101562 C 94.519531 214.066406 94.460938 214.050781 94.460938 214.050781 C 94.460938 214.050781 94.519531 214.058594 94.628906 214.082031 Z M 95.78125 215.101562 C 98.394531 215.191406 100.914062 216.085938 102.941406 217.734375 L 104.910156 219.339844 C 105.324219 218.957031 105.753906 218.574219 106.207031 218.1875 C 106.320312 218.089844 106.433594 217.996094 106.554688 217.910156 L 105.539062 217.085938 C 104.761719 216.453125 104.640625 215.304688 105.273438 214.527344 C 105.90625 213.746094 107.054688 213.628906 107.832031 214.261719 L 111.011719 216.847656 C 111.316406 216.898438 111.613281 216.972656 111.902344 217.066406 C 111.917969 217.011719 111.945312 216.957031 111.984375 216.90625 L 112.898438 215.617188 L 107.421875 211.164062 C 105.648438 209.722656 104.414062 207.714844 103.976562 205.46875 C 103.796875 204.523438 103.4375 203.589844 102.894531 202.722656 C 101.640625 200.714844 99.65625 199.449219 97.5 199.050781 C 97.101562 198.976562 96.804688 199.417969 97.019531 199.761719 L 98.597656 202.292969 C 99.957031 204.46875 99.371094 207.367188 97.21875 208.765625 C 95.023438 210.191406 92.09375 209.535156 90.710938 207.320312 L 89.089844 204.726562 C 88.875 204.378906 88.347656 204.457031 88.238281 204.851562 C 87.664062 206.917969 87.910156 209.203125 89.09375 211.179688 C 90.554688 213.621094 93.125 215.011719 95.78125 215.101562 Z M 140.902344 235.285156 C 140.792969 235.265625 140.632812 235.226562 140.425781 235.203125 C 140.324219 235.1875 140.210938 235.175781 140.089844 235.160156 C 139.964844 235.144531 139.832031 235.140625 139.6875 235.132812 C 139.546875 235.117188 139.394531 235.125 139.234375 235.128906 C 139.074219 235.125 138.90625 235.140625 138.730469 235.152344 C 138.382812 235.175781 138.007812 235.242188 137.621094 235.328125 C 137.425781 235.375 137.230469 235.4375 137.027344 235.496094 C 136.832031 235.574219 136.628906 235.632812 136.433594 235.726562 C 136.027344 235.886719 135.644531 236.125 135.257812 236.363281 C 135.167969 236.429688 135.074219 236.496094 134.984375 236.5625 L 134.84375 236.667969 L 134.710938 236.777344 L 134.449219 237 L 134.203125 237.242188 C 134.03125 237.398438 133.890625 237.582031 133.734375 237.753906 C 133.597656 237.929688 133.441406 238.121094 133.324219 238.304688 C 133.074219 238.679688 132.847656 239.074219 132.679688 239.472656 C 132.511719 239.875 132.375 240.269531 132.285156 240.660156 C 132.191406 241.050781 132.132812 241.425781 132.105469 241.777344 C 132.097656 241.863281 132.09375 241.949219 132.085938 242.035156 C 132.085938 242.117188 132.082031 242.199219 132.082031 242.277344 C 132.074219 242.4375 132.082031 242.589844 132.085938 242.734375 C 132.085938 242.878906 132.101562 243.011719 132.113281 243.132812 C 132.121094 243.257812 132.140625 243.371094 132.15625 243.472656 C 132.183594 243.679688 132.214844 243.839844 132.238281 243.945312 C 132.257812 244.054688 132.269531 244.117188 132.269531 244.117188 C 132.269531 244.117188 132.25 244.058594 132.21875 243.953125 C 132.183594 243.847656 132.128906 243.691406 132.085938 243.488281 C 132.058594 243.386719 132.03125 243.273438 132.011719 243.148438 C 131.992188 243.023438 131.960938 242.890625 131.949219 242.746094 C 131.929688 242.601562 131.910156 242.445312 131.90625 242.28125 C 131.898438 242.203125 131.894531 242.117188 131.890625 242.027344 C 131.894531 241.945312 131.894531 241.855469 131.894531 241.765625 C 131.890625 241.582031 131.914062 241.394531 131.925781 241.203125 C 131.953125 241.007812 131.96875 240.804688 132.015625 240.605469 C 132.089844 240.195312 132.214844 239.769531 132.382812 239.347656 C 132.550781 238.925781 132.761719 238.507812 133.03125 238.105469 C 133.164062 237.894531 133.300781 237.722656 133.453125 237.523438 C 133.617188 237.34375 133.761719 237.148438 133.941406 236.984375 L 134.203125 236.730469 L 134.484375 236.496094 L 134.621094 236.382812 L 134.769531 236.277344 C 134.867188 236.207031 134.964844 236.136719 135.0625 236.070312 C 135.269531 235.945312 135.464844 235.8125 135.679688 235.714844 C 135.785156 235.660156 135.886719 235.609375 135.992188 235.558594 C 136.097656 235.515625 136.203125 235.472656 136.308594 235.429688 C 136.515625 235.332031 136.734375 235.277344 136.941406 235.207031 C 137.152344 235.152344 137.359375 235.101562 137.5625 235.0625 C 137.96875 234.988281 138.359375 234.945312 138.722656 234.945312 C 138.902344 234.941406 139.074219 234.9375 139.238281 234.953125 C 139.402344 234.964844 139.554688 234.972656 139.699219 234.996094 C 139.84375 235.019531 139.980469 235.035156 140.105469 235.058594 C 140.226562 235.082031 140.339844 235.109375 140.441406 235.132812 C 140.546875 235.152344 140.632812 235.179688 140.710938 235.203125 C 140.789062 235.230469 140.851562 235.25 140.90625 235.265625 C 141.011719 235.300781 141.070312 235.316406 141.070312 235.316406 C 141.070312 235.316406 141.011719 235.304688 140.902344 235.285156 Z M 146.433594 238.1875 C 144.972656 235.746094 142.40625 234.355469 139.75 234.265625 C 137.136719 234.175781 134.617188 233.28125 132.589844 231.632812 L 130.085938 229.597656 L 128.84375 231.347656 L 129.992188 232.28125 C 130.769531 232.914062 130.886719 234.0625 130.257812 234.839844 C 129.625 235.621094 128.476562 235.738281 127.699219 235.105469 L 127.046875 234.574219 L 125.796875 236.324219 L 128.109375 238.203125 C 129.878906 239.640625 131.117188 241.652344 131.550781 243.894531 C 131.734375 244.84375 132.09375 245.777344 132.632812 246.644531 C 133.886719 248.652344 135.875 249.917969 138.027344 250.316406 C 138.429688 250.390625 138.726562 249.949219 138.511719 249.601562 L 136.929688 247.074219 C 135.570312 244.894531 136.15625 242 138.308594 240.601562 C 140.507812 239.175781 143.4375 239.832031 144.820312 242.046875 L 146.4375 244.640625 C 146.65625 244.988281 147.183594 244.910156 147.292969 244.515625 C 147.863281 242.449219 147.621094 240.160156 146.433594 238.1875 Z M 123.429688 231.4375 C 122.824219 232.285156 123.023438 233.464844 123.875 234.070312 C 124.722656 234.675781 125.902344 234.480469 126.507812 233.628906 L 130.640625 227.816406 C 131.246094 226.964844 131.046875 225.78125 130.195312 225.179688 C 129.347656 224.574219 128.167969 224.773438 127.5625 225.621094 Z M 121.066406 223.242188 L 123.15625 220.300781 C 123.921875 219.226562 123.671875 217.734375 122.597656 216.972656 C 121.527344 216.207031 120.039062 216.457031 119.273438 217.53125 L 117.183594 220.46875 Z M 123.335938 221.695312 L 119.058594 227.707031 C 118.292969 228.785156 118.542969 230.273438 119.617188 231.035156 C 120.6875 231.800781 122.175781 231.550781 122.941406 230.476562 L 127.21875 224.464844 C 127.980469 223.386719 127.730469 221.898438 126.65625 221.136719 C 125.585938 220.371094 124.097656 220.621094 123.335938 221.695312 " fill-opacity="1" fill-rule="nonzero"/><g clip-path="url(#5281d7f0ab)"><path fill="#d81b1b" d="M 178.546875 292.328125 C 236.285156 292.328125 283.257812 245.304688 283.257812 187.5 C 283.257812 129.695312 236.285156 82.671875 178.546875 82.671875 L 178.546875 56.277344 C 180.140625 56.277344 181.726562 56.304688 183.304688 56.363281 C 183.5 56.492188 183.652344 56.597656 183.847656 56.730469 L 188.296875 66.699219 C 188.484375 66.828125 188.628906 66.933594 188.8125 67.0625 C 194.667969 67.554688 200.40625 68.46875 206 69.769531 C 206.214844 69.703125 206.378906 69.648438 206.59375 69.582031 L 213.894531 61.464844 C 214.050781 61.289062 214.296875 61.214844 214.527344 61.28125 C 217.578125 62.152344 220.585938 63.132812 223.542969 64.210938 C 223.765625 64.292969 223.921875 64.496094 223.949219 64.734375 L 225.09375 75.59375 C 225.113281 75.816406 225.257812 76.011719 225.464844 76.097656 C 230.84375 78.371094 236.027344 81.023438 240.972656 84.019531 C 241.167969 84.136719 241.40625 84.140625 241.605469 84.027344 L 251.050781 78.585938 C 251.257812 78.464844 251.511719 78.476562 251.710938 78.609375 C 254.339844 80.378906 256.902344 82.246094 259.386719 84.199219 C 259.574219 84.347656 259.664062 84.589844 259.613281 84.824219 L 257.347656 95.503906 C 257.421875 95.714844 257.476562 95.886719 257.546875 96.097656 C 261.933594 99.902344 266.046875 104.015625 269.84375 108.40625 C 270.058594 108.480469 270.226562 108.539062 270.441406 108.609375 L 281.105469 106.339844 C 281.332031 106.421875 281.507812 106.484375 281.730469 106.566406 C 283.679688 109.058594 285.542969 111.621094 287.316406 114.253906 C 287.324219 114.492188 287.332031 114.675781 287.339844 114.917969 L 281.902344 124.375 C 281.792969 124.570312 281.792969 124.808594 281.910156 125 C 284.90625 129.957031 287.550781 135.144531 289.820312 140.527344 C 290.003906 140.664062 290.144531 140.769531 290.328125 140.902344 L 301.171875 142.046875 C 301.410156 142.074219 301.613281 142.230469 301.695312 142.453125 C 302.773438 145.414062 303.75 148.421875 304.621094 151.476562 C 304.683594 151.707031 304.613281 151.953125 304.4375 152.113281 L 296.328125 159.417969 C 296.261719 159.632812 296.210938 159.804688 296.140625 160.019531 C 297.441406 165.613281 298.351562 171.359375 298.847656 177.222656 C 298.976562 177.410156 299.078125 177.554688 299.207031 177.738281 L 309.167969 182.191406 C 309.300781 182.390625 309.40625 182.542969 309.539062 182.738281 C 309.59375 184.320312 309.621094 185.90625 309.621094 187.5 C 309.621094 189.09375 309.59375 190.679688 309.539062 192.261719 C 309.40625 192.457031 309.300781 192.609375 309.167969 192.808594 L 299.207031 197.261719 C 299.078125 197.445312 298.976562 197.589844 298.847656 197.777344 C 298.351562 203.636719 297.441406 209.382812 296.140625 214.980469 C 296.210938 215.195312 296.261719 215.367188 296.328125 215.582031 L 304.4375 222.886719 C 304.613281 223.046875 304.683594 223.292969 304.621094 223.523438 C 303.75 226.578125 302.773438 229.585938 301.695312 232.542969 C 301.507812 232.691406 301.359375 232.804688 301.171875 232.953125 L 290.328125 234.097656 C 290.144531 234.230469 290.003906 234.335938 289.820312 234.472656 C 287.550781 239.855469 284.90625 245.042969 281.910156 250 C 281.792969 250.191406 281.792969 250.429688 281.902344 250.625 L 287.339844 260.082031 C 287.460938 260.292969 287.449219 260.550781 287.316406 260.746094 C 285.542969 263.375 283.679688 265.941406 281.730469 268.433594 C 281.582031 268.621094 281.339844 268.707031 281.105469 268.660156 L 270.441406 266.390625 C 270.226562 266.460938 270.058594 266.519531 269.847656 266.59375 C 266.046875 270.984375 261.933594 275.097656 257.550781 278.902344 C 257.476562 279.113281 257.421875 279.285156 257.347656 279.496094 L 259.617188 290.175781 C 259.664062 290.410156 259.574219 290.652344 259.386719 290.796875 C 256.902344 292.753906 254.339844 294.621094 251.710938 296.390625 C 251.515625 296.523438 251.257812 296.535156 251.050781 296.414062 L 241.605469 290.972656 C 241.410156 290.859375 241.167969 290.863281 240.972656 290.980469 C 236.027344 293.976562 230.84375 296.628906 225.464844 298.902344 C 225.257812 298.988281 225.113281 299.183594 225.09375 299.40625 L 223.949219 310.265625 C 223.921875 310.503906 223.765625 310.707031 223.542969 310.789062 C 220.585938 311.867188 217.578125 312.847656 214.527344 313.714844 C 214.300781 313.785156 214.054688 313.710938 213.894531 313.535156 L 206.597656 305.417969 C 206.378906 305.351562 206.214844 305.296875 206 305.226562 C 200.40625 306.53125 194.667969 307.445312 188.8125 307.9375 C 188.628906 308.066406 188.484375 308.167969 188.296875 308.300781 L 183.847656 318.269531 C 183.652344 318.402344 183.5 318.507812 183.304688 318.636719 C 181.726562 318.695312 180.140625 318.722656 178.546875 318.722656 L 178.546875 292.328125 " fill-opacity="1" fill-rule="nonzero"/></g></svg>