<svg xmlns="http://www.w3.org/2000/svg" xmlns:xlink="http://www.w3.org/1999/xlink" width="500" zoomAndPan="magnify" viewBox="0 0 375 374.999991" height="500" preserveAspectRatio="xMidYMid meet" version="1.0"><defs><clipPath id="c9b4592170"><path d="M 85.042969 196 L 289.792969 196 L 289.792969 302.734375 L 85.042969 302.734375 Z M 85.042969 196 " clip-rule="nonzero"/></clipPath></defs><g clip-path="url(#c9b4592170)"><path fill="#d81b1b" d="M 285.90625 253.109375 L 282.304688 253.109375 C 282.089844 252.550781 281.859375 251.996094 281.613281 251.445312 L 284.164062 248.894531 C 284.875 248.179688 285.273438 247.214844 285.273438 246.210938 C 285.273438 245.203125 284.875 244.238281 284.164062 243.527344 L 273.035156 232.382812 C 271.558594 230.898438 269.160156 230.898438 267.679688 232.382812 L 265.132812 234.933594 C 264.582031 234.6875 264.027344 234.457031 263.46875 234.242188 L 263.46875 230.632812 C 263.46875 228.539062 261.773438 226.839844 259.679688 226.839844 L 243.945312 226.839844 C 241.855469 226.839844 240.160156 228.539062 240.160156 230.632812 L 240.160156 234.242188 C 239.609375 234.453125 239.0625 234.679688 238.523438 234.921875 C 238.496094 234.90625 238.464844 234.886719 238.433594 234.871094 L 235.949219 232.382812 C 235.238281 231.667969 234.273438 231.269531 233.269531 231.269531 C 232.265625 231.269531 231.300781 231.667969 230.589844 232.378906 L 229.8125 233.160156 C 229.394531 232.082031 228.9375 231.023438 228.441406 229.976562 L 232.953125 225.457031 C 234.429688 223.976562 234.429688 221.574219 232.953125 220.089844 L 216.878906 203.992188 C 216.167969 203.28125 215.207031 202.878906 214.203125 202.878906 C 213.195312 202.878906 212.234375 203.28125 211.523438 203.992188 L 207.011719 208.511719 C 205.5625 207.816406 204.078125 207.199219 202.566406 206.664062 L 202.566406 200.277344 C 202.566406 198.179688 200.871094 196.480469 198.78125 196.480469 L 176.050781 196.480469 C 173.957031 196.480469 172.261719 198.179688 172.261719 200.277344 L 172.261719 206.664062 C 170.753906 207.199219 169.269531 207.816406 167.820312 208.511719 L 163.308594 203.992188 C 162.597656 203.28125 161.632812 202.878906 160.628906 202.878906 C 159.625 202.878906 158.660156 203.28125 157.949219 203.992188 L 141.878906 220.089844 C 140.398438 221.574219 140.398438 223.976562 141.878906 225.457031 L 146.390625 229.976562 C 145.890625 231.023438 145.433594 232.082031 145.019531 233.160156 L 144.238281 232.378906 C 143.53125 231.667969 142.566406 231.269531 141.5625 231.269531 C 140.554688 231.269531 139.59375 231.667969 138.882812 232.382812 L 136.398438 234.871094 C 136.367188 234.886719 136.335938 234.90625 136.304688 234.921875 C 135.769531 234.679688 135.222656 234.453125 134.671875 234.242188 L 134.671875 230.632812 C 134.671875 228.539062 132.976562 226.839844 130.882812 226.839844 L 115.148438 226.839844 C 113.058594 226.839844 111.363281 228.539062 111.363281 230.632812 L 111.363281 234.242188 C 110.800781 234.457031 110.246094 234.6875 109.699219 234.933594 L 107.152344 232.378906 C 105.671875 230.898438 103.273438 230.898438 101.792969 232.378906 L 90.667969 243.527344 C 89.960938 244.238281 89.558594 245.203125 89.558594 246.210938 C 89.558594 247.21875 89.960938 248.179688 90.667969 248.894531 L 93.21875 251.445312 C 92.972656 251.996094 92.742188 252.550781 92.527344 253.109375 L 88.925781 253.109375 C 86.832031 253.109375 85.136719 254.808594 85.136719 256.90625 L 85.136719 272.667969 C 85.136719 274.765625 86.832031 276.464844 88.925781 276.464844 L 92.527344 276.464844 C 92.742188 277.023438 92.972656 277.578125 93.21875 278.128906 L 90.667969 280.679688 C 89.960938 281.394531 89.558594 282.359375 89.558594 283.363281 C 89.558594 284.371094 89.960938 285.335938 90.667969 286.046875 L 101.796875 297.195312 C 103.273438 298.675781 105.671875 298.675781 107.152344 297.195312 L 109.699219 294.640625 C 110.25 294.886719 110.804688 295.117188 111.363281 295.332031 L 111.363281 298.941406 C 111.363281 301.035156 113.058594 302.734375 115.152344 302.734375 L 130.886719 302.734375 C 132.976562 302.734375 134.675781 301.035156 134.675781 298.941406 L 134.675781 295.332031 C 135.234375 295.117188 135.789062 294.886719 136.335938 294.640625 L 138.882812 297.195312 C 139.59375 297.90625 140.558594 298.304688 141.5625 298.304688 C 142.566406 298.304688 143.53125 297.90625 144.242188 297.195312 L 152.078125 289.34375 L 157.953125 295.226562 C 158.660156 295.9375 159.625 296.335938 160.628906 296.335938 C 161.632812 296.335938 162.597656 295.9375 163.308594 295.222656 L 167.820312 290.703125 C 169.269531 291.398438 170.753906 292.015625 172.261719 292.550781 L 172.261719 298.941406 C 172.261719 301.035156 173.960938 302.734375 176.050781 302.734375 L 198.78125 302.734375 C 200.871094 302.734375 202.566406 301.035156 202.566406 298.941406 L 202.566406 292.550781 C 204.078125 292.015625 205.5625 291.398438 207.011719 290.703125 L 211.523438 295.222656 C 212.234375 295.9375 213.195312 296.335938 214.203125 296.335938 C 215.207031 296.335938 216.171875 295.9375 216.878906 295.222656 L 222.753906 289.339844 L 230.589844 297.191406 C 231.300781 297.90625 232.265625 298.304688 233.269531 298.304688 C 234.273438 298.304688 235.238281 297.90625 235.949219 297.191406 L 238.496094 294.640625 C 239.042969 294.886719 239.597656 295.117188 240.15625 295.332031 L 240.15625 298.941406 C 240.15625 301.035156 241.855469 302.734375 243.945312 302.734375 L 259.679688 302.734375 C 261.773438 302.734375 263.46875 301.035156 263.46875 298.941406 L 263.46875 295.332031 C 264.027344 295.117188 264.582031 294.886719 265.132812 294.640625 L 267.679688 297.195312 C 269.15625 298.675781 271.554688 298.675781 273.035156 297.195312 L 284.164062 286.046875 C 284.871094 285.335938 285.273438 284.371094 285.273438 283.363281 C 285.273438 282.359375 284.871094 281.394531 284.164062 280.679688 L 281.613281 278.128906 C 281.859375 277.578125 282.089844 277.023438 282.304688 276.464844 L 285.90625 276.464844 C 288 276.464844 289.695312 274.765625 289.695312 272.667969 L 289.695312 256.90625 C 289.695312 254.808594 288 253.109375 285.90625 253.109375 Z M 251.8125 253.402344 C 258.082031 253.402344 263.179688 258.511719 263.179688 264.789062 C 263.179688 271.0625 258.082031 276.171875 251.8125 276.171875 C 245.546875 276.171875 240.449219 271.0625 240.449219 264.789062 C 240.449219 258.511719 245.546875 253.402344 251.8125 253.402344 Z M 141.5625 289.144531 L 139.761719 287.339844 C 138.5625 286.136719 136.710938 285.878906 135.234375 286.710938 C 133.53125 287.667969 131.71875 288.417969 129.855469 288.945312 C 128.222656 289.410156 127.097656 290.898438 127.097656 292.597656 L 127.097656 295.144531 L 118.941406 295.144531 L 118.941406 292.597656 C 118.941406 290.898438 117.8125 289.410156 116.183594 288.945312 C 114.316406 288.417969 112.507812 287.667969 110.804688 286.710938 C 109.324219 285.882812 107.476562 286.136719 106.277344 287.339844 L 104.476562 289.144531 L 98.707031 283.363281 L 100.507812 281.558594 C 101.707031 280.359375 101.960938 278.507812 101.132812 277.023438 C 100.179688 275.316406 99.429688 273.503906 98.902344 271.636719 C 98.441406 270.003906 96.953125 268.875 95.257812 268.875 L 92.714844 268.875 L 92.714844 260.703125 L 95.257812 260.703125 C 96.953125 260.703125 98.441406 259.574219 98.902344 257.9375 C 99.429688 256.070312 100.179688 254.257812 101.132812 252.550781 C 101.960938 251.070312 101.703125 249.214844 100.503906 248.015625 L 98.703125 246.210938 L 104.472656 240.433594 L 106.273438 242.238281 C 107.472656 243.4375 109.324219 243.695312 110.804688 242.863281 C 112.507812 241.910156 114.316406 241.15625 116.179688 240.628906 C 117.8125 240.167969 118.9375 238.675781 118.9375 236.976562 L 118.9375 234.429688 L 127.097656 234.429688 L 127.097656 236.976562 C 127.097656 238.675781 128.222656 240.167969 129.851562 240.628906 C 131.414062 241.070312 132.929688 241.675781 134.382812 242.417969 L 134.382812 249.617188 C 131.214844 247.230469 127.277344 245.8125 123.015625 245.8125 C 112.574219 245.8125 104.078125 254.324219 104.078125 264.789062 C 104.078125 275.25 112.574219 283.761719 123.015625 283.761719 C 133.460938 283.761719 141.957031 275.25 141.957031 264.789062 L 144.546875 264.789062 C 145.082031 266.300781 145.695312 267.785156 146.390625 269.238281 L 141.878906 273.757812 C 140.398438 275.238281 140.398438 277.640625 141.878906 279.125 L 146.71875 283.976562 Z M 134.382812 264.789062 C 134.382812 271.0625 129.285156 276.171875 123.019531 276.171875 C 116.75 276.171875 111.652344 271.0625 111.652344 264.789062 C 111.652344 258.511719 116.75 253.402344 123.019531 253.402344 C 129.285156 253.402344 134.382812 258.511719 134.382812 264.789062 Z M 214.203125 287.175781 L 210.410156 283.375 C 209.210938 282.175781 207.359375 281.917969 205.882812 282.746094 C 203.308594 284.191406 200.570312 285.328125 197.75 286.128906 C 196.117188 286.589844 194.992188 288.082031 194.992188 289.777344 L 194.992188 295.144531 L 179.839844 295.144531 L 179.839844 289.78125 C 179.839844 288.082031 178.714844 286.589844 177.082031 286.128906 C 174.261719 285.328125 171.527344 284.191406 168.953125 282.746094 C 167.472656 281.917969 165.621094 282.175781 164.421875 283.375 L 160.628906 287.175781 L 149.917969 276.441406 L 153.707031 272.640625 C 154.90625 271.441406 155.164062 269.589844 154.335938 268.105469 C 152.894531 265.527344 151.757812 262.785156 150.960938 259.960938 C 150.5 258.324219 149.011719 257.199219 147.316406 257.199219 L 141.957031 257.199219 L 141.957031 242.019531 L 147.316406 242.019531 C 149.011719 242.019531 150.5 240.890625 150.960938 239.257812 C 151.757812 236.429688 152.894531 233.691406 154.335938 231.109375 C 155.164062 229.628906 154.90625 227.777344 153.707031 226.574219 L 149.914062 222.777344 L 160.628906 212.042969 L 164.421875 215.839844 C 165.621094 217.042969 167.472656 217.296875 168.949219 216.46875 C 171.527344 215.027344 174.261719 213.886719 177.082031 213.089844 C 178.714844 212.625 179.839844 211.136719 179.839844 209.4375 L 179.839844 204.070312 L 194.992188 204.070312 L 194.992188 209.4375 C 194.992188 211.136719 196.117188 212.625 197.75 213.089844 C 200.570312 213.886719 203.304688 215.023438 205.878906 216.46875 C 207.359375 217.296875 209.210938 217.039062 210.410156 215.839844 L 214.203125 212.039062 L 224.914062 222.773438 L 221.125 226.574219 C 219.925781 227.773438 219.667969 229.628906 220.496094 231.109375 C 221.9375 233.691406 223.070312 236.429688 223.871094 239.257812 C 224.332031 240.890625 225.820312 242.019531 227.515625 242.019531 L 232.875 242.019531 L 232.875 257.195312 L 227.515625 257.195312 C 225.820312 257.195312 224.332031 258.324219 223.871094 259.957031 C 223.074219 262.785156 221.9375 265.523438 220.496094 268.105469 C 219.667969 269.585938 219.925781 271.441406 221.125 272.640625 L 224.917969 276.441406 Z M 282.117188 268.875 L 279.574219 268.875 C 277.878906 268.875 276.390625 270 275.929688 271.636719 C 275.402344 273.503906 274.652344 275.316406 273.699219 277.023438 C 272.871094 278.503906 273.128906 280.359375 274.328125 281.558594 L 276.128906 283.363281 L 270.359375 289.144531 L 268.558594 287.339844 C 267.359375 286.136719 265.507812 285.878906 264.027344 286.710938 C 262.324219 287.664062 260.515625 288.417969 258.652344 288.945312 C 257.019531 289.410156 255.894531 290.898438 255.894531 292.597656 L 255.894531 295.144531 L 247.734375 295.144531 L 247.734375 292.597656 C 247.734375 290.898438 246.609375 289.410156 244.980469 288.945312 C 243.113281 288.417969 241.304688 287.667969 239.601562 286.710938 C 238.121094 285.882812 236.269531 286.136719 235.074219 287.339844 L 233.269531 289.144531 L 228.113281 283.976562 L 232.953125 279.125 C 234.433594 277.644531 234.433594 275.242188 232.953125 273.757812 L 228.441406 269.238281 C 229.136719 267.785156 229.75 266.300781 230.285156 264.789062 L 232.875 264.789062 C 232.875 275.25 241.371094 283.761719 251.8125 283.761719 C 262.257812 283.761719 270.753906 275.25 270.753906 264.789062 C 270.753906 254.324219 262.257812 245.8125 251.8125 245.8125 C 247.554688 245.8125 243.617188 247.230469 240.449219 249.617188 L 240.449219 242.417969 C 241.902344 241.675781 243.417969 241.070312 244.976562 240.628906 C 246.609375 240.167969 247.734375 238.675781 247.734375 236.976562 L 247.734375 234.429688 L 255.894531 234.429688 L 255.894531 236.976562 C 255.894531 238.675781 257.019531 240.167969 258.648438 240.628906 C 260.515625 241.15625 262.324219 241.910156 264.027344 242.863281 C 265.507812 243.691406 267.355469 243.4375 268.554688 242.234375 L 270.355469 240.429688 L 276.125 246.210938 L 274.324219 248.015625 C 273.125 249.214844 272.871094 251.070312 273.699219 252.550781 C 274.652344 254.257812 275.402344 256.070312 275.929688 257.9375 C 276.390625 259.570312 277.878906 260.699219 279.574219 260.699219 L 282.117188 260.699219 Z M 282.117188 268.875 " fill-opacity="1" fill-rule="nonzero"/></g><path fill="#d81b1b" d="M 187.417969 219.25 C 170.707031 219.25 157.109375 232.867188 157.109375 249.609375 C 157.109375 266.347656 170.707031 279.964844 187.417969 279.964844 C 204.125 279.964844 217.722656 266.347656 217.722656 249.609375 C 217.722656 232.867188 204.125 219.25 187.417969 219.25 Z M 187.417969 272.375 C 174.882812 272.375 164.6875 262.164062 164.6875 249.609375 C 164.6875 237.054688 174.882812 226.839844 187.417969 226.839844 C 199.949219 226.839844 210.144531 237.054688 210.144531 249.609375 C 210.144531 262.164062 199.949219 272.375 187.417969 272.375 Z M 187.417969 272.375 " fill-opacity="1" fill-rule="nonzero"/><path fill="#d81b1b" d="M 245.265625 187.625 L 208.308594 161.113281 C 206.605469 159.890625 204.242188 160.285156 203.023438 161.988281 C 201.804688 163.691406 202.195312 166.0625 203.898438 167.28125 L 240.855469 193.796875 C 241.523438 194.277344 242.296875 194.507812 243.058594 194.507812 C 244.238281 194.507812 245.402344 193.953125 246.140625 192.921875 C 247.359375 191.214844 246.96875 188.84375 245.265625 187.625 Z M 245.265625 187.625 " fill-opacity="1" fill-rule="nonzero"/><path fill="#d81b1b" d="M 211.847656 149.648438 C 210.628906 151.351562 211.019531 153.722656 212.71875 154.941406 L 249.679688 181.453125 C 250.347656 181.933594 251.117188 182.164062 251.882812 182.164062 C 253.0625 182.164062 254.222656 181.613281 254.964844 180.578125 C 256.183594 178.875 255.789062 176.503906 254.089844 175.285156 L 217.132812 148.769531 C 215.429688 147.550781 213.0625 147.941406 211.847656 149.648438 Z M 211.847656 149.648438 " fill-opacity="1" fill-rule="nonzero"/><path fill="#d81b1b" d="M 118.648438 115.28125 C 119.125 115.882812 119.769531 116.320312 120.5 116.546875 L 131.945312 120.089844 C 132.3125 120.207031 132.6875 120.261719 133.0625 120.261719 C 134.261719 120.261719 135.417969 119.6875 136.140625 118.675781 L 166.480469 140.441406 L 141.46875 159.941406 C 133.238281 157.394531 124.167969 159.003906 117.320312 164.34375 C 109.734375 170.257812 105.933594 179.851562 107.402344 189.382812 C 107.597656 190.628906 108.394531 191.699219 109.535156 192.238281 C 110.675781 192.777344 112.007812 192.710938 113.089844 192.0625 L 131.136719 181.273438 C 132.007812 180.753906 133.027344 180.605469 134.007812 180.855469 C 134.988281 181.101562 135.8125 181.71875 136.332031 182.589844 C 136.851562 183.460938 137 184.480469 136.75 185.464844 C 136.503906 186.445312 135.890625 187.273438 135.019531 187.792969 L 116.40625 198.917969 C 115.375 199.535156 114.695312 200.601562 114.578125 201.796875 C 114.457031 202.996094 114.914062 204.175781 115.800781 204.984375 C 120.839844 209.570312 127.210938 211.886719 133.601562 211.886719 C 139.328125 211.886719 145.074219 210.027344 149.894531 206.269531 C 156.742188 200.929688 160.527344 192.515625 160.082031 183.898438 L 185.945312 163.738281 L 187.859375 165.113281 C 187.53125 167.652344 188.570312 170.289062 190.789062 171.882812 L 240.730469 207.707031 C 241.960938 208.589844 243.40625 209.054688 244.890625 209.054688 C 245.28125 209.054688 245.679688 209.019531 246.074219 208.953125 C 246.78125 208.835938 247.453125 208.621094 248.078125 208.3125 L 252.339844 211.367188 C 253.535156 212.226562 254.9375 212.675781 256.382812 212.675781 C 256.761719 212.675781 257.148438 212.644531 257.53125 212.578125 C 259.371094 212.273438 260.976562 211.273438 262.0625 209.757812 L 276 190.257812 C 276 190.257812 276 190.257812 276 190.253906 C 278.238281 187.125 277.515625 182.753906 274.394531 180.515625 L 270.128906 177.457031 C 270.457031 174.917969 269.417969 172.277344 267.199219 170.6875 L 220.238281 137 L 233.363281 126.765625 C 241.59375 129.3125 250.664062 127.703125 257.511719 122.363281 C 265.097656 116.449219 268.898438 106.855469 267.429688 97.324219 C 267.234375 96.078125 266.4375 95.007812 265.296875 94.46875 C 264.15625 93.933594 262.824219 94 261.742188 94.644531 L 243.695312 105.433594 C 242.824219 105.953125 241.804688 106.101562 240.824219 105.855469 C 239.84375 105.605469 239.019531 104.988281 238.5 104.117188 C 237.980469 103.246094 237.832031 102.226562 238.082031 101.246094 C 238.328125 100.261719 238.945312 99.433594 239.8125 98.914062 L 258.425781 87.789062 C 259.457031 87.175781 260.136719 86.105469 260.253906 84.910156 C 260.375 83.714844 259.921875 82.53125 259.03125 81.722656 C 249.476562 73.027344 235.136719 72.488281 224.941406 80.4375 C 218.089844 85.777344 214.304688 94.191406 214.75 102.808594 L 185.1875 125.855469 L 149.375 100.164062 C 150.324219 98.835938 150.320312 97.046875 149.359375 95.726562 L 142.328125 86.011719 C 141.878906 85.394531 141.253906 84.925781 140.535156 84.667969 L 114.566406 75.371094 C 112.972656 74.800781 111.195312 75.359375 110.210938 76.734375 L 101.390625 89.078125 C 100.402344 90.453125 100.449219 92.320312 101.503906 93.644531 Z M 153.789062 179.1875 C 152.722656 180.019531 152.179688 181.355469 152.363281 182.699219 C 153.285156 189.398438 150.554688 196.136719 145.238281 200.28125 C 139.417969 204.820312 131.710938 205.484375 125.367188 202.398438 L 138.902344 194.308594 C 141.507812 192.75 143.355469 190.269531 144.097656 187.320312 C 144.839844 184.375 144.394531 181.3125 142.839844 178.699219 C 141.28125 176.089844 138.804688 174.242188 135.863281 173.496094 C 132.921875 172.75 129.863281 173.199219 127.257812 174.757812 L 114.941406 182.117188 C 115.726562 177.515625 118.191406 173.28125 121.972656 170.332031 C 127.289062 166.1875 134.476562 165.191406 140.734375 167.730469 C 141.988281 168.238281 143.417969 168.039062 144.484375 167.207031 L 172.90625 145.046875 L 179.332031 149.660156 C 177.777344 152.609375 178.054688 156.15625 179.925781 158.8125 Z M 197.964844 136.476562 C 198.34375 135.945312 199.085938 135.824219 199.613281 136.203125 L 204.8125 139.933594 L 191.578125 158.445312 L 186.382812 154.714844 C 185.851562 154.335938 185.726562 153.59375 186.109375 153.0625 Z M 256.253906 204.84375 L 253.175781 202.632812 L 266.410156 184.121094 L 269.488281 186.332031 Z M 244.808594 201.300781 L 195.53125 165.949219 L 213.175781 141.265625 L 262.453125 176.617188 Z M 221.042969 107.519531 C 222.109375 106.6875 222.652344 105.351562 222.46875 104.007812 C 221.546875 97.308594 224.277344 90.570312 229.59375 86.425781 C 235.414062 81.890625 243.121094 81.222656 249.464844 84.304688 L 235.929688 92.398438 C 233.324219 93.953125 231.476562 96.4375 230.734375 99.386719 C 229.992188 102.332031 230.4375 105.394531 231.992188 108.007812 C 233.550781 110.617188 236.027344 112.464844 238.96875 113.210938 C 241.914062 113.953125 244.96875 113.507812 247.574219 111.949219 L 259.890625 104.589844 C 259.105469 109.191406 256.640625 113.425781 252.859375 116.375 C 247.542969 120.519531 240.355469 121.515625 234.097656 118.976562 C 232.84375 118.46875 231.414062 118.667969 230.347656 119.5 L 212.304688 133.566406 C 212.175781 133.582031 212.042969 133.589844 211.914062 133.613281 C 211.207031 133.730469 210.535156 133.945312 209.910156 134.253906 L 204.023438 130.035156 C 200.425781 127.453125 195.523438 128.007812 192.566406 131.148438 L 191.613281 130.464844 Z M 188.082031 137.265625 L 183.671875 143.4375 L 140.554688 112.503906 L 144.964844 106.335938 Z M 114.707031 83.480469 L 136.882812 91.417969 L 141.625 97.96875 L 131.570312 112.03125 L 123.855469 109.644531 L 109.210938 91.167969 Z M 114.707031 83.480469 " fill-opacity="1" fill-rule="nonzero"/></svg>