<svg xmlns="http://www.w3.org/2000/svg" xmlns:xlink="http://www.w3.org/1999/xlink" width="500" zoomAndPan="magnify" viewBox="0 0 375 374.999991" height="500" preserveAspectRatio="xMidYMid meet" version="1.0"><defs><clipPath id="189a84ae0e"><path d="M 0 23.164062 L 375 23.164062 L 375 351.664062 L 0 351.664062 Z M 0 23.164062 " clip-rule="nonzero"/></clipPath><clipPath id="6f3a711ff2"><path d="M 116.25 112.5 L 258.75 112.5 L 258.75 262.5 L 116.25 262.5 Z M 116.25 112.5 " clip-rule="nonzero"/></clipPath></defs><g clip-path="url(#189a84ae0e)"><path fill="#000000" d="M 280.683594 23.164062 L 94.316406 23.164062 L 0.00390625 187.414062 L 94.316406 351.664062 L 280.683594 351.664062 L 374.996094 187.414062 L 280.683594 23.164062 M 275.550781 342.765625 L 99.449219 342.765625 L 10.265625 187.414062 L 99.449219 32.0625 L 275.550781 32.0625 L 364.734375 187.414062 L 275.550781 342.765625 " fill-opacity="1" fill-rule="nonzero"/></g><path fill="#d81b1b" d="M 169.433594 219.632812 C 168.988281 219.632812 168.539062 219.460938 168.199219 219.121094 C 167.515625 218.4375 167.515625 217.335938 168.199219 216.652344 L 216.726562 168.125 C 217.171875 167.683594 217.820312 167.507812 218.425781 167.675781 C 223.964844 169.222656 229.910156 167.660156 233.957031 163.617188 C 236.988281 160.585938 238.625 156.539062 238.605469 152.347656 L 235.230469 155.730469 C 233.109375 157.84375 229.992188 158.679688 227.089844 157.910156 C 222.265625 156.613281 218.460938 152.8125 217.164062 147.984375 C 216.386719 145.082031 217.222656 141.964844 219.34375 139.84375 L 222.726562 136.46875 C 218.507812 136.421875 214.488281 138.085938 211.457031 141.117188 C 207.417969 145.164062 205.855469 151.109375 207.398438 156.640625 C 207.5625 157.253906 207.394531 157.902344 206.949219 158.347656 L 158.421875 206.875 C 157.738281 207.558594 156.636719 207.558594 155.953125 206.875 C 155.273438 206.191406 155.273438 205.085938 155.953125 204.402344 L 203.785156 156.578125 C 202.351562 150.128906 204.296875 143.335938 208.992188 138.644531 C 213.691406 133.949219 220.382812 132 226.894531 133.4375 C 227.519531 133.570312 228.015625 134.039062 228.199219 134.652344 C 228.375 135.265625 228.203125 135.925781 227.753906 136.375 L 221.8125 142.316406 C 220.574219 143.554688 220.085938 145.382812 220.539062 147.082031 C 221.511719 150.707031 224.367188 153.5625 227.992188 154.535156 C 229.695312 154.996094 231.523438 154.5 232.761719 153.261719 L 238.699219 147.320312 C 239.148438 146.871094 239.808594 146.699219 240.421875 146.882812 C 241.035156 147.058594 241.503906 147.558594 241.636719 148.179688 C 243.074219 154.691406 241.125 161.386719 236.429688 166.082031 C 231.738281 170.777344 224.949219 172.722656 218.496094 171.292969 L 170.671875 219.121094 C 170.328125 219.460938 169.882812 219.632812 169.433594 219.632812 " fill-opacity="1" fill-rule="nonzero"/><path fill="#d81b1b" d="M 187.574219 235 C 161.382812 235 140.078125 213.691406 140.078125 187.5 C 140.078125 161.308594 161.382812 140 187.574219 140 C 191.503906 140 195.414062 140.488281 199.191406 141.433594 C 200.125 141.667969 200.699219 142.617188 200.460938 143.554688 C 200.226562 144.488281 199.28125 145.054688 198.34375 144.820312 C 194.839844 143.9375 191.21875 143.496094 187.574219 143.496094 C 163.3125 143.496094 143.570312 163.238281 143.570312 187.5 C 143.570312 211.761719 163.3125 231.503906 187.574219 231.503906 C 211.839844 231.503906 231.582031 211.761719 231.582031 187.5 C 231.582031 183.511719 231.046875 179.550781 229.992188 175.742188 C 229.734375 174.8125 230.277344 173.851562 231.210938 173.59375 C 232.140625 173.335938 233.105469 173.886719 233.355469 174.8125 C 234.496094 178.925781 235.074219 183.195312 235.074219 187.5 C 235.074219 213.691406 213.765625 235 187.574219 235 " fill-opacity="1" fill-rule="nonzero"/><g clip-path="url(#6f3a711ff2)"><path fill="#d81b1b" d="M 199.824219 262.265625 L 175.328125 262.265625 C 174.550781 262.265625 173.867188 261.75 173.648438 261.003906 L 172.503906 257.03125 C 170.316406 249.449219 165.167969 243.011719 158.015625 238.894531 L 157.75 238.75 C 150.683594 234.636719 142.566406 233.414062 134.902344 235.3125 L 130.882812 236.3125 C 130.136719 236.492188 129.339844 236.160156 128.949219 235.488281 L 116.707031 214.273438 C 116.316406 213.601562 116.421875 212.75 116.957031 212.191406 L 119.824219 209.210938 C 125.304688 203.523438 128.308594 195.882812 128.285156 187.699219 L 128.285156 187.394531 C 128.300781 179.148438 125.296875 171.472656 119.824219 165.789062 L 116.957031 162.808594 C 116.421875 162.25 116.316406 161.398438 116.707031 160.726562 L 128.949219 139.511719 C 129.339844 138.839844 130.128906 138.507812 130.882812 138.6875 L 134.90625 139.6875 C 142.566406 141.585938 150.699219 140.351562 157.816406 136.222656 L 157.949219 136.148438 C 165.179688 131.992188 170.316406 125.5625 172.5 117.980469 L 173.648438 113.996094 C 173.867188 113.25 174.550781 112.734375 175.328125 112.734375 L 199.824219 112.734375 C 200.601562 112.734375 201.285156 113.25 201.5 113.996094 L 202.648438 117.96875 C 203.898438 122.320312 206.109375 126.269531 209.203125 129.710938 C 209.847656 130.429688 209.789062 131.53125 209.070312 132.175781 C 208.355469 132.824219 207.246094 132.765625 206.605469 132.046875 C 203.152344 128.207031 200.695312 123.796875 199.292969 118.9375 L 198.507812 116.230469 L 176.640625 116.230469 L 175.859375 118.949219 C 173.417969 127.402344 167.710938 134.5625 159.785156 139.121094 C 159.777344 139.121094 159.667969 139.191406 159.660156 139.191406 C 151.664062 143.828125 142.605469 145.1875 134.066406 143.074219 L 131.320312 142.394531 L 120.386719 161.332031 L 122.34375 163.367188 C 128.441406 169.703125 131.792969 178.242188 131.777344 187.414062 L 131.777344 187.6875 C 131.800781 196.785156 128.453125 205.285156 122.34375 211.628906 L 120.386719 213.667969 L 131.320312 232.605469 L 134.058594 231.925781 C 142.609375 229.804688 151.648438 231.160156 159.507812 235.730469 L 159.753906 235.867188 C 167.699219 240.4375 173.421875 247.609375 175.859375 256.0625 L 176.640625 258.769531 L 198.507812 258.769531 L 199.292969 256.050781 C 201.734375 247.597656 207.441406 240.4375 215.367188 235.878906 C 215.371094 235.878906 215.484375 235.808594 215.488281 235.808594 C 223.484375 231.171875 232.542969 229.8125 241.082031 231.925781 L 243.828125 232.605469 L 254.761719 213.667969 L 252.804688 211.632812 C 246.707031 205.296875 243.355469 196.757812 243.375 187.585938 L 243.375 187.300781 C 243.351562 178.214844 246.695312 169.714844 252.804688 163.371094 L 254.761719 161.332031 L 246.988281 147.871094 C 246.507812 147.035156 246.796875 145.964844 247.632812 145.480469 C 248.464844 145 249.53125 145.289062 250.015625 146.121094 L 258.449219 160.726562 C 258.835938 161.398438 258.730469 162.25 258.191406 162.808594 L 255.324219 165.789062 C 249.84375 171.476562 246.84375 179.117188 246.867188 187.296875 L 246.867188 187.59375 C 246.847656 195.851562 249.855469 203.527344 255.324219 209.210938 L 258.191406 212.191406 C 258.730469 212.75 258.835938 213.601562 258.449219 214.273438 L 246.199219 235.488281 C 245.808594 236.160156 245.019531 236.492188 244.265625 236.3125 L 240.242188 235.3125 C 232.585938 233.414062 224.449219 234.648438 217.335938 238.777344 L 217.199219 238.851562 C 209.96875 243.007812 204.835938 249.441406 202.648438 257.019531 L 201.5 261.003906 C 201.285156 261.75 200.601562 262.265625 199.824219 262.265625 " fill-opacity="1" fill-rule="nonzero"/></g></svg>