<svg xmlns="http://www.w3.org/2000/svg" xmlns:xlink="http://www.w3.org/1999/xlink" width="500" zoomAndPan="magnify" viewBox="0 0 375 374.999991" height="500" preserveAspectRatio="xMidYMid meet" version="1.0"><defs><clipPath id="72747b0cf2"><path d="M 0 23.164062 L 375 23.164062 L 375 351.664062 L 0 351.664062 Z M 0 23.164062 " clip-rule="nonzero"/></clipPath><clipPath id="5fe67d9083"><path d="M 128.523438 112.5 L 246.507812 112.5 L 246.507812 262.5 L 128.523438 262.5 Z M 128.523438 112.5 " clip-rule="nonzero"/></clipPath></defs><g clip-path="url(#72747b0cf2)"><path fill="#000000" d="M 280.683594 23.164062 L 94.316406 23.164062 L 0.00390625 187.414062 L 94.316406 351.664062 L 280.683594 351.664062 L 374.996094 187.414062 L 280.683594 23.164062 M 275.550781 342.765625 L 99.449219 342.765625 L 10.265625 187.414062 L 99.449219 32.0625 L 275.550781 32.0625 L 364.734375 187.414062 L 275.550781 342.765625 " fill-opacity="1" fill-rule="nonzero"/></g><g clip-path="url(#5fe67d9083)"><path fill="#d81b1b" d="M 138.535156 195.554688 L 236.523438 195.554688 L 236.523438 257.8125 L 138.535156 257.8125 Z M 133.875 180.960938 C 133.875 179.375 135.167969 178.085938 136.753906 178.085938 L 238.304688 178.085938 C 239.890625 178.085938 241.167969 179.375 241.167969 180.960938 L 241.167969 188.007812 C 241.167969 189.578125 239.890625 190.867188 238.304688 190.867188 L 136.753906 190.867188 C 135.167969 190.867188 133.875 189.578125 133.875 188.007812 Z M 148.179688 164.089844 L 166.503906 164.089844 L 166.503906 172.34375 L 148.179688 172.34375 Z M 213.003906 164.089844 L 231.316406 164.089844 L 231.316406 172.34375 L 213.003906 172.34375 Z M 130.867188 257.8125 C 129.574219 257.8125 128.523438 258.863281 128.523438 260.15625 C 128.523438 261.449219 129.574219 262.5 130.867188 262.5 L 244.179688 262.5 C 245.484375 262.5 246.523438 261.449219 246.523438 260.15625 C 246.523438 258.863281 245.484375 257.8125 244.179688 257.8125 L 241.210938 257.8125 L 241.210938 194.984375 C 243.9375 193.839844 245.855469 191.148438 245.855469 188.007812 L 245.855469 180.960938 C 245.855469 176.792969 242.472656 173.410156 238.304688 173.410156 L 236.003906 173.410156 L 236.003906 161.746094 C 236.003906 160.453125 234.964844 159.402344 233.660156 159.402344 L 224.523438 159.402344 C 224.695312 153.34375 226.492188 128.292969 243.953125 124.992188 C 245.21875 124.75 246.054688 123.527344 245.816406 122.246094 C 245.578125 120.984375 244.351562 120.15625 243.074219 120.382812 C 221.820312 124.390625 219.96875 152.648438 219.824219 159.402344 L 210.660156 159.402344 C 209.367188 159.402344 208.316406 160.453125 208.316406 161.746094 L 208.316406 173.410156 L 171.191406 173.410156 L 171.191406 161.746094 C 171.191406 160.453125 170.136719 159.402344 168.847656 159.402344 L 160.351562 159.402344 C 163.105469 152.4375 173.09375 130.410156 190.285156 127.160156 C 211.925781 123.074219 214.828125 129 224.070312 116.214844 C 224.816406 115.164062 224.589844 113.699219 223.539062 112.953125 C 222.484375 112.179688 221.019531 112.421875 220.261719 113.472656 C 212.539062 124.164062 211.859375 118.320312 189.421875 122.554688 C 167.832031 126.640625 157.007812 154.699219 155.328125 159.402344 L 145.835938 159.402344 C 144.542969 159.402344 143.492188 160.453125 143.492188 161.746094 L 143.492188 173.410156 L 136.753906 173.410156 C 132.585938 173.410156 129.1875 176.792969 129.1875 180.976562 L 129.1875 188.007812 C 129.1875 191.148438 131.121094 193.839844 133.847656 194.984375 L 133.847656 257.8125 L 130.867188 257.8125 " fill-opacity="1" fill-rule="nonzero"/></g><path fill="#d81b1b" d="M 148.964844 188.207031 C 150.253906 188.207031 151.308594 187.167969 151.308594 185.863281 L 151.308594 183.105469 C 151.308594 181.800781 150.253906 180.761719 148.964844 180.761719 C 147.671875 180.761719 146.621094 181.800781 146.621094 183.105469 L 146.621094 185.863281 C 146.621094 187.167969 147.671875 188.207031 148.964844 188.207031 " fill-opacity="1" fill-rule="nonzero"/><path fill="#d81b1b" d="M 164.382812 188.207031 C 165.691406 188.207031 166.726562 187.167969 166.726562 185.863281 L 166.726562 183.105469 C 166.726562 181.800781 165.691406 180.761719 164.382812 180.761719 C 163.09375 180.761719 162.039062 181.800781 162.039062 183.105469 L 162.039062 185.863281 C 162.039062 187.167969 163.09375 188.207031 164.382812 188.207031 " fill-opacity="1" fill-rule="nonzero"/><path fill="#d81b1b" d="M 179.804688 188.207031 C 181.109375 188.207031 182.148438 187.167969 182.148438 185.863281 L 182.148438 183.105469 C 182.148438 181.800781 181.109375 180.761719 179.804688 180.761719 C 178.515625 180.761719 177.460938 181.800781 177.460938 183.105469 L 177.460938 185.863281 C 177.460938 187.167969 178.515625 188.207031 179.804688 188.207031 " fill-opacity="1" fill-rule="nonzero"/><path fill="#d81b1b" d="M 195.238281 188.207031 C 196.53125 188.207031 197.582031 187.167969 197.582031 185.863281 L 197.582031 183.105469 C 197.582031 181.800781 196.53125 180.761719 195.238281 180.761719 C 193.933594 180.761719 192.894531 181.800781 192.894531 183.105469 L 192.894531 185.863281 C 192.894531 187.167969 193.933594 188.207031 195.238281 188.207031 " fill-opacity="1" fill-rule="nonzero"/><path fill="#d81b1b" d="M 210.660156 188.207031 C 211.953125 188.207031 213.003906 187.167969 213.003906 185.863281 L 213.003906 183.105469 C 213.003906 181.800781 211.953125 180.761719 210.660156 180.761719 C 209.355469 180.761719 208.316406 181.800781 208.316406 183.105469 L 208.316406 185.863281 C 208.316406 187.167969 209.355469 188.207031 210.660156 188.207031 " fill-opacity="1" fill-rule="nonzero"/><path fill="#d81b1b" d="M 226.082031 188.207031 C 227.371094 188.207031 228.425781 187.167969 228.425781 185.863281 L 228.425781 183.105469 C 228.425781 181.800781 227.371094 180.761719 226.082031 180.761719 C 224.789062 180.761719 223.738281 181.800781 223.738281 183.105469 L 223.738281 185.863281 C 223.738281 187.167969 224.789062 188.207031 226.082031 188.207031 " fill-opacity="1" fill-rule="nonzero"/><path fill="#d81b1b" d="M 166.433594 212.695312 L 160.777344 212.695312 L 160.777344 207.035156 C 160.777344 205.730469 159.738281 204.691406 158.433594 204.691406 C 157.140625 204.691406 156.101562 205.730469 156.101562 207.035156 L 156.101562 212.695312 L 150.429688 212.695312 C 149.136719 212.695312 148.085938 213.746094 148.085938 215.039062 C 148.085938 216.332031 149.136719 217.382812 150.429688 217.382812 L 156.101562 217.382812 L 156.101562 223.042969 C 156.101562 224.335938 157.140625 225.386719 158.433594 225.386719 C 159.738281 225.386719 160.777344 224.335938 160.777344 223.042969 L 160.777344 217.382812 L 166.433594 217.382812 C 167.742188 217.382812 168.777344 216.332031 168.777344 215.039062 C 168.777344 213.746094 167.742188 212.695312 166.433594 212.695312 " fill-opacity="1" fill-rule="nonzero"/><path fill="#d81b1b" d="M 228.277344 212.695312 L 212.285156 212.695312 C 210.980469 212.695312 209.941406 213.746094 209.941406 215.039062 C 209.941406 216.332031 210.980469 217.382812 212.285156 217.382812 L 228.277344 217.382812 C 229.582031 217.382812 230.621094 216.332031 230.621094 215.039062 C 230.621094 213.746094 229.582031 212.695312 228.277344 212.695312 " fill-opacity="1" fill-rule="nonzero"/><path fill="#d81b1b" d="M 195.53125 231.324219 L 184.054688 231.324219 L 191.019531 221.523438 C 191.765625 220.472656 191.523438 219.007812 190.457031 218.261719 C 189.40625 217.515625 187.941406 217.769531 187.195312 218.808594 L 177.609375 232.3125 C 177.101562 233.03125 177.035156 233.976562 177.433594 234.746094 C 177.835938 235.519531 178.648438 236.011719 179.527344 236.011719 L 190.207031 236.011719 L 182.734375 244.203125 C 181.871094 245.160156 181.9375 246.640625 182.894531 247.519531 C 183.839844 248.382812 185.320312 248.316406 186.199219 247.359375 L 197.25 235.253906 C 197.890625 234.5625 198.050781 233.574219 197.675781 232.738281 C 197.304688 231.882812 196.453125 231.324219 195.519531 231.324219 L 195.53125 231.324219 " fill-opacity="1" fill-rule="nonzero"/></svg>