<svg xmlns="http://www.w3.org/2000/svg" xmlns:xlink="http://www.w3.org/1999/xlink" width="500" zoomAndPan="magnify" viewBox="0 0 375 374.999991" height="500" preserveAspectRatio="xMidYMid meet" version="1.0"><defs><clipPath id="cc6f815fa8"><path d="M 0 23.164062 L 375 23.164062 L 375 351.664062 L 0 351.664062 Z M 0 23.164062 " clip-rule="nonzero"/></clipPath><clipPath id="fb5e5095e1"><path d="M 112.5 112.5 L 262.5 112.5 L 262.5 262.5 L 112.5 262.5 Z M 112.5 112.5 " clip-rule="nonzero"/></clipPath></defs><g clip-path="url(#cc6f815fa8)"><path fill="#000000" d="M 280.683594 23.164062 L 94.316406 23.164062 L 0.00390625 187.414062 L 94.316406 351.664062 L 280.683594 351.664062 L 374.996094 187.414062 L 280.683594 23.164062 M 275.550781 342.765625 L 99.449219 342.765625 L 10.265625 187.414062 L 99.449219 32.0625 L 275.550781 32.0625 L 364.734375 187.414062 L 275.550781 342.765625 " fill-opacity="1" fill-rule="nonzero"/></g><path fill="#d81b1b" d="M 197.5 142.5 C 198.878906 142.5 200 143.621094 200 145 C 200 146.378906 198.878906 147.5 197.5 147.5 C 196.121094 147.5 195 146.378906 195 145 C 195 143.621094 196.121094 142.5 197.5 142.5 Z M 197.5 152.5 C 201.636719 152.5 205 149.136719 205 145 C 205 140.863281 201.636719 137.5 197.5 137.5 C 193.363281 137.5 190 140.863281 190 145 C 190 149.136719 193.363281 152.5 197.5 152.5 " fill-opacity="1" fill-rule="nonzero"/><g clip-path="url(#fb5e5095e1)"><path fill="#d81b1b" d="M 257.5 197.5 L 197.5 197.5 L 197.5 167.5 L 202.5 167.5 C 203.878906 167.5 205 166.378906 205 165 L 205 163.535156 L 205.730469 164.265625 C 206.707031 165.242188 208.289062 165.242188 209.265625 164.265625 L 216.765625 156.765625 C 217.742188 155.789062 217.742188 154.207031 216.765625 153.230469 L 216.035156 152.5 L 217.5 152.5 C 218.878906 152.5 220 151.378906 220 150 L 220 140 C 220 138.621094 218.878906 137.5 217.5 137.5 L 216.035156 137.5 L 216.765625 136.765625 C 217.742188 135.789062 217.742188 134.207031 216.765625 133.230469 L 209.265625 125.730469 C 208.289062 124.753906 206.707031 124.753906 205.730469 125.730469 L 205 126.464844 L 205 125 C 205 123.621094 203.878906 122.5 202.5 122.5 L 197.5 122.5 L 197.5 117.5 L 257.5 117.5 Z M 247.5 218.75 L 239.167969 225 L 222.710938 225 C 223.90625 217.914062 230.082031 212.5 237.5 212.5 L 247.5 212.5 Z M 247.5 230 C 247.5 234.136719 244.136719 237.5 240 237.5 L 200 237.5 C 200 236.121094 198.878906 235 197.5 235 L 167.5 235 C 166.121094 235 165 236.121094 165 237.5 L 125 237.5 C 120.863281 237.5 117.5 234.136719 117.5 230 L 117.5 225 L 123.5 229.5 C 123.933594 229.824219 124.460938 230 125 230 L 240 230 C 240.539062 230 241.066406 229.824219 241.5 229.5 L 247.5 225 Z M 247.5 255 C 247.5 256.378906 246.378906 257.5 245 257.5 L 235 257.5 C 233.621094 257.5 232.5 256.378906 232.5 255 L 232.5 252.5 C 238.46875 252.5 243.832031 249.867188 247.5 245.707031 Z M 200 247.5 L 200 242.5 L 240 242.5 C 241.511719 242.5 242.964844 242.230469 244.304688 241.734375 C 241.558594 245.242188 237.289062 247.5 232.5 247.5 Z M 195 247.5 L 170 247.5 L 170 240 L 195 240 Z M 165 247.5 L 132.5 247.5 C 127.710938 247.5 123.441406 245.242188 120.691406 241.734375 C 122.035156 242.230469 123.484375 242.5 125 242.5 L 165 242.5 Z M 132.5 255 C 132.5 256.378906 131.378906 257.5 130 257.5 L 120 257.5 C 118.621094 257.5 117.5 256.378906 117.5 255 L 117.5 245.707031 C 121.167969 249.867188 126.53125 252.5 132.5 252.5 Z M 117.5 212.5 L 127.5 212.5 C 134.917969 212.5 141.09375 217.914062 142.289062 225 L 125.832031 225 L 117.5 218.75 Z M 118.933594 202.5 L 127.5 202.5 C 140.441406 202.5 151.117188 212.386719 152.375 225 L 147.335938 225 C 146.101562 215.148438 137.679688 207.5 127.5 207.5 L 117.742188 207.5 C 117.976562 206.050781 118.378906 204.3125 118.933594 202.5 Z M 117.5 182.5 C 117.5 181.121094 118.621094 180 120 180 L 126.785156 180 L 124.457031 185.003906 L 120 185 C 118.621094 185 117.5 183.878906 117.5 182.5 Z M 140.433594 162.5 L 183.964844 162.5 L 185.730469 164.265625 C 186.707031 165.242188 188.289062 165.242188 189.265625 164.265625 L 190 163.535156 L 190 165 C 190 166.378906 191.121094 167.5 192.5 167.5 L 192.5 187.5 L 128.8125 187.5 Z M 150 152.5 L 178.964844 152.5 L 178.230469 153.230469 C 177.253906 154.207031 177.253906 155.789062 178.230469 156.765625 L 178.964844 157.5 L 142.761719 157.5 C 144.261719 154.75 147.425781 152.5 150 152.5 Z M 187.5 222.5 C 187.5 223.519531 185.550781 225 182.5 225 C 179.449219 225 177.5 223.519531 177.5 222.5 C 177.5 221.480469 179.449219 220 182.5 220 C 185.550781 220 187.5 221.480469 187.5 222.5 Z M 237.5 202.5 L 246.066406 202.5 C 246.640625 204.359375 247.035156 206.082031 247.257812 207.5 L 237.5 207.5 C 227.320312 207.5 218.894531 215.148438 217.664062 225 L 212.625 225 C 213.882812 212.386719 224.558594 202.5 237.5 202.5 Z M 207.605469 225 L 191.949219 225 C 192.304688 224.222656 192.5 223.378906 192.5 222.5 C 192.5 218.292969 188.109375 215 182.5 215 C 176.890625 215 172.5 218.292969 172.5 222.5 C 172.5 223.378906 172.695312 224.222656 173.050781 225 L 157.394531 225 C 156.121094 209.625 143.199219 197.5 127.5 197.5 L 120.859375 197.5 C 122.707031 193.636719 124.324219 192.523438 124.976562 192.5 C 124.980469 192.5 124.988281 192.5 124.992188 192.5 L 192.5 192.5 L 192.5 200 C 192.5 201.378906 193.621094 202.5 195 202.5 L 220.9375 202.5 C 213.5 207.445312 208.382812 215.617188 207.605469 225 Z M 180 142.5 L 185 142.5 C 186.011719 142.5 186.921875 141.890625 187.308594 140.957031 C 187.695312 140.023438 187.484375 138.949219 186.765625 138.230469 L 183.535156 135 L 187.5 131.035156 L 190.730469 134.265625 C 191.449219 134.984375 192.523438 135.199219 193.457031 134.808594 C 194.390625 134.421875 195 133.511719 195 132.5 L 195 127.5 L 200 127.5 L 200 132.5 C 200 133.511719 200.609375 134.421875 201.542969 134.808594 C 202.476562 135.195312 203.550781 134.984375 204.265625 134.265625 L 207.5 131.035156 L 211.464844 135 L 208.230469 138.230469 C 207.515625 138.949219 207.304688 140.023438 207.691406 140.957031 C 208.078125 141.890625 208.988281 142.5 210 142.5 L 215 142.5 L 215 147.5 L 210 147.5 C 208.988281 147.5 208.078125 148.109375 207.691406 149.042969 C 207.304688 149.976562 207.515625 151.050781 208.230469 151.765625 L 211.464844 155 L 207.5 158.964844 L 204.265625 155.730469 C 203.550781 155.015625 202.476562 154.804688 201.542969 155.191406 C 200.609375 155.578125 200 156.488281 200 157.5 L 200 162.5 L 195 162.5 L 195 157.5 C 195 156.488281 194.390625 155.578125 193.457031 155.191406 C 192.523438 154.804688 191.449219 155.015625 190.730469 155.730469 L 187.5 158.964844 L 183.535156 155 L 186.765625 151.765625 C 187.484375 151.050781 187.695312 149.976562 187.308594 149.042969 C 186.921875 148.109375 186.011719 147.5 185 147.5 L 180 147.5 Z M 260 112.5 L 195 112.5 C 193.621094 112.5 192.5 113.621094 192.5 115 L 192.5 122.5 C 191.121094 122.5 190 123.621094 190 125 L 190 126.464844 L 189.265625 125.730469 C 188.289062 124.753906 186.707031 124.753906 185.730469 125.730469 L 178.230469 133.230469 C 177.253906 134.207031 177.253906 135.789062 178.230469 136.765625 L 178.964844 137.5 L 177.5 137.5 C 176.121094 137.5 175 138.621094 175 140 L 175 147.5 L 150 147.5 C 144.539062 147.5 139.480469 152.066406 137.703125 156.511719 L 129.109375 175 L 120 175 C 115.867188 175 112.5 178.367188 112.5 182.5 C 112.5 186.59375 115.796875 189.929688 119.871094 189.996094 C 115.078125 194.925781 112.5 205.777344 112.5 210 L 112.5 255 C 112.5 259.136719 115.863281 262.5 120 262.5 L 130 262.5 C 134.136719 262.5 137.5 259.136719 137.5 255 L 137.5 252.5 L 227.5 252.5 L 227.5 255 C 227.5 259.136719 230.863281 262.5 235 262.5 L 245 262.5 C 249.136719 262.5 252.5 259.136719 252.5 255 L 252.5 210 C 252.5 208.058594 252.039062 205.328125 251.269531 202.5 L 260 202.5 C 261.378906 202.5 262.5 201.378906 262.5 200 L 262.5 115 C 262.5 113.621094 261.378906 112.5 260 112.5 " fill-opacity="1" fill-rule="nonzero"/></g><path fill="#d81b1b" d="M 247.5 155 L 225 155 C 223.621094 155 222.5 156.121094 222.5 157.5 C 222.5 158.878906 223.621094 160 225 160 L 247.5 160 C 248.878906 160 250 158.878906 250 157.5 C 250 156.121094 248.878906 155 247.5 155 " fill-opacity="1" fill-rule="nonzero"/><path fill="#d81b1b" d="M 247.5 165 L 217.5 165 C 216.121094 165 215 166.121094 215 167.5 C 215 168.878906 216.121094 170 217.5 170 L 247.5 170 C 248.878906 170 250 168.878906 250 167.5 C 250 166.121094 248.878906 165 247.5 165 " fill-opacity="1" fill-rule="nonzero"/><path fill="#d81b1b" d="M 247.5 175 L 207.5 175 C 206.121094 175 205 176.121094 205 177.5 C 205 178.878906 206.121094 180 207.5 180 L 247.5 180 C 248.878906 180 250 178.878906 250 177.5 C 250 176.121094 248.878906 175 247.5 175 " fill-opacity="1" fill-rule="nonzero"/><path fill="#d81b1b" d="M 247.5 185 L 207.5 185 C 206.121094 185 205 186.121094 205 187.5 C 205 188.878906 206.121094 190 207.5 190 L 247.5 190 C 248.878906 190 250 188.878906 250 187.5 C 250 186.121094 248.878906 185 247.5 185 " fill-opacity="1" fill-rule="nonzero"/><path fill="#d81b1b" d="M 247.5 145 L 227.5 145 C 226.121094 145 225 146.121094 225 147.5 C 225 148.878906 226.121094 150 227.5 150 L 247.5 150 C 248.878906 150 250 148.878906 250 147.5 C 250 146.121094 248.878906 145 247.5 145 " fill-opacity="1" fill-rule="nonzero"/><path fill="#d81b1b" d="M 247.5 135 L 227.5 135 C 226.121094 135 225 136.121094 225 137.5 C 225 138.878906 226.121094 140 227.5 140 L 247.5 140 C 248.878906 140 250 138.878906 250 137.5 C 250 136.121094 248.878906 135 247.5 135 " fill-opacity="1" fill-rule="nonzero"/><path fill="#d81b1b" d="M 222.5 130 L 247.5 130 C 248.878906 130 250 128.878906 250 127.5 C 250 126.121094 248.878906 125 247.5 125 L 222.5 125 C 221.121094 125 220 126.121094 220 127.5 C 220 128.878906 221.121094 130 222.5 130 " fill-opacity="1" fill-rule="nonzero"/></svg>