<svg xmlns="http://www.w3.org/2000/svg" xmlns:xlink="http://www.w3.org/1999/xlink" width="500" zoomAndPan="magnify" viewBox="0 0 375 374.999991" height="500" preserveAspectRatio="xMidYMid meet" version="1.0"><defs><clipPath id="874b490888"><path d="M 0 23.164062 L 375 23.164062 L 375 351.664062 L 0 351.664062 Z M 0 23.164062 " clip-rule="nonzero"/></clipPath></defs><g clip-path="url(#874b490888)"><path fill="#000000" d="M 280.683594 23.164062 L 94.316406 23.164062 L 0.00390625 187.414062 L 94.316406 351.664062 L 280.683594 351.664062 L 374.996094 187.414062 L 280.683594 23.164062 M 275.550781 342.765625 L 99.449219 342.765625 L 10.265625 187.414062 L 99.449219 32.0625 L 275.550781 32.0625 L 364.734375 187.414062 L 275.550781 342.765625 " fill-opacity="1" fill-rule="nonzero"/></g><path fill="#d81b1b" d="M 259.492188 218.613281 C 258.488281 215.152344 258.253906 211.636719 258.785156 208.070312 C 258.785156 208.070312 258.785156 207.847656 258.785156 207.734375 L 258.785156 207.289062 C 258.785156 207.289062 258.785156 206.992188 258.785156 206.84375 C 258.730469 206.703125 258.671875 206.570312 258.601562 206.4375 L 258.265625 206.0625 C 258.1875 205.945312 258.089844 205.847656 257.96875 205.765625 L 257.488281 205.507812 C 257.488281 205.507812 257.488281 205.507812 257.152344 205.507812 L 256.152344 205.507812 C 255.847656 205.550781 255.5625 205.648438 255.296875 205.804688 C 255.078125 205.925781 254.890625 206.085938 254.738281 206.285156 C 254.726562 206.375 254.726562 206.460938 254.738281 206.546875 C 254.628906 206.710938 254.527344 206.886719 254.441406 207.066406 C 254.1875 207.84375 253.839844 208.582031 253.402344 209.273438 C 252.964844 209.96875 252.449219 210.597656 251.859375 211.164062 C 251.265625 211.730469 250.613281 212.21875 249.902344 212.625 C 249.1875 213.03125 248.4375 213.34375 247.648438 213.5625 C 247.355469 213.636719 247.085938 213.757812 246.835938 213.929688 C 246.589844 214.101562 246.378906 214.3125 246.207031 214.558594 C 246.035156 214.808594 245.910156 215.078125 245.835938 215.371094 C 245.765625 215.664062 245.746094 215.960938 245.777344 216.257812 C 245.8125 216.558594 245.898438 216.84375 246.035156 217.113281 C 246.171875 217.378906 246.355469 217.617188 246.578125 217.820312 C 246.800781 218.023438 247.050781 218.179688 247.332031 218.289062 C 247.613281 218.402344 247.902344 218.460938 248.207031 218.464844 L 248.761719 218.464844 C 249.15625 218.378906 249.542969 218.253906 249.914062 218.09375 C 249.351562 219.269531 248.753906 220.429688 248.121094 221.570312 C 247.492188 222.710938 246.828125 223.832031 246.132812 224.933594 C 245.433594 226.035156 244.707031 227.117188 243.949219 228.175781 C 243.1875 229.234375 242.398438 230.269531 241.578125 231.285156 C 240.757812 232.296875 239.90625 233.285156 239.03125 234.25 C 238.152344 235.210938 237.246094 236.148438 236.3125 237.058594 C 235.378906 237.96875 234.421875 238.851562 233.4375 239.707031 C 232.453125 240.5625 231.441406 241.386719 230.410156 242.179688 C 229.378906 242.976562 228.320312 243.742188 227.246094 244.476562 C 226.167969 245.207031 225.070312 245.910156 223.949219 246.578125 C 222.832031 247.25 221.695312 247.882812 220.539062 248.488281 C 219.382812 249.089844 218.210938 249.660156 217.019531 250.191406 C 215.832031 250.726562 214.628906 251.226562 213.410156 251.691406 C 212.191406 252.152344 210.960938 252.582031 209.714844 252.972656 C 208.472656 253.363281 207.21875 253.71875 205.953125 254.039062 C 204.691406 254.355469 203.417969 254.636719 202.136719 254.878906 C 200.855469 255.125 199.570312 255.332031 198.277344 255.5 C 196.984375 255.667969 195.6875 255.796875 194.386719 255.890625 C 193.089844 255.984375 191.785156 256.039062 190.484375 256.054688 C 189.179688 256.070312 187.875 256.050781 186.574219 255.988281 C 185.273438 255.929688 183.972656 255.832031 182.675781 255.695312 C 181.378906 255.5625 180.085938 255.386719 178.800781 255.175781 C 177.515625 254.964844 176.234375 254.714844 174.964844 254.429688 C 173.691406 254.144531 172.429688 253.820312 171.175781 253.460938 C 169.925781 253.101562 168.683594 252.703125 167.453125 252.269531 C 166.222656 251.839844 165.007812 251.371094 163.804688 250.867188 C 162.601562 250.363281 161.417969 249.824219 160.246094 249.25 C 159.074219 248.675781 157.921875 248.070312 156.785156 247.429688 C 155.652344 246.789062 154.535156 246.113281 153.441406 245.410156 C 152.34375 244.703125 151.269531 243.964844 150.214844 243.195312 C 149.164062 242.425781 148.132812 241.628906 147.128906 240.800781 C 146.121094 239.96875 145.140625 239.113281 144.1875 238.226562 C 143.230469 237.339844 142.300781 236.425781 141.398438 235.484375 C 140.496094 234.542969 139.621094 233.578125 138.777344 232.585938 C 137.929688 231.59375 137.117188 230.578125 136.328125 229.539062 C 135.542969 228.496094 134.789062 227.433594 134.0625 226.351562 C 133.339844 225.265625 132.648438 224.164062 131.988281 223.039062 C 131.328125 221.914062 130.703125 220.769531 130.109375 219.609375 C 129.515625 218.449219 128.960938 217.273438 128.4375 216.078125 C 127.910156 214.882812 127.421875 213.675781 126.96875 212.453125 C 126.515625 211.230469 126.101562 209.996094 125.71875 208.75 C 125.339844 207.503906 124.996094 206.246094 124.6875 204.980469 C 124.378906 203.710938 124.109375 202.4375 123.878906 201.15625 C 123.644531 199.871094 123.449219 198.582031 123.292969 197.289062 C 123.136719 195.996094 123.015625 194.699219 122.933594 193.398438 C 122.855469 192.097656 122.8125 190.792969 122.804688 189.488281 C 122.800781 188.1875 122.832031 186.882812 122.90625 185.582031 C 122.976562 184.28125 123.085938 182.980469 123.230469 181.6875 C 123.378906 180.390625 123.5625 179.101562 123.785156 177.816406 C 124.007812 176.53125 124.269531 175.253906 124.566406 173.984375 C 124.863281 172.71875 125.199219 171.457031 125.570312 170.207031 C 125.941406 168.957031 126.347656 167.71875 126.789062 166.496094 C 127.234375 165.269531 127.714844 164.058594 128.226562 162.859375 C 128.742188 161.660156 129.289062 160.480469 129.875 159.3125 C 130.457031 158.148438 131.074219 157 131.726562 155.871094 C 132.375 154.742188 133.058594 153.632812 133.773438 152.542969 C 134.492188 151.453125 135.238281 150.382812 136.015625 149.339844 C 136.792969 148.292969 137.601562 147.269531 138.441406 146.269531 C 139.277344 145.273438 140.144531 144.300781 141.039062 143.351562 C 141.933594 142.402344 142.855469 141.480469 143.804688 140.589844 C 144.753906 139.695312 145.726562 138.828125 146.726562 137.992188 C 147.726562 137.15625 148.75 136.347656 149.796875 135.570312 C 150.84375 134.792969 151.910156 134.046875 153 133.332031 C 154.089844 132.617188 155.203125 131.9375 156.332031 131.285156 C 157.460938 130.636719 158.609375 130.019531 159.777344 129.4375 C 160.941406 128.855469 162.125 128.308594 163.324219 127.796875 C 164.523438 127.28125 165.734375 126.804688 166.960938 126.363281 C 168.1875 125.917969 169.425781 125.511719 170.675781 125.144531 C 171.925781 124.773438 173.183594 124.441406 174.453125 124.144531 C 175.722656 123.847656 177 123.589844 178.285156 123.367188 C 179.570312 123.148438 180.859375 122.960938 182.15625 122.816406 C 183.453125 122.671875 184.75 122.5625 186.050781 122.492188 C 187.355469 122.421875 188.65625 122.390625 189.960938 122.398438 C 191.261719 122.402344 192.566406 122.449219 193.867188 122.53125 C 195.167969 122.613281 196.464844 122.734375 197.757812 122.890625 C 199.054688 123.050781 200.339844 123.246094 201.625 123.480469 C 202.90625 123.714844 204.179688 123.984375 205.449219 124.292969 C 206.714844 124.601562 207.972656 124.949219 209.21875 125.328125 C 210.464844 125.710938 211.699219 126.128906 212.917969 126.582031 C 214.140625 127.039062 215.347656 127.527344 216.542969 128.050781 C 217.734375 128.578125 218.914062 129.136719 220.074219 129.730469 C 221.234375 130.324219 222.375 130.949219 223.5 131.613281 C 224.625 132.273438 225.726562 132.964844 226.8125 133.691406 C 227.894531 134.414062 228.957031 135.171875 229.996094 135.957031 C 231.035156 136.746094 232.050781 137.5625 233.039062 138.410156 C 234.03125 139.257812 234.996094 140.128906 235.9375 141.035156 C 236.878906 141.9375 237.789062 142.867188 238.675781 143.824219 C 239.5625 144.78125 240.417969 145.761719 241.246094 146.769531 C 242.074219 147.773438 242.875 148.804688 243.640625 149.859375 C 244.410156 150.910156 245.144531 151.988281 245.851562 153.082031 C 246.554688 154.179688 247.226562 155.296875 247.867188 156.433594 C 248.507812 157.566406 249.113281 158.722656 249.6875 159.894531 C 250.257812 161.0625 250.796875 162.25 251.296875 163.453125 C 251.800781 164.65625 252.269531 165.875 252.699219 167.101562 C 253.132812 168.332031 253.527344 169.574219 253.886719 170.828125 C 254.246094 172.082031 254.566406 173.34375 254.851562 174.617188 C 254.914062 174.890625 255.019531 175.144531 255.167969 175.382812 C 255.320312 175.621094 255.503906 175.828125 255.722656 176 C 255.941406 176.175781 256.183594 176.3125 256.449219 176.40625 C 256.710938 176.5 256.984375 176.546875 257.265625 176.546875 L 257.820312 176.546875 C 258.144531 176.476562 258.441406 176.347656 258.710938 176.15625 C 258.984375 175.96875 259.207031 175.734375 259.386719 175.453125 C 259.5625 175.175781 259.679688 174.875 259.738281 174.546875 C 259.792969 174.222656 259.789062 173.898438 259.714844 173.578125 C 259.230469 171.386719 258.640625 169.222656 257.953125 167.089844 C 257.265625 164.953125 256.480469 162.855469 255.59375 160.792969 C 254.707031 158.730469 253.730469 156.714844 252.65625 154.746094 C 251.582031 152.777344 250.417969 150.859375 249.164062 149 C 247.910156 147.136719 246.574219 145.339844 245.152344 143.605469 C 243.730469 141.867188 242.230469 140.203125 240.652344 138.609375 C 239.074219 137.011719 237.425781 135.496094 235.707031 134.054688 C 233.984375 132.613281 232.203125 131.257812 230.355469 129.984375 C 228.507812 128.710938 226.605469 127.527344 224.648438 126.429688 C 222.6875 125.335938 220.683594 124.335938 218.632812 123.425781 C 216.578125 122.519531 214.488281 121.710938 212.363281 121 C 210.234375 120.289062 208.078125 119.675781 205.894531 119.167969 C 203.707031 118.65625 201.503906 118.25 199.28125 117.949219 C 197.058594 117.644531 194.824219 117.445312 192.582031 117.351562 C 190.34375 117.257812 188.101562 117.269531 185.859375 117.386719 C 183.621094 117.5 181.390625 117.722656 179.167969 118.046875 C 176.949219 118.371094 174.75 118.800781 172.570312 119.332031 C 170.390625 119.863281 168.238281 120.496094 166.121094 121.226562 C 164 121.960938 161.917969 122.789062 159.875 123.714844 C 157.832031 124.644531 155.835938 125.664062 153.890625 126.78125 C 151.941406 127.894531 150.050781 129.097656 148.214844 130.390625 C 146.382812 131.679688 144.613281 133.054688 142.90625 134.511719 C 141.199219 135.96875 139.566406 137.503906 138.003906 139.113281 C 136.441406 140.726562 134.957031 142.40625 133.554688 144.15625 C 132.148438 145.902344 130.828125 147.714844 129.59375 149.589844 C 128.359375 151.460938 127.214844 153.386719 126.160156 155.367188 C 125.105469 157.347656 124.148438 159.375 123.28125 161.445312 C 122.417969 163.515625 121.652344 165.621094 120.984375 167.761719 C 120.316406 169.90625 119.75 172.074219 119.285156 174.269531 C 118.820312 176.464844 118.460938 178.675781 118.203125 180.90625 C 117.949219 183.132812 117.796875 185.371094 117.746094 187.613281 C 117.699219 189.855469 117.757812 192.097656 117.921875 194.332031 C 118.082031 196.570312 118.347656 198.796875 118.71875 201.007812 C 119.089844 203.222656 119.566406 205.414062 120.140625 207.582031 C 120.714844 209.75 121.394531 211.886719 122.167969 213.992188 C 122.945312 216.097656 123.816406 218.160156 124.789062 220.183594 C 125.757812 222.207031 126.820312 224.179688 127.972656 226.105469 C 129.128906 228.027344 130.371094 229.894531 131.699219 231.699219 C 133.03125 233.507812 134.441406 235.25 135.933594 236.925781 C 137.425781 238.601562 138.992188 240.203125 140.636719 241.730469 C 142.277344 243.257812 143.988281 244.707031 145.765625 246.074219 C 147.542969 247.441406 149.382812 248.726562 151.28125 249.921875 C 153.179688 251.117188 155.128906 252.222656 157.132812 253.234375 C 159.132812 254.246094 161.175781 255.164062 163.265625 255.988281 C 165.351562 256.808594 167.472656 257.53125 169.628906 258.152344 C 171.785156 258.777344 173.964844 259.296875 176.167969 259.714844 C 178.375 260.132812 180.59375 260.449219 182.824219 260.660156 C 185.058594 260.871094 187.296875 260.976562 189.542969 260.976562 C 191.238281 260.972656 192.933594 260.910156 194.625 260.785156 C 196.316406 260.660156 198 260.476562 199.679688 260.234375 C 201.359375 259.992188 203.027344 259.6875 204.683594 259.328125 C 206.339844 258.96875 207.984375 258.550781 209.609375 258.074219 C 211.238281 257.597656 212.847656 257.066406 214.4375 256.476562 C 216.027344 255.886719 217.59375 255.238281 219.140625 254.539062 C 220.683594 253.839844 222.203125 253.085938 223.695312 252.277344 C 225.1875 251.472656 226.648438 250.613281 228.078125 249.703125 C 229.511719 248.792969 230.90625 247.832031 232.269531 246.824219 C 233.636719 245.816406 234.960938 244.757812 236.25 243.65625 C 237.539062 242.554688 238.789062 241.410156 239.996094 240.21875 C 241.203125 239.027344 242.371094 237.796875 243.492188 236.523438 C 244.613281 235.25 245.6875 233.941406 246.714844 232.59375 C 247.746094 231.246094 248.726562 229.863281 249.65625 228.445312 C 250.589844 227.027344 251.46875 225.578125 252.300781 224.097656 C 253.128906 222.621094 253.90625 221.113281 254.628906 219.578125 C 254.710938 219.894531 254.808594 220.203125 254.925781 220.507812 C 255.113281 220.976562 255.417969 221.355469 255.839844 221.640625 C 256.257812 221.921875 256.722656 222.066406 257.226562 222.066406 C 257.546875 222.058594 257.855469 221.996094 258.15625 221.882812 C 258.460938 221.753906 258.730469 221.574219 258.964844 221.339844 C 259.199219 221.101562 259.378906 220.832031 259.503906 220.527344 C 259.628906 220.21875 259.691406 219.898438 259.6875 219.570312 C 259.6875 219.238281 259.621094 218.917969 259.492188 218.613281 Z M 259.492188 218.613281 " fill-opacity="1" fill-rule="nonzero"/><path fill="#d81b1b" d="M 161.882812 165 C 162.113281 165.230469 162.378906 165.410156 162.683594 165.535156 C 162.984375 165.660156 163.300781 165.722656 163.625 165.722656 C 163.953125 165.722656 164.269531 165.660156 164.570312 165.535156 C 164.875 165.410156 165.140625 165.234375 165.371094 165 C 165.605469 164.769531 165.78125 164.503906 165.90625 164.199219 C 166.03125 163.898438 166.09375 163.582031 166.09375 163.253906 C 166.09375 162.929688 166.03125 162.613281 165.90625 162.3125 C 165.78125 162.007812 165.601562 161.742188 165.371094 161.511719 L 156.347656 152.488281 C 156.121094 152.25 155.855469 152.066406 155.554688 151.9375 C 155.25 151.804688 154.933594 151.742188 154.605469 151.742188 C 154.273438 151.742188 153.957031 151.804688 153.65625 151.9375 C 153.351562 152.066406 153.085938 152.25 152.859375 152.488281 C 152.621094 152.714844 152.4375 152.980469 152.308594 153.285156 C 152.175781 153.585938 152.113281 153.902344 152.113281 154.234375 C 152.113281 154.5625 152.175781 154.878906 152.308594 155.179688 C 152.4375 155.484375 152.621094 155.75 152.859375 155.976562 Z M 161.882812 165 " fill-opacity="1" fill-rule="nonzero"/><path fill="#d81b1b" d="M 215.421875 165.59375 C 216.117188 165.589844 216.710938 165.339844 217.203125 164.851562 L 226.226562 155.828125 C 226.457031 155.597656 226.640625 155.332031 226.765625 155.03125 C 226.890625 154.726562 226.957031 154.414062 226.957031 154.085938 C 226.957031 153.757812 226.890625 153.441406 226.765625 153.136719 C 226.640625 152.835938 226.457031 152.570312 226.226562 152.339844 C 225.738281 151.832031 225.144531 151.585938 224.441406 151.597656 C 223.75 151.585938 223.171875 151.832031 222.699219 152.339844 L 213.675781 161.511719 C 213.375 161.867188 213.1875 162.28125 213.117188 162.746094 C 213.050781 163.210938 213.105469 163.65625 213.292969 164.089844 C 213.476562 164.519531 213.761719 164.871094 214.144531 165.144531 C 214.527344 165.414062 214.953125 165.5625 215.421875 165.59375 Z M 215.421875 165.59375 " fill-opacity="1" fill-rule="nonzero"/><path fill="#d81b1b" d="M 217.203125 213.304688 C 216.710938 212.816406 216.117188 212.566406 215.421875 212.5625 C 214.738281 212.570312 214.15625 212.816406 213.675781 213.304688 C 213.445312 213.539062 213.269531 213.8125 213.144531 214.117188 C 213.019531 214.421875 212.957031 214.738281 212.957031 215.066406 C 212.957031 215.398438 213.019531 215.714844 213.144531 216.019531 C 213.269531 216.324219 213.445312 216.597656 213.675781 216.832031 L 222.699219 225.855469 C 223.183594 226.332031 223.761719 226.566406 224.441406 226.558594 C 224.945312 226.5625 225.40625 226.421875 225.824219 226.148438 C 226.242188 225.871094 226.550781 225.5 226.746094 225.039062 C 226.941406 224.574219 226.988281 224.097656 226.894531 223.601562 C 226.800781 223.109375 226.578125 222.683594 226.226562 222.328125 Z M 217.203125 213.304688 " fill-opacity="1" fill-rule="nonzero"/><path fill="#d81b1b" d="M 163.625 212.5625 C 162.941406 212.570312 162.359375 212.816406 161.882812 213.304688 L 152.859375 222.328125 C 152.652344 222.5625 152.496094 222.828125 152.390625 223.125 C 152.285156 223.421875 152.238281 223.726562 152.246094 224.039062 C 152.257812 224.355469 152.324219 224.65625 152.445312 224.945312 C 152.570312 225.234375 152.742188 225.488281 152.964844 225.710938 C 153.183594 225.9375 153.441406 226.109375 153.726562 226.238281 C 154.015625 226.367188 154.316406 226.433594 154.628906 226.449219 C 154.941406 226.460938 155.25 226.417969 155.546875 226.3125 C 155.84375 226.210938 156.109375 226.058594 156.347656 225.855469 L 165.371094 216.832031 C 165.601562 216.597656 165.777344 216.324219 165.902344 216.019531 C 166.027344 215.714844 166.089844 215.398438 166.089844 215.066406 C 166.089844 214.738281 166.027344 214.421875 165.902344 214.117188 C 165.777344 213.8125 165.601562 213.539062 165.371094 213.304688 C 164.890625 212.816406 164.308594 212.570312 163.625 212.5625 Z M 163.625 212.5625 " fill-opacity="1" fill-rule="nonzero"/><path fill="#d81b1b" d="M 239.664062 189.171875 C 239.664062 188.839844 239.601562 188.523438 239.476562 188.21875 C 239.351562 187.914062 239.171875 187.644531 238.9375 187.410156 C 238.703125 187.179688 238.433594 187 238.128906 186.871094 C 237.824219 186.746094 237.507812 186.683594 237.179688 186.683594 L 224.480469 186.683594 L 229.085938 176.734375 L 235.394531 174.503906 C 235.671875 174.40625 235.917969 174.261719 236.144531 174.078125 C 236.367188 173.890625 236.550781 173.671875 236.699219 173.417969 C 236.84375 173.167969 236.945312 172.898438 236.996094 172.613281 C 237.050781 172.324219 237.050781 172.039062 237.003906 171.75 C 236.953125 171.464844 236.859375 171.191406 236.714844 170.9375 C 236.570312 170.6875 236.386719 170.464844 236.167969 170.273438 C 235.945312 170.085938 235.699219 169.941406 235.425781 169.835938 C 235.152344 169.734375 234.871094 169.679688 234.578125 169.679688 C 234.308594 169.625 234.035156 169.625 233.761719 169.679688 L 226.335938 172.238281 C 225.699219 172.492188 225.230469 172.925781 224.925781 173.539062 L 218.761719 186.609375 L 212.265625 186.609375 L 215.273438 179.777344 C 215.402344 179.476562 215.472656 179.164062 215.480469 178.835938 C 215.488281 178.507812 215.433594 178.191406 215.3125 177.882812 C 215.195312 177.578125 215.023438 177.304688 214.796875 177.066406 C 214.570312 176.828125 214.308594 176.644531 214.011719 176.511719 C 213.691406 176.363281 213.359375 176.289062 213.007812 176.289062 C 212.511719 176.292969 212.058594 176.429688 211.640625 176.695312 C 211.226562 176.964844 210.914062 177.324219 210.707031 177.773438 L 206.992188 186.609375 L 199.863281 186.609375 C 199.628906 185.65625 199.269531 184.753906 198.785156 183.902344 C 198.300781 183.050781 197.707031 182.28125 197.011719 181.59375 C 196.3125 180.90625 195.535156 180.324219 194.675781 179.851562 C 193.816406 179.378906 192.910156 179.035156 191.957031 178.8125 L 191.957031 171.832031 L 200.792969 168.117188 C 201.089844 167.984375 201.355469 167.796875 201.582031 167.5625 C 201.808594 167.324219 201.984375 167.054688 202.105469 166.75 C 202.226562 166.445312 202.285156 166.128906 202.28125 165.796875 C 202.28125 165.46875 202.21875 165.15625 202.089844 164.851562 C 201.894531 164.394531 201.585938 164.027344 201.167969 163.757812 C 200.746094 163.488281 200.289062 163.355469 199.789062 163.367188 C 199.441406 163.355469 199.109375 163.417969 198.789062 163.550781 L 191.957031 166.410156 L 191.957031 159.691406 L 205.023438 153.527344 C 205.660156 153.246094 206.09375 152.773438 206.324219 152.117188 L 208.886719 144.691406 C 209 144.382812 209.046875 144.066406 209.035156 143.738281 C 209.019531 143.410156 208.941406 143.097656 208.804688 142.800781 C 208.664062 142.503906 208.472656 142.246094 208.230469 142.027344 C 207.984375 141.808594 207.710938 141.644531 207.402344 141.535156 C 207.117188 141.480469 206.832031 141.480469 206.546875 141.535156 C 206.019531 141.535156 205.542969 141.691406 205.113281 141.996094 C 204.683594 142.304688 204.382812 142.707031 204.207031 143.207031 L 201.980469 149.515625 L 191.957031 154.195312 L 191.957031 141.496094 C 191.960938 141.167969 191.902344 140.851562 191.78125 140.546875 C 191.65625 140.242188 191.480469 139.972656 191.25 139.742188 C 191.019531 139.507812 190.753906 139.328125 190.453125 139.199219 C 190.148438 139.074219 189.832031 139.011719 189.503906 139.011719 C 189.175781 139.011719 188.859375 139.074219 188.554688 139.199219 C 188.25 139.324219 187.980469 139.503906 187.746094 139.738281 C 187.511719 139.972656 187.332031 140.242188 187.207031 140.546875 C 187.082031 140.851562 187.015625 141.167969 187.015625 141.496094 L 187.015625 154.195312 L 177.105469 149.480469 L 174.800781 143.316406 C 174.628906 142.820312 174.328125 142.414062 173.898438 142.109375 C 173.46875 141.800781 172.992188 141.648438 172.460938 141.644531 C 172.191406 141.589844 171.917969 141.589844 171.644531 141.644531 C 171.332031 141.75 171.054688 141.914062 170.804688 142.132812 C 170.558594 142.347656 170.363281 142.605469 170.222656 142.902344 C 170.078125 143.199219 169.996094 143.515625 169.980469 143.84375 C 169.964844 144.171875 170.011719 144.492188 170.125 144.800781 L 172.6875 152.226562 C 172.929688 152.871094 173.363281 153.34375 173.984375 153.636719 L 187.054688 159.800781 L 187.054688 166.523438 L 180.222656 163.515625 C 179.917969 163.390625 179.605469 163.324219 179.277344 163.324219 C 178.945312 163.320312 178.628906 163.382812 178.324219 163.503906 C 178.019531 163.625 177.75 163.796875 177.511719 164.023438 C 177.277344 164.25 177.089844 164.515625 176.957031 164.8125 C 176.824219 165.113281 176.753906 165.429688 176.746094 165.757812 C 176.742188 166.085938 176.796875 166.402344 176.914062 166.707031 C 177.03125 167.015625 177.203125 167.285156 177.429688 167.523438 C 177.65625 167.761719 177.917969 167.949219 178.21875 168.082031 L 187.054688 171.792969 L 187.054688 178.773438 C 186.097656 179.003906 185.191406 179.355469 184.332031 179.835938 C 183.476562 180.3125 182.699219 180.902344 182.003906 181.597656 C 181.308594 182.292969 180.722656 183.066406 180.242188 183.925781 C 179.765625 184.78125 179.410156 185.691406 179.183594 186.644531 L 172.203125 186.644531 L 168.488281 177.808594 C 168.285156 177.355469 167.976562 176.996094 167.558594 176.726562 C 167.140625 176.457031 166.683594 176.324219 166.1875 176.324219 C 165.847656 176.324219 165.527344 176.398438 165.222656 176.546875 C 164.917969 176.671875 164.648438 176.855469 164.414062 177.089844 C 164.183594 177.328125 164.003906 177.597656 163.882812 177.90625 C 163.757812 178.214844 163.703125 178.53125 163.710938 178.863281 C 163.714844 179.195312 163.789062 179.511719 163.921875 179.8125 L 166.929688 186.644531 L 160.0625 186.644531 L 153.898438 173.613281 C 153.601562 172.992188 153.132812 172.558594 152.488281 172.3125 L 145.0625 169.753906 C 144.777344 169.699219 144.492188 169.699219 144.207031 169.753906 C 143.6875 169.867188 143.253906 170.125 142.898438 170.519531 C 142.542969 170.914062 142.335938 171.378906 142.277344 171.90625 C 142.21875 172.433594 142.316406 172.929688 142.578125 173.394531 C 142.835938 173.859375 143.207031 174.203125 143.6875 174.429688 L 150 176.660156 L 154.714844 186.683594 L 141.867188 186.683594 C 141.539062 186.683594 141.222656 186.746094 140.917969 186.871094 C 140.613281 187 140.34375 187.179688 140.109375 187.410156 C 139.875 187.644531 139.695312 187.914062 139.570312 188.21875 C 139.445312 188.523438 139.382812 188.839844 139.382812 189.171875 C 139.382812 189.5 139.445312 189.8125 139.570312 190.117188 C 139.699219 190.421875 139.878906 190.6875 140.113281 190.917969 C 140.347656 191.148438 140.613281 191.324219 140.917969 191.445312 C 141.222656 191.566406 141.539062 191.625 141.867188 191.621094 L 154.566406 191.621094 L 149.851562 201.644531 L 143.539062 203.875 C 143.265625 203.972656 143.015625 204.117188 142.792969 204.300781 C 142.570312 204.488281 142.382812 204.707031 142.238281 204.960938 C 142.089844 205.210938 141.992188 205.480469 141.9375 205.765625 C 141.886719 206.054688 141.882812 206.339844 141.933594 206.628906 C 141.980469 206.914062 142.078125 207.1875 142.222656 207.4375 C 142.363281 207.691406 142.546875 207.914062 142.769531 208.105469 C 142.992188 208.292969 143.238281 208.4375 143.511719 208.542969 C 143.78125 208.644531 144.066406 208.695312 144.355469 208.699219 C 144.628906 208.757812 144.902344 208.757812 145.171875 208.699219 L 152.597656 206.136719 C 153.257812 205.910156 153.726562 205.476562 154.011719 204.839844 L 160.0625 191.585938 L 166.78125 191.585938 L 163.773438 198.414062 C 163.644531 198.722656 163.574219 199.039062 163.570312 199.371094 C 163.566406 199.703125 163.625 200.027344 163.746094 200.335938 C 163.867188 200.644531 164.042969 200.917969 164.273438 201.160156 C 164.503906 201.398438 164.769531 201.585938 165.074219 201.71875 C 165.386719 201.839844 165.707031 201.902344 166.039062 201.90625 C 166.535156 201.90625 166.992188 201.773438 167.410156 201.503906 C 167.828125 201.234375 168.136719 200.871094 168.339844 200.421875 L 172.054688 191.585938 L 179.035156 191.585938 C 179.261719 192.539062 179.617188 193.445312 180.09375 194.304688 C 180.574219 195.164062 181.160156 195.9375 181.855469 196.632812 C 182.550781 197.328125 183.328125 197.914062 184.183594 198.394531 C 185.042969 198.875 185.949219 199.226562 186.90625 199.457031 L 186.90625 206.4375 L 178.070312 210.148438 C 177.765625 210.28125 177.5 210.46875 177.269531 210.710938 C 177.039062 210.953125 176.867188 211.226562 176.75 211.539062 C 176.628906 211.847656 176.574219 212.167969 176.585938 212.5 C 176.597656 212.832031 176.667969 213.148438 176.808594 213.453125 C 176.9375 213.753906 177.121094 214.019531 177.359375 214.25 C 177.59375 214.480469 177.867188 214.652344 178.175781 214.769531 C 178.484375 214.890625 178.800781 214.945312 179.128906 214.933594 C 179.460938 214.925781 179.773438 214.851562 180.074219 214.714844 L 186.90625 211.707031 L 186.90625 218.429688 L 173.835938 224.589844 C 173.214844 224.886719 172.78125 225.355469 172.535156 226.003906 L 169.976562 233.429688 C 169.863281 233.738281 169.816406 234.058594 169.832031 234.386719 C 169.847656 234.714844 169.929688 235.03125 170.074219 235.328125 C 170.214844 235.625 170.410156 235.882812 170.65625 236.097656 C 170.90625 236.316406 171.183594 236.480469 171.496094 236.585938 C 171.769531 236.640625 172.042969 236.640625 172.3125 236.585938 C 172.84375 236.582031 173.320312 236.425781 173.75 236.121094 C 174.179688 235.8125 174.480469 235.410156 174.652344 234.914062 L 177.105469 228.710938 L 187.128906 223.996094 L 187.128906 236.695312 C 187.128906 237.027344 187.191406 237.34375 187.316406 237.648438 C 187.445312 237.953125 187.625 238.222656 187.855469 238.453125 C 188.089844 238.6875 188.359375 238.867188 188.664062 238.992188 C 188.96875 239.121094 189.285156 239.183594 189.617188 239.183594 C 189.945312 239.183594 190.261719 239.121094 190.5625 238.992188 C 190.867188 238.867188 191.132812 238.6875 191.363281 238.453125 C 191.59375 238.21875 191.769531 237.949219 191.890625 237.644531 C 192.011719 237.339844 192.070312 237.023438 192.066406 236.695312 L 192.066406 224.109375 L 202.015625 228.710938 L 204.246094 235.023438 C 204.417969 235.523438 204.71875 235.925781 205.148438 236.230469 C 205.578125 236.539062 206.054688 236.691406 206.585938 236.695312 C 206.867188 236.75 207.152344 236.75 207.4375 236.695312 C 207.746094 236.585938 208.023438 236.421875 208.265625 236.203125 C 208.507812 235.984375 208.699219 235.722656 208.839844 235.429688 C 208.980469 235.132812 209.058594 234.820312 209.070312 234.492188 C 209.085938 234.164062 209.035156 233.847656 208.921875 233.539062 L 206.363281 226.113281 C 206.132812 225.457031 205.699219 224.984375 205.0625 224.703125 L 191.957031 218.613281 L 191.957031 211.894531 L 198.789062 214.902344 C 199.105469 215.046875 199.441406 215.121094 199.789062 215.125 C 200.285156 215.125 200.742188 214.988281 201.160156 214.71875 C 201.578125 214.453125 201.886719 214.089844 202.089844 213.636719 C 202.21875 213.332031 202.28125 213.015625 202.285156 212.683594 C 202.289062 212.351562 202.226562 212.03125 202.105469 211.726562 C 201.984375 211.417969 201.8125 211.140625 201.585938 210.902344 C 201.355469 210.660156 201.09375 210.472656 200.792969 210.335938 L 191.957031 206.4375 L 191.957031 199.492188 C 192.917969 199.265625 193.828125 198.914062 194.691406 198.433594 C 195.554688 197.953125 196.335938 197.363281 197.035156 196.664062 C 197.734375 195.964844 198.324219 195.183594 198.804688 194.320312 C 199.285156 193.457031 199.636719 192.546875 199.863281 191.585938 L 206.808594 191.585938 L 210.519531 200.421875 C 210.714844 200.875 211.015625 201.234375 211.429688 201.503906 C 211.839844 201.773438 212.292969 201.910156 212.785156 201.90625 C 213.128906 201.898438 213.464844 201.835938 213.789062 201.71875 C 214.085938 201.582031 214.351562 201.394531 214.578125 201.152344 C 214.804688 200.910156 214.976562 200.636719 215.09375 200.324219 C 215.210938 200.015625 215.265625 199.699219 215.257812 199.367188 C 215.25 199.035156 215.183594 198.71875 215.050781 198.414062 L 212.265625 191.585938 L 218.984375 191.585938 L 225.148438 204.652344 C 225.441406 205.28125 225.910156 205.714844 226.558594 205.953125 L 233.984375 208.515625 C 234.257812 208.570312 234.53125 208.570312 234.800781 208.515625 C 235.324219 208.515625 235.800781 208.367188 236.230469 208.066406 C 236.65625 207.765625 236.960938 207.371094 237.140625 206.882812 C 237.25 206.570312 237.292969 206.246094 237.273438 205.917969 C 237.253906 205.585938 237.175781 205.273438 237.03125 204.972656 C 236.890625 204.675781 236.695312 204.414062 236.453125 204.191406 C 236.207031 203.96875 235.929688 203.800781 235.617188 203.6875 L 229.308594 201.460938 L 224.480469 191.585938 L 237.179688 191.585938 C 237.503906 191.589844 237.816406 191.53125 238.117188 191.410156 C 238.421875 191.292969 238.6875 191.117188 238.921875 190.894531 C 239.15625 190.667969 239.335938 190.402344 239.464844 190.105469 C 239.59375 189.808594 239.660156 189.496094 239.664062 189.171875 Z M 195.113281 189.171875 C 195.113281 189.546875 195.074219 189.917969 195 190.289062 C 194.925781 190.65625 194.820312 191.015625 194.675781 191.363281 C 194.53125 191.710938 194.355469 192.039062 194.144531 192.351562 C 193.9375 192.664062 193.699219 192.953125 193.433594 193.21875 C 193.167969 193.484375 192.875 193.722656 192.5625 193.929688 C 192.25 194.136719 191.921875 194.3125 191.574219 194.457031 C 191.226562 194.601562 190.867188 194.707031 190.5 194.78125 C 190.128906 194.851562 189.757812 194.890625 189.382812 194.886719 C 189.003906 194.886719 188.632812 194.851562 188.265625 194.777344 C 187.894531 194.703125 187.539062 194.59375 187.191406 194.449219 C 186.84375 194.300781 186.515625 194.125 186.203125 193.914062 C 185.890625 193.707031 185.601562 193.46875 185.335938 193.199219 C 185.074219 192.933594 184.835938 192.644531 184.628906 192.332031 C 184.421875 192.015625 184.246094 191.6875 184.101562 191.339844 C 183.960938 190.992188 183.851562 190.632812 183.78125 190.261719 C 183.710938 189.894531 183.675781 189.523438 183.675781 189.144531 C 183.675781 188.769531 183.714844 188.398438 183.789062 188.03125 C 183.867188 187.660156 183.976562 187.304688 184.121094 186.957031 C 184.265625 186.609375 184.445312 186.28125 184.65625 185.96875 C 184.867188 185.65625 185.105469 185.371094 185.371094 185.105469 C 185.640625 184.839844 185.929688 184.605469 186.242188 184.398438 C 186.558594 184.191406 186.890625 184.015625 187.238281 183.875 C 187.585938 183.734375 187.945312 183.625 188.3125 183.554688 C 188.683594 183.484375 189.054688 183.449219 189.429688 183.453125 C 189.808594 183.449219 190.183594 183.480469 190.558594 183.550781 C 190.929688 183.621094 191.289062 183.726562 191.640625 183.867188 C 191.992188 184.007812 192.328125 184.183594 192.644531 184.390625 C 192.960938 184.597656 193.253906 184.835938 193.523438 185.101562 C 193.792969 185.367188 194.03125 185.65625 194.242188 185.972656 C 194.457031 186.285156 194.632812 186.617188 194.78125 186.964844 C 194.925781 187.316406 195.035156 187.675781 195.109375 188.046875 C 195.1875 188.417969 195.222656 188.792969 195.222656 189.171875 Z M 195.113281 189.171875 " fill-opacity="1" fill-rule="nonzero"/></svg>