<svg xmlns="http://www.w3.org/2000/svg" xmlns:xlink="http://www.w3.org/1999/xlink" width="500" zoomAndPan="magnify" viewBox="0 0 375 374.999991" height="500" preserveAspectRatio="xMidYMid meet" version="1.0"><defs><clipPath id="510d85c519"><path d="M 0 23.164062 L 375 23.164062 L 375 351.664062 L 0 351.664062 Z M 0 23.164062 " clip-rule="nonzero"/></clipPath><clipPath id="871541d10a"><path d="M 112.5 112.5 L 262.5 112.5 L 262.5 262.5 L 112.5 262.5 Z M 112.5 112.5 " clip-rule="nonzero"/></clipPath></defs><g clip-path="url(#510d85c519)"><path fill="#000000" d="M 280.683594 23.164062 L 94.316406 23.164062 L 0.00390625 187.414062 L 94.316406 351.664062 L 280.683594 351.664062 L 374.996094 187.414062 L 280.683594 23.164062 M 275.550781 342.765625 L 99.449219 342.765625 L 10.265625 187.414062 L 99.449219 32.0625 L 275.550781 32.0625 L 364.734375 187.414062 L 275.550781 342.765625 " fill-opacity="1" fill-rule="nonzero"/></g><g clip-path="url(#871541d10a)"><path fill="#d81b1b" d="M 187.5 112.5 C 186.273438 112.5 185.046875 112.53125 183.820312 112.589844 C 182.59375 112.652344 181.371094 112.742188 180.148438 112.859375 C 178.925781 112.980469 177.710938 113.132812 176.496094 113.3125 C 175.28125 113.492188 174.070312 113.703125 172.867188 113.941406 C 171.664062 114.179688 170.46875 114.449219 169.277344 114.746094 C 168.085938 115.046875 166.902344 115.375 165.730469 115.730469 C 164.554688 116.085938 163.390625 116.46875 162.234375 116.882812 C 161.078125 117.296875 159.933594 117.738281 158.796875 118.210938 C 157.664062 118.679688 156.542969 119.175781 155.433594 119.699219 C 154.324219 120.226562 153.226562 120.777344 152.144531 121.355469 C 151.0625 121.933594 149.996094 122.539062 148.941406 123.171875 C 147.890625 123.800781 146.851562 124.457031 145.832031 125.140625 C 144.8125 125.820312 143.808594 126.527344 142.824219 127.257812 C 141.835938 127.992188 140.871094 128.746094 139.921875 129.523438 C 138.972656 130.304688 138.042969 131.105469 137.132812 131.929688 C 136.222656 132.753906 135.335938 133.597656 134.46875 134.46875 C 133.597656 135.335938 132.753906 136.222656 131.929688 137.132812 C 131.105469 138.042969 130.304688 138.972656 129.523438 139.921875 C 128.746094 140.871094 127.992188 141.835938 127.257812 142.824219 C 126.527344 143.808594 125.820312 144.8125 125.140625 145.832031 C 124.457031 146.851562 123.800781 147.890625 123.171875 148.941406 C 122.539062 149.996094 121.933594 151.0625 121.355469 152.144531 C 120.777344 153.226562 120.226562 154.324219 119.699219 155.433594 C 119.175781 156.542969 118.679688 157.664062 118.210938 158.796875 C 117.738281 159.933594 117.296875 161.078125 116.882812 162.234375 C 116.46875 163.390625 116.085938 164.554688 115.730469 165.730469 C 115.375 166.902344 115.046875 168.085938 114.746094 169.277344 C 114.449219 170.46875 114.179688 171.664062 113.941406 172.867188 C 113.703125 174.070312 113.492188 175.28125 113.3125 176.496094 C 113.132812 177.710938 112.980469 178.925781 112.859375 180.148438 C 112.742188 181.371094 112.652344 182.59375 112.589844 183.820312 C 112.53125 185.046875 112.5 186.273438 112.5 187.5 C 112.5 188.726562 112.53125 189.953125 112.589844 191.179688 C 112.652344 192.40625 112.742188 193.628906 112.859375 194.851562 C 112.980469 196.074219 113.132812 197.289062 113.3125 198.503906 C 113.492188 199.71875 113.703125 200.929688 113.941406 202.132812 C 114.179688 203.335938 114.449219 204.53125 114.746094 205.722656 C 115.046875 206.914062 115.375 208.097656 115.730469 209.269531 C 116.085938 210.445312 116.46875 211.609375 116.882812 212.765625 C 117.296875 213.921875 117.738281 215.066406 118.210938 216.203125 C 118.679688 217.335938 119.175781 218.457031 119.699219 219.566406 C 120.226562 220.675781 120.777344 221.773438 121.355469 222.855469 C 121.933594 223.9375 122.539062 225.003906 123.171875 226.058594 C 123.800781 227.109375 124.457031 228.148438 125.140625 229.167969 C 125.820312 230.1875 126.527344 231.191406 127.257812 232.175781 C 127.992188 233.164062 128.746094 234.128906 129.523438 235.078125 C 130.304688 236.027344 131.105469 236.957031 131.929688 237.867188 C 132.753906 238.777344 133.597656 239.664062 134.46875 240.53125 C 135.335938 241.402344 136.222656 242.246094 137.132812 243.070312 C 138.042969 243.894531 138.972656 244.695312 139.921875 245.476562 C 140.871094 246.253906 141.835938 247.007812 142.824219 247.742188 C 143.808594 248.472656 144.8125 249.179688 145.832031 249.859375 C 146.851562 250.542969 147.890625 251.199219 148.941406 251.828125 C 149.996094 252.460938 151.0625 253.066406 152.144531 253.644531 C 153.226562 254.222656 154.324219 254.773438 155.433594 255.300781 C 156.542969 255.824219 157.664062 256.320312 158.796875 256.789062 C 159.933594 257.261719 161.078125 257.703125 162.234375 258.117188 C 163.390625 258.527344 164.554688 258.914062 165.730469 259.269531 C 166.902344 259.625 168.085938 259.953125 169.277344 260.253906 C 170.46875 260.550781 171.664062 260.820312 172.867188 261.058594 C 174.070312 261.296875 175.28125 261.507812 176.496094 261.6875 C 177.710938 261.867188 178.925781 262.019531 180.148438 262.140625 C 181.371094 262.257812 182.59375 262.347656 183.820312 262.410156 C 185.046875 262.46875 186.273438 262.5 187.5 262.5 C 188.726562 262.5 189.953125 262.46875 191.179688 262.410156 C 192.40625 262.347656 193.628906 262.257812 194.851562 262.140625 C 196.074219 262.019531 197.289062 261.867188 198.503906 261.6875 C 199.71875 261.507812 200.929688 261.296875 202.132812 261.058594 C 203.335938 260.820312 204.53125 260.550781 205.722656 260.253906 C 206.914062 259.953125 208.097656 259.625 209.269531 259.269531 C 210.445312 258.914062 211.609375 258.527344 212.765625 258.117188 C 213.921875 257.703125 215.066406 257.261719 216.203125 256.789062 C 217.335938 256.320312 218.457031 255.824219 219.566406 255.300781 C 220.675781 254.773438 221.773438 254.222656 222.855469 253.644531 C 223.9375 253.066406 225.003906 252.460938 226.058594 251.828125 C 227.109375 251.199219 228.148438 250.542969 229.167969 249.859375 C 230.1875 249.179688 231.191406 248.472656 232.175781 247.742188 C 233.164062 247.007812 234.128906 246.253906 235.078125 245.476562 C 236.027344 244.695312 236.957031 243.894531 237.867188 243.070312 C 238.777344 242.246094 239.664062 241.402344 240.53125 240.53125 C 241.402344 239.664062 242.246094 238.777344 243.070312 237.867188 C 243.894531 236.957031 244.695312 236.027344 245.476562 235.078125 C 246.253906 234.128906 247.007812 233.164062 247.742188 232.175781 C 248.472656 231.191406 249.179688 230.1875 249.859375 229.167969 C 250.542969 228.148438 251.199219 227.109375 251.828125 226.058594 C 252.460938 225.003906 253.066406 223.9375 253.644531 222.855469 C 254.222656 221.773438 254.773438 220.675781 255.300781 219.566406 C 255.824219 218.457031 256.320312 217.335938 256.789062 216.203125 C 257.261719 215.066406 257.703125 213.921875 258.117188 212.765625 C 258.53125 211.609375 258.914062 210.445312 259.269531 209.269531 C 259.625 208.097656 259.953125 206.914062 260.253906 205.722656 C 260.550781 204.53125 260.820312 203.335938 261.058594 202.132812 C 261.296875 200.929688 261.507812 199.71875 261.6875 198.503906 C 261.867188 197.289062 262.019531 196.074219 262.140625 194.851562 C 262.257812 193.628906 262.347656 192.40625 262.410156 191.179688 C 262.46875 189.953125 262.5 188.726562 262.5 187.5 C 262.5 186.273438 262.46875 185.046875 262.40625 183.820312 C 262.34375 182.59375 262.253906 181.371094 262.132812 180.152344 C 262.011719 178.929688 261.859375 177.714844 261.675781 176.5 C 261.496094 175.285156 261.285156 174.078125 261.046875 172.875 C 260.804688 171.671875 260.535156 170.472656 260.234375 169.285156 C 259.9375 168.09375 259.609375 166.910156 259.253906 165.738281 C 258.894531 164.5625 258.507812 163.398438 258.09375 162.246094 C 257.679688 161.089844 257.238281 159.945312 256.769531 158.8125 C 256.296875 157.679688 255.800781 156.558594 255.277344 155.449219 C 254.75 154.339844 254.199219 153.242188 253.621094 152.160156 C 253.039062 151.078125 252.4375 150.011719 251.804688 148.960938 C 251.171875 147.90625 250.515625 146.871094 249.835938 145.851562 C 249.152344 144.832031 248.445312 143.828125 247.714844 142.84375 C 246.984375 141.859375 246.230469 140.890625 245.449219 139.941406 C 244.671875 138.996094 243.871094 138.066406 243.046875 137.15625 C 242.222656 136.246094 241.375 135.359375 240.507812 134.492188 C 239.640625 133.625 238.753906 132.777344 237.84375 131.953125 C 236.933594 131.128906 236.003906 130.328125 235.058594 129.550781 C 234.109375 128.769531 233.140625 128.015625 232.15625 127.285156 C 231.171875 126.554688 230.167969 125.847656 229.148438 125.164062 C 228.128906 124.484375 227.09375 123.828125 226.039062 123.195312 C 224.988281 122.5625 223.921875 121.960938 222.839844 121.378906 C 221.757812 120.800781 220.660156 120.25 219.550781 119.722656 C 218.441406 119.199219 217.320312 118.703125 216.1875 118.230469 C 215.054688 117.761719 213.910156 117.320312 212.753906 116.90625 C 211.601562 116.492188 210.4375 116.105469 209.261719 115.746094 C 208.089844 115.390625 206.90625 115.0625 205.714844 114.765625 C 204.527344 114.464844 203.328125 114.195312 202.125 113.953125 C 200.921875 113.714844 199.714844 113.503906 198.5 113.324219 C 197.285156 113.140625 196.070312 112.988281 194.847656 112.867188 C 193.628906 112.746094 192.40625 112.65625 191.179688 112.59375 C 189.953125 112.53125 188.726562 112.5 187.5 112.5 Z M 187.5 257.328125 C 186.355469 257.328125 185.214844 257.300781 184.074219 257.242188 C 182.933594 257.1875 181.792969 257.101562 180.65625 256.992188 C 179.519531 256.878906 178.382812 256.738281 177.253906 256.570312 C 176.125 256.402344 175 256.207031 173.878906 255.984375 C 172.757812 255.761719 171.640625 255.511719 170.535156 255.234375 C 169.425781 254.957031 168.324219 254.652344 167.230469 254.320312 C 166.136719 253.988281 165.050781 253.628906 163.976562 253.246094 C 162.898438 252.859375 161.832031 252.449219 160.777344 252.011719 C 159.722656 251.574219 158.679688 251.113281 157.644531 250.625 C 156.613281 250.132812 155.589844 249.621094 154.582031 249.082031 C 153.574219 248.542969 152.582031 247.980469 151.601562 247.394531 C 150.621094 246.804688 149.65625 246.195312 148.707031 245.558594 C 147.753906 244.925781 146.820312 244.265625 145.902344 243.585938 C 144.984375 242.90625 144.085938 242.203125 143.203125 241.476562 C 142.320312 240.753906 141.453125 240.007812 140.605469 239.238281 C 139.761719 238.472656 138.933594 237.683594 138.125 236.875 C 137.316406 236.066406 136.527344 235.238281 135.761719 234.394531 C 134.992188 233.546875 134.246094 232.679688 133.523438 231.796875 C 132.796875 230.914062 132.09375 230.015625 131.414062 229.097656 C 130.734375 228.179688 130.074219 227.246094 129.441406 226.292969 C 128.804688 225.34375 128.195312 224.378906 127.605469 223.398438 C 127.019531 222.417969 126.457031 221.425781 125.917969 220.417969 C 125.378906 219.410156 124.863281 218.386719 124.375 217.355469 C 123.886719 216.320312 123.425781 215.277344 122.988281 214.222656 C 122.550781 213.167969 122.140625 212.101562 121.753906 211.023438 C 121.371094 209.949219 121.011719 208.863281 120.679688 207.769531 C 120.347656 206.675781 120.042969 205.574219 119.765625 204.464844 C 119.488281 203.359375 119.238281 202.242188 119.015625 201.121094 C 118.792969 200 118.597656 198.875 118.429688 197.746094 C 118.261719 196.617188 118.121094 195.480469 118.007812 194.34375 C 117.898438 193.207031 117.8125 192.066406 117.757812 190.925781 C 117.699219 189.785156 117.671875 188.644531 117.671875 187.5 C 117.671875 186.355469 117.699219 185.214844 117.757812 184.074219 C 117.8125 182.933594 117.898438 181.792969 118.007812 180.65625 C 118.121094 179.519531 118.261719 178.382812 118.429688 177.253906 C 118.597656 176.125 118.792969 175 119.015625 173.878906 C 119.238281 172.757812 119.488281 171.640625 119.765625 170.535156 C 120.042969 169.425781 120.347656 168.324219 120.679688 167.230469 C 121.011719 166.136719 121.371094 165.050781 121.753906 163.976562 C 122.140625 162.898438 122.550781 161.832031 122.988281 160.777344 C 123.425781 159.722656 123.886719 158.679688 124.375 157.644531 C 124.863281 156.613281 125.378906 155.589844 125.917969 154.582031 C 126.457031 153.574219 127.019531 152.582031 127.605469 151.601562 C 128.195312 150.621094 128.804688 149.65625 129.441406 148.707031 C 130.074219 147.753906 130.734375 146.820312 131.414062 145.902344 C 132.09375 144.984375 132.796875 144.085938 133.523438 143.203125 C 134.246094 142.320312 134.992188 141.453125 135.761719 140.605469 C 136.527344 139.761719 137.316406 138.933594 138.125 138.125 C 138.933594 137.316406 139.761719 136.527344 140.605469 135.761719 C 141.453125 134.992188 142.320312 134.246094 143.203125 133.523438 C 144.085938 132.796875 144.984375 132.09375 145.902344 131.414062 C 146.820312 130.734375 147.753906 130.074219 148.707031 129.441406 C 149.65625 128.804688 150.621094 128.195312 151.601562 127.605469 C 152.582031 127.019531 153.574219 126.457031 154.582031 125.917969 C 155.589844 125.378906 156.613281 124.863281 157.644531 124.375 C 158.679688 123.886719 159.722656 123.425781 160.777344 122.988281 C 161.832031 122.550781 162.898438 122.140625 163.976562 121.753906 C 165.050781 121.371094 166.136719 121.011719 167.230469 120.679688 C 168.324219 120.347656 169.425781 120.042969 170.535156 119.765625 C 171.640625 119.488281 172.757812 119.238281 173.878906 119.015625 C 175 118.792969 176.125 118.597656 177.253906 118.429688 C 178.382812 118.261719 179.519531 118.121094 180.65625 118.007812 C 181.792969 117.898438 182.933594 117.8125 184.074219 117.757812 C 185.214844 117.699219 186.355469 117.671875 187.5 117.671875 C 188.644531 117.671875 189.785156 117.699219 190.925781 117.757812 C 192.066406 117.8125 193.207031 117.898438 194.34375 118.007812 C 195.480469 118.121094 196.617188 118.261719 197.746094 118.429688 C 198.875 118.597656 200 118.792969 201.121094 119.015625 C 202.242188 119.238281 203.359375 119.488281 204.464844 119.765625 C 205.574219 120.042969 206.675781 120.347656 207.769531 120.679688 C 208.863281 121.011719 209.949219 121.371094 211.023438 121.753906 C 212.101562 122.140625 213.167969 122.550781 214.222656 122.988281 C 215.277344 123.425781 216.320312 123.886719 217.355469 124.375 C 218.386719 124.863281 219.410156 125.378906 220.417969 125.917969 C 221.425781 126.457031 222.417969 127.019531 223.398438 127.605469 C 224.378906 128.195312 225.34375 128.804688 226.292969 129.441406 C 227.246094 130.074219 228.179688 130.734375 229.097656 131.414062 C 230.015625 132.09375 230.914062 132.796875 231.796875 133.523438 C 232.679688 134.246094 233.546875 134.992188 234.394531 135.761719 C 235.238281 136.527344 236.066406 137.316406 236.875 138.125 C 237.683594 138.933594 238.472656 139.761719 239.238281 140.605469 C 240.007812 141.453125 240.753906 142.320312 241.476562 143.203125 C 242.203125 144.085938 242.90625 144.984375 243.585938 145.902344 C 244.265625 146.820312 244.925781 147.753906 245.558594 148.707031 C 246.195312 149.65625 246.804688 150.621094 247.394531 151.601562 C 247.980469 152.582031 248.542969 153.574219 249.082031 154.582031 C 249.621094 155.589844 250.132812 156.613281 250.625 157.644531 C 251.113281 158.679688 251.574219 159.722656 252.011719 160.777344 C 252.449219 161.832031 252.859375 162.898438 253.246094 163.976562 C 253.628906 165.050781 253.988281 166.136719 254.320312 167.230469 C 254.652344 168.324219 254.957031 169.425781 255.234375 170.535156 C 255.511719 171.640625 255.761719 172.757812 255.984375 173.878906 C 256.207031 175 256.402344 176.125 256.570312 177.253906 C 256.738281 178.382812 256.878906 179.519531 256.992188 180.65625 C 257.101562 181.792969 257.1875 182.933594 257.242188 184.074219 C 257.300781 185.214844 257.328125 186.355469 257.328125 187.5 C 257.328125 188.640625 257.296875 189.785156 257.238281 190.925781 C 257.183594 192.066406 257.097656 193.203125 256.984375 194.34375 C 256.871094 195.480469 256.730469 196.613281 256.5625 197.742188 C 256.394531 198.871094 256.195312 199.996094 255.972656 201.117188 C 255.75 202.238281 255.5 203.351562 255.21875 204.460938 C 254.941406 205.566406 254.636719 206.667969 254.304688 207.761719 C 253.972656 208.855469 253.613281 209.9375 253.226562 211.015625 C 252.839844 212.089844 252.429688 213.15625 251.992188 214.210938 C 251.554688 215.265625 251.089844 216.308594 250.601562 217.339844 C 250.113281 218.375 249.597656 219.394531 249.058594 220.402344 C 248.519531 221.410156 247.957031 222.402344 247.371094 223.382812 C 246.78125 224.363281 246.171875 225.324219 245.535156 226.277344 C 244.902344 227.226562 244.242188 228.160156 243.5625 229.078125 C 242.882812 229.992188 242.179688 230.894531 241.453125 231.777344 C 240.730469 232.660156 239.984375 233.523438 239.214844 234.371094 C 238.449219 235.21875 237.660156 236.046875 236.851562 236.851562 C 236.046875 237.660156 235.21875 238.449219 234.371094 239.214844 C 233.523438 239.984375 232.660156 240.730469 231.777344 241.453125 C 230.894531 242.179688 229.992188 242.882812 229.078125 243.5625 C 228.160156 244.242188 227.226562 244.902344 226.277344 245.535156 C 225.324219 246.171875 224.363281 246.78125 223.382812 247.371094 C 222.402344 247.957031 221.410156 248.519531 220.402344 249.058594 C 219.394531 249.597656 218.375 250.113281 217.339844 250.601562 C 216.308594 251.089844 215.265625 251.554688 214.210938 251.992188 C 213.15625 252.429688 212.089844 252.839844 211.015625 253.226562 C 209.9375 253.613281 208.855469 253.972656 207.761719 254.304688 C 206.667969 254.636719 205.566406 254.941406 204.460938 255.21875 C 203.351562 255.5 202.238281 255.75 201.117188 255.972656 C 199.996094 256.195312 198.871094 256.394531 197.742188 256.5625 C 196.613281 256.730469 195.480469 256.871094 194.34375 256.984375 C 193.203125 257.097656 192.066406 257.183594 190.925781 257.238281 C 189.785156 257.296875 188.640625 257.328125 187.5 257.328125 Z M 225.308594 147.585938 C 224.011719 146.367188 222.660156 145.214844 221.25 144.128906 C 219.839844 143.042969 218.378906 142.03125 216.867188 141.089844 C 215.359375 140.148438 213.804688 139.28125 212.210938 138.492188 C 210.613281 137.703125 208.984375 136.996094 207.320312 136.367188 C 205.65625 135.734375 203.964844 135.191406 202.246094 134.726562 C 200.527344 134.265625 198.789062 133.886719 197.035156 133.59375 C 195.28125 133.300781 193.515625 133.097656 191.738281 132.976562 C 189.960938 132.859375 188.183594 132.828125 186.40625 132.882812 C 184.628906 132.9375 182.855469 133.082031 181.089844 133.3125 C 179.328125 133.542969 177.578125 133.855469 175.84375 134.257812 C 174.109375 134.660156 172.398438 135.144531 170.714844 135.714844 C 169.027344 136.285156 167.375 136.9375 165.753906 137.667969 C 164.128906 138.402344 162.546875 139.210938 161.003906 140.097656 C 159.460938 140.984375 157.96875 141.945312 156.519531 142.980469 C 155.070312 144.015625 153.675781 145.117188 152.335938 146.289062 C 150.996094 147.460938 149.71875 148.695312 148.5 149.992188 C 146.695312 151.914062 145.039062 153.957031 143.53125 156.117188 C 142.023438 158.28125 140.683594 160.539062 139.503906 162.898438 C 138.324219 165.253906 137.324219 167.6875 136.496094 170.191406 C 135.671875 172.695312 135.035156 175.242188 134.578125 177.839844 C 134.125 180.4375 133.863281 183.050781 133.789062 185.6875 C 133.714844 188.320312 133.832031 190.949219 134.140625 193.566406 C 134.453125 196.183594 134.949219 198.765625 135.632812 201.3125 C 136.316406 203.855469 137.183594 206.339844 138.226562 208.757812 C 139.273438 211.179688 140.488281 213.507812 141.875 215.753906 C 143.257812 217.996094 144.800781 220.125 146.492188 222.144531 C 148.1875 224.164062 150.019531 226.046875 151.992188 227.800781 C 153.960938 229.550781 156.046875 231.152344 158.246094 232.601562 C 160.449219 234.050781 162.746094 235.332031 165.132812 236.445312 C 167.523438 237.5625 169.980469 238.496094 172.503906 239.253906 C 175.027344 240.011719 177.59375 240.582031 180.203125 240.964844 C 182.8125 241.347656 185.433594 241.542969 188.070312 241.542969 C 188.648438 241.542969 189.234375 241.542969 189.816406 241.519531 C 192.484375 241.433594 195.136719 241.15625 197.765625 240.679688 C 200.394531 240.203125 202.976562 239.539062 205.507812 238.683594 C 208.039062 237.828125 210.496094 236.789062 212.875 235.570312 C 215.253906 234.355469 217.527344 232.96875 219.703125 231.414062 C 221.878906 229.859375 223.925781 228.15625 225.847656 226.300781 C 227.773438 224.445312 229.546875 222.457031 231.175781 220.339844 C 232.808594 218.21875 234.273438 215.996094 235.574219 213.660156 C 236.875 211.324219 237.996094 208.910156 238.941406 206.410156 C 239.886719 203.910156 240.644531 201.355469 241.210938 198.742188 C 241.777344 196.128906 242.152344 193.492188 242.328125 190.824219 C 242.507812 188.160156 242.488281 185.492188 242.273438 182.832031 C 242.058594 180.167969 241.652344 177.53125 241.046875 174.929688 C 240.445312 172.324219 239.652344 169.78125 238.675781 167.292969 C 237.695312 164.808594 236.539062 162.40625 235.207031 160.089844 C 233.875 157.773438 232.378906 155.566406 230.71875 153.472656 C 229.0625 151.375 227.257812 149.414062 225.308594 147.585938 Z M 223.949219 220.863281 C 222.84375 222.035156 221.6875 223.152344 220.476562 224.214844 C 219.261719 225.273438 218 226.269531 216.691406 227.207031 C 215.378906 228.144531 214.027344 229.015625 212.632812 229.816406 C 211.234375 230.621094 209.804688 231.351562 208.335938 232.015625 C 206.867188 232.679688 205.371094 233.265625 203.84375 233.78125 C 202.320312 234.296875 200.773438 234.738281 199.203125 235.101562 C 197.632812 235.464844 196.050781 235.75 194.453125 235.957031 C 192.855469 236.167969 191.253906 236.296875 189.644531 236.347656 C 188.035156 236.398438 186.425781 236.367188 184.820312 236.261719 C 183.210938 236.152344 181.613281 235.964844 180.027344 235.703125 C 178.4375 235.4375 176.867188 235.09375 175.308594 234.675781 C 173.753906 234.257812 172.222656 233.761719 170.71875 233.195312 C 169.210938 232.625 167.738281 231.984375 166.292969 231.269531 C 164.851562 230.554688 163.445312 229.769531 162.078125 228.917969 C 160.710938 228.066406 159.390625 227.148438 158.113281 226.167969 C 156.839844 225.183594 155.613281 224.140625 154.4375 223.039062 C 153.265625 221.9375 152.148438 220.777344 151.089844 219.566406 C 150.027344 218.355469 149.03125 217.09375 148.09375 215.78125 C 147.15625 214.472656 146.289062 213.117188 145.484375 211.722656 C 144.679688 210.328125 143.949219 208.894531 143.285156 207.425781 C 142.621094 205.960938 142.035156 204.460938 141.519531 202.9375 C 141.003906 201.410156 140.5625 199.863281 140.199219 198.292969 C 139.835938 196.726562 139.550781 195.144531 139.34375 193.546875 C 139.132812 191.949219 139.003906 190.34375 138.953125 188.734375 C 138.902344 187.125 138.933594 185.519531 139.039062 183.910156 C 139.148438 182.304688 139.335938 180.707031 139.597656 179.117188 C 139.863281 177.527344 140.203125 175.957031 140.625 174.402344 C 141.042969 172.847656 141.539062 171.316406 142.105469 169.808594 C 142.675781 168.304688 143.316406 166.828125 144.03125 165.386719 C 144.746094 163.941406 145.53125 162.535156 146.382812 161.171875 C 147.234375 159.804688 148.152344 158.480469 149.132812 157.207031 C 150.117188 155.929688 151.160156 154.703125 152.261719 153.53125 C 153.363281 152.355469 154.523438 151.238281 155.734375 150.179688 C 156.945312 149.121094 158.207031 148.121094 159.519531 147.183594 C 160.828125 146.25 162.179688 145.378906 163.578125 144.574219 C 164.972656 143.773438 166.40625 143.039062 167.871094 142.375 C 169.339844 141.714844 170.835938 141.125 172.363281 140.609375 C 173.890625 140.09375 175.4375 139.65625 177.003906 139.289062 C 178.574219 138.925781 180.15625 138.640625 181.753906 138.433594 C 183.351562 138.226562 184.953125 138.097656 186.566406 138.046875 C 188.175781 137.996094 189.78125 138.023438 191.390625 138.132812 C 192.996094 138.238281 194.59375 138.425781 196.183594 138.691406 C 197.769531 138.953125 199.34375 139.296875 200.898438 139.714844 C 202.453125 140.132812 203.984375 140.628906 205.492188 141.199219 C 206.996094 141.765625 208.472656 142.410156 209.914062 143.125 C 211.359375 143.835938 212.765625 144.621094 214.128906 145.472656 C 215.496094 146.324219 216.816406 147.242188 218.09375 148.226562 C 219.371094 149.207031 220.597656 150.25 221.769531 151.351562 C 222.953125 152.449219 224.078125 153.601562 225.148438 154.8125 C 226.214844 156.019531 227.222656 157.277344 228.167969 158.585938 C 229.113281 159.894531 229.988281 161.246094 230.800781 162.640625 C 231.609375 164.035156 232.347656 165.46875 233.019531 166.9375 C 233.6875 168.40625 234.28125 169.902344 234.800781 171.429688 C 235.320312 172.957031 235.765625 174.507812 236.132812 176.078125 C 236.496094 177.648438 236.785156 179.234375 236.996094 180.832031 C 237.207031 182.433594 237.335938 184.039062 237.386719 185.652344 C 237.4375 187.265625 237.40625 188.875 237.296875 190.484375 C 237.1875 192.09375 237 193.695312 236.734375 195.285156 C 236.464844 196.878906 236.121094 198.453125 235.695312 200.007812 C 235.273438 201.566406 234.773438 203.097656 234.199219 204.605469 C 233.621094 206.113281 232.972656 207.585938 232.253906 209.03125 C 231.53125 210.472656 230.742188 211.878906 229.878906 213.242188 C 229.019531 214.605469 228.09375 215.925781 227.101562 217.199219 C 226.109375 218.472656 225.058594 219.691406 223.949219 220.863281 Z M 216.773438 156.332031 C 216.140625 155.738281 215.492188 155.164062 214.824219 154.609375 C 214.15625 154.058594 213.472656 153.523438 212.773438 153.011719 C 212.074219 152.496094 211.359375 152.007812 210.628906 151.539062 C 209.898438 151.070312 209.15625 150.621094 208.398438 150.199219 C 207.640625 149.773438 206.871094 149.375 206.089844 148.996094 C 205.308594 148.617188 204.515625 148.265625 203.714844 147.9375 C 202.910156 147.609375 202.097656 147.304688 201.277344 147.023438 C 200.457031 146.746094 199.628906 146.492188 198.789062 146.261719 C 197.953125 146.03125 197.109375 145.828125 196.261719 145.652344 C 195.414062 145.472656 194.558594 145.320312 193.699219 145.195312 C 192.839844 145.070312 191.980469 144.972656 191.117188 144.898438 C 190.25 144.824219 189.386719 144.777344 188.519531 144.757812 C 187.652344 144.734375 186.785156 144.742188 185.917969 144.773438 C 185.050781 144.804688 184.183594 144.863281 183.320312 144.949219 C 182.457031 145.035156 181.597656 145.144531 180.742188 145.28125 C 179.882812 145.421875 179.03125 145.582031 178.183594 145.773438 C 177.339844 145.960938 176.5 146.175781 175.664062 146.417969 C 174.832031 146.65625 174.003906 146.921875 173.1875 147.210938 C 172.371094 147.503906 171.5625 147.816406 170.765625 148.15625 C 169.964844 148.496094 169.179688 148.859375 168.402344 149.25 C 167.625 149.636719 166.863281 150.046875 166.109375 150.480469 C 165.359375 150.914062 164.621094 151.371094 163.898438 151.851562 C 163.175781 152.328125 162.46875 152.832031 161.773438 153.351562 C 161.082031 153.875 160.40625 154.417969 159.746094 154.980469 C 159.085938 155.542969 158.441406 156.125 157.820312 156.730469 C 157.195312 157.332031 156.589844 157.953125 156.003906 158.589844 C 155.414062 159.230469 154.847656 159.886719 154.300781 160.558594 C 153.753906 161.234375 153.230469 161.921875 152.726562 162.628906 C 152.21875 163.335938 151.738281 164.054688 151.277344 164.789062 C 150.816406 165.527344 150.378906 166.273438 149.960938 167.035156 C 149.546875 167.796875 149.15625 168.570312 148.785156 169.355469 C 148.417969 170.140625 148.074219 170.9375 147.753906 171.746094 C 147.433594 172.550781 147.140625 173.367188 146.871094 174.191406 C 146.601562 175.015625 146.355469 175.847656 146.136719 176.6875 C 145.917969 177.527344 145.722656 178.371094 145.554688 179.222656 C 145.386719 180.074219 145.246094 180.929688 145.128906 181.789062 C 145.011719 182.648438 144.921875 183.511719 144.859375 184.378906 C 144.796875 185.242188 144.757812 186.109375 144.75 186.976562 C 144.738281 187.84375 144.753906 188.710938 144.796875 189.578125 C 144.839844 190.445312 144.90625 191.308594 145 192.171875 C 145.097656 193.035156 145.21875 193.894531 145.363281 194.746094 C 145.511719 195.601562 145.683594 196.453125 145.882812 197.296875 C 146.082031 198.140625 146.304688 198.980469 146.554688 199.808594 C 146.804688 200.640625 147.078125 201.464844 147.378906 202.277344 C 147.679688 203.09375 148.003906 203.894531 148.351562 204.691406 C 148.703125 205.484375 149.074219 206.269531 149.46875 207.039062 C 149.867188 207.8125 150.285156 208.570312 150.730469 209.316406 C 151.171875 210.0625 151.636719 210.796875 152.125 211.511719 C 152.609375 212.230469 153.121094 212.933594 153.648438 213.621094 C 154.179688 214.308594 154.730469 214.976562 155.300781 215.628906 C 155.871094 216.285156 156.460938 216.917969 157.070312 217.539062 C 157.679688 218.15625 158.308594 218.753906 158.953125 219.332031 C 159.601562 219.910156 160.261719 220.472656 160.941406 221.011719 C 161.621094 221.546875 162.316406 222.066406 163.03125 222.5625 C 163.742188 223.058594 164.464844 223.535156 165.207031 223.988281 C 165.949219 224.4375 166.699219 224.867188 167.46875 225.273438 C 168.234375 225.683594 169.011719 226.066406 169.800781 226.425781 C 170.589844 226.78125 171.390625 227.117188 172.203125 227.429688 C 173.011719 227.738281 173.832031 228.023438 174.65625 228.285156 C 175.484375 228.546875 176.320312 228.78125 177.160156 228.992188 C 178.003906 229.199219 178.851562 229.386719 179.703125 229.542969 C 180.558594 229.703125 181.414062 229.832031 182.277344 229.941406 C 183.136719 230.046875 184 230.125 184.867188 230.179688 C 185.730469 230.234375 186.597656 230.257812 187.464844 230.261719 C 187.921875 230.261719 188.382812 230.261719 188.839844 230.238281 C 190.941406 230.171875 193.027344 229.953125 195.097656 229.578125 C 197.164062 229.203125 199.195312 228.679688 201.1875 228.007812 C 203.179688 227.335938 205.109375 226.519531 206.984375 225.5625 C 208.855469 224.601562 210.644531 223.511719 212.355469 222.289062 C 214.066406 221.066406 215.679688 219.726562 217.191406 218.265625 C 218.703125 216.804688 220.101562 215.242188 221.386719 213.574219 C 222.667969 211.910156 223.820312 210.15625 224.84375 208.320312 C 225.867188 206.484375 226.75 204.582031 227.496094 202.617188 C 228.238281 200.648438 228.832031 198.640625 229.28125 196.585938 C 229.726562 194.53125 230.019531 192.453125 230.160156 190.355469 C 230.300781 188.257812 230.285156 186.160156 230.117188 184.066406 C 229.949219 181.96875 229.628906 179.898438 229.152344 177.847656 C 228.679688 175.800781 228.054688 173.796875 227.285156 171.839844 C 226.515625 169.882812 225.605469 167.996094 224.558594 166.171875 C 223.507812 164.351562 222.332031 162.613281 221.027344 160.964844 C 219.722656 159.316406 218.304688 157.773438 216.769531 156.332031 Z M 219.324219 167.578125 C 221.496094 171.035156 223.058594 174.75 224.015625 178.71875 L 221.945312 180.875 L 214.261719 177.960938 L 213.09375 175.917969 L 217.140625 168 Z M 207.5625 158.71875 L 200.019531 161.996094 L 197.765625 161.34375 L 195.132812 152.84375 L 196.410156 151.015625 C 200.375 151.972656 204.082031 153.539062 207.53125 155.714844 Z M 181.792969 152.886719 L 178.679688 160.492188 L 176.609375 161.601562 L 168.800781 157.351562 L 168.433594 155.136719 C 171.953125 153.070312 175.707031 151.613281 179.699219 150.777344 Z M 157.210938 169.804688 L 161.074219 177.058594 L 160.609375 179.359375 L 152.351562 182.660156 L 150.40625 181.527344 C 151.058594 177.496094 152.339844 173.675781 154.242188 170.066406 Z M 156.738281 209.101562 C 154.402344 205.753906 152.660156 202.121094 151.519531 198.203125 L 153.453125 195.953125 L 161.285156 198.453125 L 162.554688 200.429688 L 158.933594 208.554688 Z M 169.003906 217.308594 L 176.359375 213.636719 L 178.648438 214.152344 L 181.726562 222.5 L 180.535156 224.414062 C 176.523438 223.664062 172.742188 222.28125 169.1875 220.277344 Z M 195.042969 221.757812 L 197.75 214 L 199.757812 212.78125 L 207.777344 216.609375 L 208.257812 218.796875 C 204.859375 221.0625 201.1875 222.71875 197.246094 223.773438 Z M 212.785156 215.273438 L 212.292969 213.03125 L 199.460938 206.898438 L 193.480469 210.542969 L 189.03125 223.289062 L 190.800781 224.898438 C 190.097656 224.957031 189.394531 225.046875 188.675781 225.066406 C 187.863281 225.09375 187.058594 225.054688 186.25 225.027344 L 187.453125 223.085938 L 182.539062 209.75 L 175.710938 208.191406 L 163.632812 214.21875 L 163.78125 216.621094 C 163.097656 216.066406 162.414062 215.515625 161.765625 214.90625 C 161.292969 214.464844 160.878906 213.984375 160.433594 213.523438 L 162.640625 212.972656 L 168.417969 199.984375 L 164.625 194.101562 L 151.765625 189.996094 L 150.195312 191.804688 C 150.03125 190.296875 149.957031 188.78125 149.972656 187.257812 L 151.925781 188.398438 L 165.125 183.125 L 166.511719 176.261719 L 160.164062 164.351562 L 157.726562 164.566406 C 158.46875 163.605469 159.257812 162.667969 160.105469 161.765625 C 161.238281 160.574219 162.445312 159.460938 163.726562 158.429688 L 164.097656 160.683594 L 176.582031 167.484375 L 182.75 164.167969 L 187.871094 151.679688 L 186.171875 149.960938 C 187.695312 149.914062 189.21875 149.960938 190.738281 150.101562 L 189.445312 151.964844 L 193.648438 165.546875 L 200.371094 167.476562 L 212.753906 162.101562 L 212.734375 159.683594 C 212.898438 159.832031 213.070312 159.945312 213.226562 160.105469 C 214.1875 161.003906 215.097656 161.953125 215.957031 162.949219 L 213.675781 163.390625 L 207.210938 176.046875 L 210.683594 182.128906 L 223.304688 186.914062 L 224.953125 185.191406 C 225.054688 186.710938 225.066406 188.230469 224.988281 189.75 L 223.066406 188.484375 L 209.609375 193.058594 L 207.859375 199.839844 L 213.546875 212.070312 L 215.949219 211.988281 C 215.589844 212.402344 215.269531 212.832031 214.894531 213.234375 C 214.222656 213.953125 213.507812 214.617188 212.785156 215.273438 Z M 219.800781 206.683594 L 216.804688 206.785156 L 213.328125 199.335938 L 213.917969 197.0625 L 222.339844 194.214844 L 224.1875 195.433594 C 223.339844 199.421875 221.878906 203.171875 219.800781 206.683594 Z M 186.753906 167.496094 C 186.445312 167.496094 186.140625 167.527344 185.835938 167.585938 C 185.535156 167.644531 185.238281 167.734375 184.953125 167.851562 C 184.671875 167.972656 184.398438 168.117188 184.144531 168.289062 C 183.886719 168.457031 183.648438 168.652344 183.429688 168.871094 C 183.214844 169.089844 183.019531 169.328125 182.847656 169.582031 C 182.675781 169.839844 182.53125 170.109375 182.414062 170.394531 C 182.296875 170.679688 182.207031 170.972656 182.144531 171.277344 C 182.085938 171.578125 182.054688 171.882812 182.054688 172.191406 C 182.054688 172.5 182.085938 172.808594 182.144531 173.109375 C 182.207031 173.410156 182.296875 173.707031 182.414062 173.992188 C 182.53125 174.277344 182.675781 174.546875 182.847656 174.800781 C 183.019531 175.058594 183.214844 175.296875 183.433594 175.515625 C 183.652344 175.730469 183.886719 175.925781 184.144531 176.097656 C 184.402344 176.269531 184.671875 176.414062 184.957031 176.53125 C 185.242188 176.648438 185.535156 176.738281 185.839844 176.800781 C 186.140625 176.859375 186.445312 176.890625 186.753906 176.890625 C 187.0625 176.886719 187.367188 176.859375 187.671875 176.796875 C 187.972656 176.738281 188.265625 176.648438 188.550781 176.53125 C 188.835938 176.414062 189.105469 176.269531 189.363281 176.097656 C 189.621094 175.925781 189.855469 175.730469 190.074219 175.511719 C 190.292969 175.292969 190.488281 175.054688 190.660156 174.800781 C 190.832031 174.542969 190.976562 174.273438 191.09375 173.988281 C 191.210938 173.703125 191.300781 173.410156 191.359375 173.105469 C 191.417969 172.804688 191.449219 172.5 191.449219 172.191406 C 191.449219 171.882812 191.417969 171.578125 191.359375 171.273438 C 191.296875 170.972656 191.207031 170.679688 191.089844 170.394531 C 190.972656 170.109375 190.828125 169.839844 190.65625 169.582031 C 190.484375 169.324219 190.289062 169.089844 190.070312 168.871094 C 189.855469 168.652344 189.617188 168.457031 189.359375 168.289062 C 189.105469 168.117188 188.832031 167.972656 188.550781 167.855469 C 188.265625 167.734375 187.96875 167.648438 187.667969 167.585938 C 187.367188 167.527344 187.0625 167.496094 186.753906 167.496094 Z M 186.277344 172.191406 C 186.285156 172.066406 186.335938 171.960938 186.429688 171.875 C 186.519531 171.789062 186.628906 171.746094 186.753906 171.746094 C 186.878906 171.746094 186.988281 171.789062 187.078125 171.875 C 187.171875 171.960938 187.222656 172.066406 187.230469 172.191406 C 187.242188 172.714844 186.277344 172.714844 186.277344 172.191406 Z M 197.84375 181.480469 C 198.230469 181.480469 198.613281 181.433594 198.984375 181.339844 C 199.359375 181.246094 199.71875 181.105469 200.058594 180.925781 C 200.398438 180.742188 200.714844 180.523438 201 180.261719 C 201.285156 180.003906 201.535156 179.714844 201.75 179.390625 C 201.964844 179.070312 202.136719 178.730469 202.265625 178.363281 C 202.398438 178 202.480469 177.628906 202.519531 177.242188 C 202.558594 176.859375 202.546875 176.476562 202.492188 176.09375 C 202.433594 175.710938 202.332031 175.34375 202.183594 174.984375 C 202.035156 174.628906 201.847656 174.296875 201.617188 173.984375 C 201.386719 173.675781 201.125 173.398438 200.824219 173.152344 C 200.527344 172.90625 200.203125 172.703125 199.851562 172.535156 C 199.503906 172.371094 199.140625 172.25 198.761719 172.175781 C 198.382812 172.101562 198 172.074219 197.613281 172.09375 C 197.230469 172.109375 196.851562 172.175781 196.480469 172.289062 C 196.113281 172.402344 195.761719 172.554688 195.429688 172.753906 C 195.097656 172.953125 194.796875 173.1875 194.523438 173.460938 C 194.195312 173.789062 193.921875 174.160156 193.703125 174.570312 C 193.484375 174.980469 193.328125 175.410156 193.238281 175.867188 C 193.148438 176.320312 193.125 176.78125 193.171875 177.242188 C 193.21875 177.707031 193.328125 178.152344 193.507812 178.578125 C 193.683594 179.007812 193.921875 179.402344 194.214844 179.761719 C 194.507812 180.121094 194.851562 180.429688 195.234375 180.6875 C 195.621094 180.945312 196.039062 181.140625 196.480469 181.277344 C 196.925781 181.410156 197.378906 181.480469 197.84375 181.480469 Z M 197.503906 176.449219 C 197.597656 176.355469 197.710938 176.308594 197.84375 176.308594 C 197.976562 176.308594 198.085938 176.351562 198.179688 176.445312 C 198.269531 176.539062 198.320312 176.652344 198.320312 176.78125 C 198.320312 176.914062 198.273438 177.027344 198.179688 177.121094 C 198.082031 177.199219 197.96875 177.238281 197.84375 177.238281 C 197.714844 177.238281 197.601562 177.199219 197.503906 177.121094 C 197.410156 177.027344 197.363281 176.917969 197.363281 176.785156 C 197.363281 176.652344 197.410156 176.542969 197.503906 176.449219 Z M 202.4375 183.171875 C 202.078125 183.175781 201.722656 183.214844 201.375 183.296875 C 201.023438 183.378906 200.6875 183.5 200.367188 183.660156 C 200.042969 183.820312 199.742188 184.015625 199.464844 184.242188 C 199.1875 184.472656 198.941406 184.730469 198.722656 185.015625 C 198.503906 185.300781 198.320312 185.605469 198.171875 185.933594 C 198.027344 186.261719 197.917969 186.601562 197.847656 186.957031 C 197.777344 187.308594 197.75 187.664062 197.761719 188.023438 C 197.773438 188.382812 197.828125 188.738281 197.921875 189.082031 C 198.015625 189.429688 198.148438 189.761719 198.316406 190.078125 C 198.488281 190.394531 198.691406 190.6875 198.929688 190.960938 C 199.164062 191.230469 199.429688 191.46875 199.722656 191.675781 C 200.015625 191.886719 200.328125 192.058594 200.660156 192.195312 C 200.992188 192.332031 201.335938 192.429688 201.691406 192.488281 C 202.046875 192.546875 202.402344 192.5625 202.761719 192.539062 C 203.121094 192.515625 203.472656 192.453125 203.816406 192.347656 C 204.160156 192.242188 204.488281 192.101562 204.796875 191.917969 C 205.109375 191.738281 205.394531 191.527344 205.65625 191.28125 C 205.917969 191.035156 206.152344 190.761719 206.351562 190.460938 C 206.550781 190.164062 206.710938 189.84375 206.839844 189.507812 C 206.964844 189.171875 207.050781 188.824219 207.097656 188.46875 C 207.144531 188.113281 207.148438 187.753906 207.113281 187.398438 C 207.078125 187.039062 207.003906 186.691406 206.886719 186.351562 C 206.769531 186.011719 206.617188 185.6875 206.429688 185.382812 C 206.238281 185.078125 206.015625 184.796875 205.761719 184.542969 C 205.320312 184.101562 204.8125 183.761719 204.234375 183.527344 C 203.65625 183.289062 203.054688 183.171875 202.433594 183.179688 Z M 202.773438 188.203125 C 202.679688 188.292969 202.566406 188.335938 202.4375 188.335938 C 202.308594 188.335938 202.195312 188.292969 202.097656 188.203125 C 202.003906 188.109375 201.957031 187.996094 201.957031 187.863281 C 201.957031 187.734375 202.003906 187.621094 202.097656 187.527344 C 202.191406 187.433594 202.304688 187.386719 202.4375 187.386719 C 202.570312 187.386719 202.683594 187.433594 202.773438 187.527344 C 202.867188 187.621094 202.914062 187.734375 202.914062 187.863281 C 202.914062 187.996094 202.867188 188.109375 202.773438 188.203125 Z M 201.164062 195.636719 C 200.835938 195.308594 200.464844 195.03125 200.054688 194.8125 C 199.644531 194.59375 199.214844 194.4375 198.757812 194.347656 C 198.300781 194.257812 197.84375 194.234375 197.378906 194.28125 C 196.917969 194.324219 196.472656 194.4375 196.042969 194.613281 C 195.613281 194.792969 195.21875 195.03125 194.859375 195.324219 C 194.5 195.621094 194.191406 195.960938 193.933594 196.347656 C 193.675781 196.734375 193.480469 197.148438 193.347656 197.59375 C 193.210938 198.039062 193.144531 198.496094 193.144531 198.960938 C 193.144531 199.425781 193.210938 199.878906 193.347656 200.324219 C 193.480469 200.769531 193.679688 201.183594 193.9375 201.570312 C 194.195312 201.957031 194.503906 202.296875 194.863281 202.589844 C 195.222656 202.886719 195.617188 203.121094 196.042969 203.300781 C 196.472656 203.476562 196.917969 203.589844 197.382812 203.632812 C 197.84375 203.679688 198.304688 203.65625 198.757812 203.566406 C 199.214844 203.476562 199.648438 203.320312 200.054688 203.101562 C 200.464844 202.878906 200.835938 202.605469 201.164062 202.277344 C 201.378906 202.058594 201.574219 201.820312 201.746094 201.566406 C 201.917969 201.308594 202.0625 201.039062 202.179688 200.753906 C 202.296875 200.46875 202.386719 200.175781 202.445312 199.871094 C 202.503906 199.570312 202.535156 199.265625 202.535156 198.957031 C 202.535156 198.648438 202.503906 198.34375 202.445312 198.042969 C 202.386719 197.738281 202.296875 197.445312 202.179688 197.160156 C 202.0625 196.875 201.917969 196.605469 201.746094 196.347656 C 201.574219 196.09375 201.378906 195.855469 201.164062 195.636719 Z M 197.503906 198.621094 C 197.597656 198.53125 197.710938 198.484375 197.84375 198.484375 C 197.976562 198.488281 198.085938 198.53125 198.179688 198.625 L 197.503906 199.296875 C 197.410156 199.203125 197.363281 199.09375 197.363281 198.960938 C 197.363281 198.828125 197.410156 198.714844 197.503906 198.621094 Z M 198.179688 199.292969 C 198.082031 199.371094 197.96875 199.414062 197.84375 199.414062 C 197.71875 199.414062 197.605469 199.371094 197.507812 199.292969 L 198.179688 198.617188 C 198.273438 198.710938 198.320312 198.824219 198.320312 198.957031 C 198.320312 199.089844 198.273438 199.203125 198.179688 199.296875 Z M 186.753906 198.855469 C 186.445312 198.855469 186.140625 198.886719 185.835938 198.945312 C 185.535156 199.007812 185.238281 199.09375 184.953125 199.214844 C 184.671875 199.332031 184.398438 199.476562 184.144531 199.648438 C 183.886719 199.820312 183.648438 200.015625 183.429688 200.230469 C 183.214844 200.449219 183.019531 200.6875 182.847656 200.945312 C 182.675781 201.199219 182.53125 201.472656 182.414062 201.757812 C 182.296875 202.039062 182.207031 202.335938 182.144531 202.636719 C 182.085938 202.941406 182.054688 203.246094 182.054688 203.554688 C 182.054688 203.863281 182.085938 204.167969 182.144531 204.46875 C 182.207031 204.773438 182.296875 205.066406 182.414062 205.351562 C 182.53125 205.636719 182.675781 205.90625 182.847656 206.164062 C 183.019531 206.417969 183.214844 206.65625 183.433594 206.875 C 183.652344 207.09375 183.886719 207.289062 184.144531 207.457031 C 184.402344 207.628906 184.671875 207.773438 184.957031 207.890625 C 185.242188 208.011719 185.535156 208.097656 185.839844 208.160156 C 186.140625 208.21875 186.445312 208.25 186.753906 208.25 C 187.0625 208.25 187.367188 208.21875 187.671875 208.160156 C 187.972656 208.097656 188.265625 208.007812 188.550781 207.890625 C 188.835938 207.773438 189.105469 207.628906 189.363281 207.457031 C 189.621094 207.285156 189.855469 207.089844 190.074219 206.871094 C 190.292969 206.652344 190.488281 206.417969 190.660156 206.160156 C 190.832031 205.902344 190.976562 205.632812 191.09375 205.347656 C 191.210938 205.0625 191.300781 204.769531 191.359375 204.464844 C 191.417969 204.164062 191.449219 203.859375 191.449219 203.550781 C 191.449219 203.242188 191.417969 202.9375 191.355469 202.636719 C 191.296875 202.332031 191.207031 202.039062 191.089844 201.753906 C 190.96875 201.472656 190.824219 201.199219 190.652344 200.945312 C 190.484375 200.6875 190.289062 200.453125 190.070312 200.234375 C 189.851562 200.015625 189.613281 199.824219 189.359375 199.652344 C 189.101562 199.480469 188.832031 199.335938 188.546875 199.21875 C 188.261719 199.101562 187.96875 199.011719 187.667969 198.953125 C 187.367188 198.890625 187.0625 198.863281 186.753906 198.859375 Z M 186.277344 203.550781 C 186.285156 203.425781 186.335938 203.320312 186.429688 203.234375 C 186.519531 203.148438 186.628906 203.105469 186.753906 203.105469 C 186.878906 203.105469 186.988281 203.148438 187.078125 203.234375 C 187.171875 203.320312 187.222656 203.425781 187.230469 203.550781 C 187.242188 204.082031 186.277344 204.082031 186.277344 203.554688 Z M 172.34375 195.636719 C 172.121094 195.851562 171.921875 196.089844 171.746094 196.347656 C 171.570312 196.601562 171.421875 196.875 171.300781 197.160156 C 171.175781 197.445312 171.085938 197.742188 171.023438 198.046875 C 170.957031 198.351562 170.925781 198.660156 170.925781 198.96875 C 170.921875 199.28125 170.949219 199.589844 171.011719 199.894531 C 171.070312 200.199219 171.15625 200.496094 171.277344 200.78125 C 171.394531 201.070312 171.539062 201.34375 171.710938 201.601562 C 171.882812 201.859375 172.078125 202.101562 172.300781 202.320312 C 172.519531 202.539062 172.757812 202.734375 173.015625 202.910156 C 173.277344 203.082031 173.550781 203.226562 173.835938 203.34375 C 174.125 203.460938 174.421875 203.550781 174.726562 203.609375 C 175.03125 203.667969 175.339844 203.699219 175.652344 203.695312 C 175.960938 203.695312 176.269531 203.660156 176.574219 203.597656 C 176.878906 203.535156 177.171875 203.441406 177.460938 203.320312 C 177.746094 203.199219 178.015625 203.050781 178.273438 202.875 C 178.53125 202.699219 178.765625 202.5 178.984375 202.277344 C 179.203125 202.058594 179.398438 201.824219 179.570312 201.566406 C 179.738281 201.308594 179.886719 201.039062 180.003906 200.753906 C 180.121094 200.46875 180.210938 200.175781 180.269531 199.875 C 180.332031 199.570312 180.359375 199.265625 180.359375 198.957031 C 180.359375 198.648438 180.332031 198.34375 180.269531 198.039062 C 180.210938 197.738281 180.121094 197.445312 180.003906 197.160156 C 179.886719 196.875 179.738281 196.605469 179.570312 196.347656 C 179.398438 196.089844 179.203125 195.855469 178.984375 195.636719 C 178.765625 195.417969 178.527344 195.226562 178.269531 195.054688 C 178.015625 194.882812 177.742188 194.738281 177.457031 194.621094 C 177.171875 194.503906 176.878906 194.414062 176.578125 194.355469 C 176.273438 194.296875 175.96875 194.265625 175.660156 194.265625 C 175.355469 194.265625 175.046875 194.296875 174.746094 194.355469 C 174.445312 194.417969 174.148438 194.507812 173.867188 194.625 C 173.582031 194.742188 173.308594 194.886719 173.054688 195.058594 C 172.796875 195.230469 172.558594 195.421875 172.34375 195.640625 Z M 176 199.296875 C 175.90625 199.386719 175.792969 199.433594 175.664062 199.433594 C 175.53125 199.433594 175.417969 199.386719 175.328125 199.296875 C 175.234375 199.203125 175.1875 199.089844 175.1875 198.957031 C 175.1875 198.828125 175.234375 198.714844 175.328125 198.621094 C 175.421875 198.527344 175.535156 198.484375 175.664062 198.484375 C 175.796875 198.484375 175.910156 198.53125 176 198.625 C 176.09375 198.71875 176.140625 198.832031 176.140625 198.960938 C 176.140625 199.09375 176.09375 199.207031 176 199.300781 Z M 175.765625 187.867188 C 175.765625 187.558594 175.734375 187.253906 175.675781 186.949219 C 175.617188 186.648438 175.527344 186.355469 175.410156 186.070312 C 175.289062 185.785156 175.144531 185.515625 174.976562 185.257812 C 174.804688 185 174.609375 184.765625 174.390625 184.546875 C 174.171875 184.328125 173.933594 184.132812 173.679688 183.960938 C 173.421875 183.789062 173.152344 183.644531 172.867188 183.527344 C 172.582031 183.410156 172.289062 183.320312 171.984375 183.261719 C 171.683594 183.199219 171.378906 183.171875 171.070312 183.171875 C 170.761719 183.171875 170.457031 183.199219 170.152344 183.261719 C 169.851562 183.320312 169.558594 183.410156 169.273438 183.527344 C 168.988281 183.644531 168.71875 183.789062 168.460938 183.960938 C 168.203125 184.132812 167.96875 184.328125 167.75 184.546875 C 167.53125 184.765625 167.335938 185 167.164062 185.257812 C 166.992188 185.515625 166.847656 185.785156 166.730469 186.070312 C 166.613281 186.355469 166.523438 186.648438 166.464844 186.949219 C 166.402344 187.253906 166.375 187.558594 166.375 187.867188 C 166.375 188.175781 166.402344 188.480469 166.464844 188.785156 C 166.523438 189.085938 166.613281 189.378906 166.730469 189.664062 C 166.847656 189.949219 166.992188 190.21875 167.164062 190.476562 C 167.335938 190.734375 167.53125 190.96875 167.75 191.1875 C 167.96875 191.40625 168.203125 191.601562 168.460938 191.773438 C 168.71875 191.945312 168.988281 192.089844 169.273438 192.207031 C 169.558594 192.324219 169.851562 192.414062 170.152344 192.472656 C 170.457031 192.535156 170.761719 192.5625 171.070312 192.5625 C 171.378906 192.5625 171.683594 192.53125 171.984375 192.472656 C 172.285156 192.410156 172.582031 192.324219 172.863281 192.203125 C 173.148438 192.085938 173.417969 191.941406 173.675781 191.769531 C 173.933594 191.601562 174.167969 191.40625 174.386719 191.1875 C 174.605469 190.96875 174.800781 190.734375 174.96875 190.476562 C 175.140625 190.222656 175.285156 189.953125 175.40625 189.667969 C 175.523438 189.382812 175.613281 189.089844 175.675781 188.789062 C 175.734375 188.484375 175.765625 188.179688 175.765625 187.871094 Z M 170.59375 187.867188 C 170.601562 187.742188 170.652344 187.636719 170.746094 187.550781 C 170.835938 187.464844 170.945312 187.425781 171.070312 187.425781 C 171.195312 187.425781 171.304688 187.464844 171.398438 187.550781 C 171.488281 187.636719 171.539062 187.742188 171.546875 187.867188 C 171.546875 188.390625 170.59375 188.40625 170.59375 187.871094 Z M 175.664062 181.472656 C 176.027344 181.472656 176.378906 181.429688 176.730469 181.347656 C 177.082031 181.265625 177.417969 181.144531 177.742188 180.984375 C 178.0625 180.828125 178.363281 180.632812 178.640625 180.402344 C 178.921875 180.175781 179.167969 179.917969 179.386719 179.632812 C 179.605469 179.347656 179.789062 179.039062 179.9375 178.710938 C 180.085938 178.382812 180.195312 178.042969 180.265625 177.691406 C 180.335938 177.335938 180.367188 176.980469 180.355469 176.621094 C 180.339844 176.261719 180.289062 175.90625 180.195312 175.558594 C 180.101562 175.210938 179.96875 174.878906 179.800781 174.5625 C 179.632812 174.246094 179.425781 173.949219 179.191406 173.679688 C 178.953125 173.410156 178.6875 173.171875 178.394531 172.960938 C 178.101562 172.75 177.789062 172.578125 177.457031 172.441406 C 177.125 172.300781 176.78125 172.203125 176.425781 172.144531 C 176.070312 172.085938 175.710938 172.070312 175.351562 172.09375 C 174.992188 172.117188 174.640625 172.183594 174.296875 172.285156 C 173.953125 172.390625 173.625 172.535156 173.3125 172.714844 C 173 172.894531 172.714844 173.105469 172.453125 173.351562 C 172.1875 173.597656 171.957031 173.871094 171.757812 174.171875 C 171.558594 174.472656 171.394531 174.789062 171.269531 175.125 C 171.140625 175.464844 171.054688 175.808594 171.007812 176.167969 C 170.960938 176.523438 170.957031 176.882812 170.992188 177.238281 C 171.027344 177.597656 171.101562 177.949219 171.21875 178.289062 C 171.335938 178.628906 171.488281 178.953125 171.675781 179.257812 C 171.867188 179.5625 172.089844 179.84375 172.34375 180.097656 C 172.785156 180.539062 173.292969 180.882812 173.867188 181.121094 C 174.441406 181.359375 175.042969 181.476562 175.664062 181.476562 Z M 175.328125 176.441406 C 175.417969 176.347656 175.53125 176.300781 175.664062 176.300781 C 175.796875 176.300781 175.90625 176.347656 176 176.441406 C 176.09375 176.535156 176.140625 176.648438 176.140625 176.78125 C 176.140625 176.910156 176.09375 177.023438 176 177.117188 C 175.90625 177.210938 175.792969 177.257812 175.664062 177.257812 C 175.53125 177.257812 175.417969 177.210938 175.328125 177.117188 C 175.246094 177.019531 175.207031 176.90625 175.207031 176.78125 C 175.207031 176.65625 175.246094 176.542969 175.328125 176.445312 Z M 175.328125 176.441406 " fill-opacity="1" fill-rule="nonzero"/></g></svg>