<svg xmlns="http://www.w3.org/2000/svg" xmlns:xlink="http://www.w3.org/1999/xlink" width="500" zoomAndPan="magnify" viewBox="0 0 375 374.999991" height="500" preserveAspectRatio="xMidYMid meet" version="1.0"><defs><clipPath id="5088448d51"><path d="M 77.46875 81.183594 L 297.21875 81.183594 L 297.21875 294.183594 L 77.46875 294.183594 Z M 77.46875 81.183594 " clip-rule="nonzero"/></clipPath><clipPath id="b1555a79db"><path d="M 253 81.183594 L 297.21875 81.183594 L 297.21875 126 L 253 126 Z M 253 81.183594 " clip-rule="nonzero"/></clipPath><clipPath id="bc17e880b5"><path d="M 77.46875 106 L 115 106 L 115 144 L 77.46875 144 Z M 77.46875 106 " clip-rule="nonzero"/></clipPath></defs><g clip-path="url(#5088448d51)"><path fill="#d81b1b" d="M 278.867188 261.132812 L 84.839844 261.132812 L 84.839844 246.441406 L 289.847656 246.441406 L 289.847656 261.132812 Z M 245.917969 286.839844 L 245.917969 268.476562 L 275.207031 268.476562 L 275.207031 286.839844 Z M 99.484375 286.839844 L 99.484375 268.476562 L 128.769531 268.476562 L 128.769531 286.839844 Z M 92.160156 201.410156 C 92.160156 200.550781 92.476562 199.691406 93.046875 199.03125 L 109.308594 179.992188 C 112.183594 176.636719 114.46875 172.835938 116.113281 168.71875 L 133.992188 123.890625 C 134.546875 122.484375 135.878906 121.578125 137.394531 121.578125 L 147.074219 121.578125 C 147.074219 122.714844 147.117188 123.832031 147.21875 124.9375 C 147.316406 126.285156 147.503906 127.621094 147.746094 128.925781 L 139.753906 128.925781 C 138.207031 128.925781 136.835938 129.886719 136.308594 131.335938 L 121.664062 171.730469 C 121.261719 172.863281 121.421875 174.113281 122.105469 175.101562 C 122.792969 176.078125 123.910156 176.664062 125.109375 176.664062 L 249.578125 176.664062 C 250.78125 176.664062 251.894531 176.078125 252.582031 175.101562 C 253.269531 174.113281 253.425781 172.863281 253.027344 171.730469 L 238.382812 131.335938 C 237.851562 129.886719 236.480469 128.925781 234.9375 128.925781 L 226.914062 128.925781 C 227.355469 126.542969 227.613281 124.089844 227.613281 121.578125 L 237.296875 121.578125 C 238.8125 121.578125 240.140625 122.484375 240.699219 123.890625 L 258.574219 168.71875 C 260.21875 172.835938 262.507812 176.636719 265.382812 179.992188 L 281.640625 199.03125 C 282.210938 199.691406 282.527344 200.550781 282.527344 201.410156 L 282.527344 239.097656 L 92.160156 239.097656 Z M 92.160156 169.320312 L 92.160156 158.304688 L 112.382812 158.304688 L 109.324219 165.992188 C 108.851562 167.140625 108.25 168.230469 107.664062 169.320312 Z M 149.863281 136.269531 C 155.785156 151.332031 170.527344 161.976562 187.34375 161.976562 C 204.375 161.976562 218.949219 151.289062 224.8125 136.269531 L 232.375 136.269531 L 244.359375 169.320312 L 130.328125 169.320312 L 142.3125 136.269531 Z M 187.34375 88.527344 C 205.507812 88.527344 220.292969 103.347656 220.292969 121.578125 C 220.292969 139.8125 205.507812 154.632812 187.34375 154.632812 C 170.328125 154.632812 155.898438 141.332031 154.511719 124.335938 C 154.441406 123.429688 154.398438 122.511719 154.398438 121.578125 C 154.398438 103.347656 169.183594 88.527344 187.34375 88.527344 Z M 278.867188 158.304688 L 278.867188 169.320312 L 267.027344 169.320312 C 266.441406 168.230469 265.839844 167.140625 265.367188 165.992188 L 262.308594 158.304688 Z M 289.847656 239.097656 L 289.847656 201.410156 C 289.847656 198.785156 288.90625 196.246094 287.203125 194.253906 L 272.1875 176.664062 L 282.527344 176.664062 C 284.542969 176.664062 286.1875 175.015625 286.1875 172.992188 L 286.1875 154.632812 C 286.1875 152.609375 284.542969 150.960938 282.527344 150.960938 L 259.375 150.960938 L 247.492188 121.164062 C 245.820312 116.945312 241.8125 114.234375 237.296875 114.234375 L 226.914062 114.234375 C 223.453125 95.457031 207.050781 81.183594 187.34375 81.183594 C 167.640625 81.183594 151.238281 95.457031 147.777344 114.234375 L 137.394531 114.234375 C 132.875 114.234375 128.871094 116.945312 127.199219 121.164062 L 115.3125 150.960938 L 88.5 150.960938 C 86.484375 150.960938 84.839844 152.609375 84.839844 154.632812 L 84.839844 172.992188 C 84.839844 175.015625 86.484375 176.664062 88.5 176.664062 L 102.5 176.664062 L 87.484375 194.253906 C 85.785156 196.246094 84.839844 198.785156 84.839844 201.410156 L 84.839844 239.097656 C 80.808594 239.097656 77.519531 242.394531 77.519531 246.441406 L 77.519531 261.132812 C 77.519531 265.175781 80.808594 268.476562 84.839844 268.476562 L 92.160156 268.476562 L 92.160156 286.839844 C 92.160156 290.882812 95.449219 294.183594 99.484375 294.183594 L 128.769531 294.183594 C 132.804688 294.183594 136.09375 290.882812 136.09375 286.839844 L 136.09375 268.476562 L 238.597656 268.476562 L 238.597656 286.839844 C 238.597656 290.882812 241.886719 294.183594 245.917969 294.183594 L 275.207031 294.183594 C 279.238281 294.183594 282.527344 290.882812 282.527344 286.839844 L 282.527344 268.476562 L 289.847656 268.476562 C 293.882812 268.476562 297.171875 265.175781 297.171875 261.132812 L 297.171875 246.441406 C 297.171875 242.394531 293.882812 239.097656 289.847656 239.097656 " fill-opacity="1" fill-rule="nonzero"/></g><path fill="#d81b1b" d="M 117.789062 228.078125 C 111.726562 228.078125 106.804688 223.144531 106.804688 217.0625 C 106.804688 210.980469 111.726562 206.046875 117.789062 206.046875 C 123.851562 206.046875 128.769531 210.980469 128.769531 217.0625 C 128.769531 223.144531 123.851562 228.078125 117.789062 228.078125 Z M 117.789062 198.699219 C 107.691406 198.699219 99.484375 206.933594 99.484375 217.0625 C 99.484375 227.191406 107.691406 235.425781 117.789062 235.425781 C 127.882812 235.425781 136.09375 227.191406 136.09375 217.0625 C 136.09375 206.933594 127.882812 198.699219 117.789062 198.699219 " fill-opacity="1" fill-rule="nonzero"/><path fill="#d81b1b" d="M 256.902344 228.078125 C 250.839844 228.078125 245.917969 223.144531 245.917969 217.0625 C 245.917969 210.980469 250.839844 206.046875 256.902344 206.046875 C 262.964844 206.046875 267.882812 210.980469 267.882812 217.0625 C 267.882812 223.144531 262.964844 228.078125 256.902344 228.078125 Z M 256.902344 198.699219 C 246.804688 198.699219 238.597656 206.933594 238.597656 217.0625 C 238.597656 227.191406 246.804688 235.425781 256.902344 235.425781 C 266.996094 235.425781 275.207031 227.191406 275.207031 217.0625 C 275.207031 206.933594 266.996094 198.699219 256.902344 198.699219 " fill-opacity="1" fill-rule="nonzero"/><path fill="#d81b1b" d="M 220.292969 213.390625 L 154.398438 213.390625 L 154.398438 209.71875 L 220.292969 209.71875 Z M 220.292969 224.40625 L 154.398438 224.40625 L 154.398438 220.734375 L 220.292969 220.734375 Z M 223.953125 202.371094 L 150.734375 202.371094 C 148.71875 202.371094 147.074219 204.023438 147.074219 206.046875 L 147.074219 228.078125 C 147.074219 230.101562 148.71875 231.753906 150.734375 231.753906 L 223.953125 231.753906 C 225.96875 231.753906 227.613281 230.101562 227.613281 228.078125 L 227.613281 206.046875 C 227.613281 204.023438 225.96875 202.371094 223.953125 202.371094 " fill-opacity="1" fill-rule="nonzero"/><path fill="#d81b1b" d="M 173.429688 138.464844 C 174.046875 139.296875 174.960938 139.8125 175.976562 139.914062 C 176.105469 139.925781 176.234375 139.941406 176.363281 139.941406 C 177.25 139.941406 178.105469 139.625 178.777344 139.039062 L 208.066406 113.332031 C 209.582031 111.996094 209.738281 109.671875 208.410156 108.152344 C 207.066406 106.617188 204.761719 106.460938 203.230469 107.792969 L 176.917969 130.890625 L 168.3125 119.386719 C 167.09375 117.75 164.808594 117.433594 163.175781 118.640625 C 161.5625 119.859375 161.230469 122.152344 162.449219 123.773438 L 173.429688 138.464844 " fill-opacity="1" fill-rule="nonzero"/><g clip-path="url(#b1555a79db)"><path fill="#d81b1b" d="M 275.207031 109.429688 C 273.574219 106.960938 271.472656 104.851562 269.011719 103.21875 C 271.472656 101.582031 273.574219 99.472656 275.207031 97.007812 C 276.835938 99.472656 278.9375 101.582031 281.398438 103.21875 C 278.9375 104.851562 276.835938 106.960938 275.207031 109.429688 Z M 293.511719 99.546875 C 285.429688 99.546875 278.867188 92.960938 278.867188 84.855469 C 278.867188 82.832031 277.222656 81.183594 275.207031 81.183594 C 273.1875 81.183594 271.542969 82.832031 271.542969 84.855469 C 271.542969 92.960938 264.980469 99.546875 256.902344 99.546875 C 254.886719 99.546875 253.242188 101.195312 253.242188 103.21875 C 253.242188 105.242188 254.886719 106.890625 256.902344 106.890625 C 264.980469 106.890625 271.542969 113.476562 271.542969 121.578125 C 271.542969 123.601562 273.1875 125.253906 275.207031 125.253906 C 277.222656 125.253906 278.867188 123.601562 278.867188 121.578125 C 278.867188 113.476562 285.429688 106.890625 293.511719 106.890625 C 295.527344 106.890625 297.171875 105.242188 297.171875 103.21875 C 297.171875 101.195312 295.527344 99.546875 293.511719 99.546875 " fill-opacity="1" fill-rule="nonzero"/></g><g clip-path="url(#bc17e880b5)"><path fill="#d81b1b" d="M 95.824219 121.464844 C 96.894531 122.898438 98.152344 124.175781 99.597656 125.253906 C 98.152344 126.328125 96.894531 127.605469 95.824219 129.039062 C 94.75 127.605469 93.492188 126.328125 92.046875 125.253906 C 93.492188 124.175781 94.75 122.898438 95.824219 121.464844 Z M 92.160156 139.941406 C 92.160156 141.964844 93.804688 143.613281 95.824219 143.613281 C 97.839844 143.613281 99.484375 141.964844 99.484375 139.941406 C 99.484375 133.859375 104.402344 128.925781 110.464844 128.925781 C 112.484375 128.925781 114.128906 127.273438 114.128906 125.253906 C 114.128906 123.230469 112.484375 121.578125 110.464844 121.578125 C 104.402344 121.578125 99.484375 116.644531 99.484375 110.5625 C 99.484375 108.539062 97.839844 106.890625 95.824219 106.890625 C 93.804688 106.890625 92.160156 108.539062 92.160156 110.5625 C 92.160156 116.644531 87.242188 121.578125 81.179688 121.578125 C 79.164062 121.578125 77.519531 123.230469 77.519531 125.253906 C 77.519531 127.273438 79.164062 128.925781 81.179688 128.925781 C 87.242188 128.925781 92.160156 133.859375 92.160156 139.941406 " fill-opacity="1" fill-rule="nonzero"/></g></svg>